0
SECTION
2
HEADER
9
$INSUNITS
70
4
9
$ACADVER
1
AC1014
9
$HANDSEED
5
FFFF
0
ENDSEC
0
SECTION
2
TABLES
0
TABLE
2
VPORT
5
8
100
AcDbSymbolTable
0
ENDTAB
0
TABLE
2
LTYPE
5
5
100
AcDbSymbolTable
0
LTYPE
5
14
100
AcDbSymbolTableRecord
100
AcDbLinetypeTableRecord
2
BYBLOCK
70
0
0
LTYPE
5
15
100
AcDbSymbolTableRecord
100
AcDbLinetypeTableRecord
2
BYLAYER
70
0
0
ENDTAB
0
TABLE
2
LAYER
5
2
100
AcDbSymbolTable
70
2
0
LAYER
5
50
100
AcDbSymbolTableRecord
100
AcDbLayerTableRecord
2
0
70
0
6
CONTINUOUS
0
ENDTAB
0
TABLE
2
STYLE
5
3
100
AcDbSymbolTable
70
1
0
STYLE
5
11
100
AcDbSymbolTableRecord
100
AcDbTextStyleTableRecord
2
STANDARD
70
0
0
ENDTAB
0
TABLE
2
VIEW
5
6
100
AcDbSymbolTable
70
0
0
ENDTAB
0
TABLE
2
UCS
5
7
100
AcDbSymbolTable
70
0
0
ENDTAB
0
TABLE
2
APPID
5
9
100
AcDbSymbolTable
70
2
0
APPID
5
12
100
AcDbSymbolTableRecord
100
AcDbRegAppTableRecord
2
ACAD
70
0
0
ENDTAB
0
TABLE
2
DIMSTYLE
5
A
100
AcDbSymbolTable
70
1
0
ENDTAB
0
TABLE
2
BLOCK_RECORD
5
1
100
AcDbSymbolTable
70
1
0
BLOCK_RECORD
5
1F
100
AcDbSymbolTableRecord
100
AcDbBlockTableRecord
2
*MODEL_SPACE
0
BLOCK_RECORD
5
1B
100
AcDbSymbolTableRecord
100
AcDbBlockTableRecord
2
*PAPER_SPACE
0
ENDTAB
0
ENDSEC
0
SECTION
2
BLOCKS
0
BLOCK
5
20
100
AcDbEntity
100
AcDbBlockBegin
2
*MODEL_SPACE
0
ENDBLK
5
21
100
AcDbEntity
100
AcDbBlockEnd
0
BLOCK
5
1C
100
AcDbEntity
100
AcDbBlockBegin
2
*PAPER_SPACE
0
ENDBLK
5
1D
100
AcDbEntity
100
AcDbBlockEnd
0
ENDSEC
0
SECTION
2
ENTITIES
0
LWPOLYLINE
5
100
100
AcDbEntity
8
0
100
AcDbPolyline
90
26
70
1
43
0.0
10
265.58119228323955
20
-57.098939546189527
10
265.5811922832396
20
18.901060453809954
42
0.4142135623730947
10
255.28119228323959
20
29.201060453809909
10
-39.381192337214728
20
29.201060453810094
42
0.41421356237309576
10
-49.681192337214746
20
18.901060453809976
10
-49.681192337214746
20
-57.098939546189619
42
-0.99999999999999989
10
-57.081192337214546
20
-57.098939546189619
10
-57.081192337214574
20
-52.098939546189619
42
0.41421356237307699
10
-58.38119233721465
20
-50.798939546189658
10
-69.381192337214628
20
-50.798939546189658
10
-69.3811923372146
20
40.001060453810041
42
-0.3923317405945872
10
-67.069221632031059
20
42.493979422467227
10
214.64442403739255
20
42.499668946400746
42
0.19890711858311569
10
215.35151062245444
20
42.792562165010253
10
215.76600295470402
20
43.207054497259954
42
-0.19891236737964385
10
216.47310973589057
20
43.499947716073414
10
228.03333739630489
20
43.499947716073414
42
-0.19891236737964926
10
228.7404441774915
20
43.207054497259989
10
229.15462917860401
20
42.792869496147532
42
0.19891761618675199
10
229.86175615591532
20
42.499976277538011
10
282.78991937841613
20
42.501045221325562
42
-0.41319148670715478
10
285.28119228323965
20
40.001060453810027
10
285.28119228323953
20
-50.798939546189686
10
274.28119228323942
20
-50.798939546189686
42
0.41421356237305901
10
272.98119228323958
20
-52.098939546189641
10
272.98119228323935
20
-57.098939546189619
42
-0.99999999999999989
0
CIRCLE
5
101
100
AcDbEntity
8
0
100
AcDbCircle
10
168.78119228323979
20
38.501060453810027
30
0
40
1.6999999999999937
210
0
220
0
230
1
0
CIRCLE
5
102
100
AcDbEntity
8
0
100
AcDbCircle
10
-62.881192337214422
20
38.501060453810069
30
0
40
1.7000000000000004
210
0
220
0
230
1
0
CIRCLE
5
103
100
AcDbEntity
8
0
100
AcDbCircle
10
278.78119228323925
20
38.501060453810027
30
0
40
1.7000000000000004
210
0
220
0
230
1
0
CIRCLE
5
104
100
AcDbEntity
8
0
100
AcDbCircle
10
47.118807662785123
20
38.501060453810069
30
0
40
1.6999999999999953
210
0
220
0
230
1
0
ENDSEC
0
SECTION
2
OBJECTS
0
DICTIONARY
5
C
100
AcDbDictionary
3
ACAD_GROUP
350
D
3
ACAD_MLINESTYLE
350
17
0
DICTIONARY
5
D
100
AcDbDictionary
0
DICTIONARY
5
1A
330
C
100
AcDbDictionary
0
DICTIONARY
5
17
100
AcDbDictionary
0
ENDSEC
0
EOF
