0
SECTION
2
HEADER
9
$INSUNITS
70
4
9
$ACADVER
1
AC1014
9
$HANDSEED
5
FFFF
0
ENDSEC
0
SECTION
2
TABLES
0
TABLE
2
VPORT
5
8
100
AcDbSymbolTable
0
ENDTAB
0
TABLE
2
LTYPE
5
5
100
AcDbSymbolTable
0
LTYPE
5
14
100
AcDbSymbolTableRecord
100
AcDbLinetypeTableRecord
2
BYBLOCK
70
0
0
LTYPE
5
15
100
AcDbSymbolTableRecord
100
AcDbLinetypeTableRecord
2
BYLAYER
70
0
0
ENDTAB
0
TABLE
2
LAYER
5
2
100
AcDbSymbolTable
70
2
0
LAYER
5
50
100
AcDbSymbolTableRecord
100
AcDbLayerTableRecord
2
0
70
0
6
CONTINUOUS
0
ENDTAB
0
TABLE
2
STYLE
5
3
100
AcDbSymbolTable
70
1
0
STYLE
5
11
100
AcDbSymbolTableRecord
100
AcDbTextStyleTableRecord
2
STANDARD
70
0
0
ENDTAB
0
TABLE
2
VIEW
5
6
100
AcDbSymbolTable
70
0
0
ENDTAB
0
TABLE
2
UCS
5
7
100
AcDbSymbolTable
70
0
0
ENDTAB
0
TABLE
2
APPID
5
9
100
AcDbSymbolTable
70
2
0
APPID
5
12
100
AcDbSymbolTableRecord
100
AcDbRegAppTableRecord
2
ACAD
70
0
0
ENDTAB
0
TABLE
2
DIMSTYLE
5
A
100
AcDbSymbolTable
70
1
0
ENDTAB
0
TABLE
2
BLOCK_RECORD
5
1
100
AcDbSymbolTable
70
1
0
BLOCK_RECORD
5
1F
100
AcDbSymbolTableRecord
100
AcDbBlockTableRecord
2
*MODEL_SPACE
0
BLOCK_RECORD
5
1B
100
AcDbSymbolTableRecord
100
AcDbBlockTableRecord
2
*PAPER_SPACE
0
ENDTAB
0
ENDSEC
0
SECTION
2
BLOCKS
0
BLOCK
5
20
100
AcDbEntity
100
AcDbBlockBegin
2
*MODEL_SPACE
0
ENDBLK
5
21
100
AcDbEntity
100
AcDbBlockEnd
0
BLOCK
5
1C
100
AcDbEntity
100
AcDbBlockBegin
2
*PAPER_SPACE
0
ENDBLK
5
1D
100
AcDbEntity
100
AcDbBlockEnd
0
ENDSEC
0
SECTION
2
ENTITIES
0
LWPOLYLINE
5
100
100
AcDbEntity
8
0
100
AcDbPolyline
90
26
70
1
43
0.0
10
-39.381192337214742
20
28.901060453810086
42
0.41421356237309609
10
-49.381192337214735
20
18.901060453809979
10
-49.381192337214735
20
-57.098939546189612
42
-0.99999999999999989
10
-57.38119233721455
20
-57.098939546189612
10
-57.381192337214557
20
-52.098939546189612
42
0.414213562373069
10
-58.381192337214635
20
-51.098939546189648
10
-69.381192337214614
20
-51.098939546189648
10
-69.3811923372146
20
40.001060453810041
42
-0.3923317405945862
10
-67.069221632031059
20
42.493979422467234
10
214.64442403739253
20
42.499668946400746
42
0.19890711858311133
10
215.35151062245433
20
42.792562165010246
10
215.76600295470405
20
43.207054497259954
42
-0.19891236737966123
10
216.4731097358906
20
43.499947716073414
10
228.03333739630494
20
43.499947716073407
42
-0.19891236737966561
10
228.7404441774915
20
43.207054497259975
10
229.15462917860395
20
42.792869496147517
42
0.19891761618675358
10
229.86175615591523
20
42.499976277538011
10
282.78991937841613
20
42.501045221325562
42
-0.41319148670714229
10
285.28119228323953
20
40.001060453810013
10
285.28119228323953
20
-51.09893954618969
10
274.28119228323942
20
-51.09893954618969
42
0.41421356237308721
10
273.28119228323953
20
-52.098939546189641
10
273.28119228323931
20
-57.098939546189619
42
-0.99999999999999989
10
265.28119228323953
20
-57.098939546189548
10
265.28119228323959
20
18.901060453809944
42
0.41421356237309381
10
255.28119228323959
20
28.901060453809912
0
CIRCLE
5
101
100
AcDbEntity
8
0
100
AcDbCircle
10
278.78119228323925
20
38.501060453810027
30
0
40
1.7000000000000004
210
0
220
0
230
1
0
CIRCLE
5
102
100
AcDbEntity
8
0
100
AcDbCircle
10
47.118807662785116
20
38.501060453810069
30
0
40
1.6999999999999953
210
0
220
0
230
1
0
CIRCLE
5
103
100
AcDbEntity
8
0
100
AcDbCircle
10
-62.881192337214429
20
38.501060453810069
30
0
40
1.7000000000000004
210
0
220
0
230
1
0
CIRCLE
5
104
100
AcDbEntity
8
0
100
AcDbCircle
10
168.78119228323982
20
38.501060453810027
30
0
40
1.6999999999999937
210
0
220
0
230
1
0
ENDSEC
0
SECTION
2
OBJECTS
0
DICTIONARY
5
C
100
AcDbDictionary
3
ACAD_GROUP
350
D
3
ACAD_MLINESTYLE
350
17
0
DICTIONARY
5
D
100
AcDbDictionary
0
DICTIONARY
5
1A
330
C
100
AcDbDictionary
0
DICTIONARY
5
17
100
AcDbDictionary
0
ENDSEC
0
EOF
