0
SECTION
2
HEADER
9
$INSUNITS
70
4
9
$ACADVER
1
AC1014
9
$HANDSEED
5
FFFF
0
ENDSEC
0
SECTION
2
TABLES
0
TABLE
2
VPORT
5
8
100
AcDbSymbolTable
0
ENDTAB
0
TABLE
2
LTYPE
5
5
100
AcDbSymbolTable
0
LTYPE
5
14
100
AcDbSymbolTableRecord
100
AcDbLinetypeTableRecord
2
BYBLOCK
70
0
0
LTYPE
5
15
100
AcDbSymbolTableRecord
100
AcDbLinetypeTableRecord
2
BYLAYER
70
0
0
LTYPE
5
16
100
AcDbSymbolTableRecord
100
AcDbLinetypeTableRecord
2
DASHED
70
0
3
Dashed __ __ __ __ __ __ __ __ __ __ __ __ __ _
72
65
73
2
40
0.75
49
0.5
74
0
49
-0.25
74
0
0
ENDTAB
0
TABLE
2
LAYER
5
2
100
AcDbSymbolTable
70
3
0
LAYER
5
50
100
AcDbSymbolTableRecord
100
AcDbLayerTableRecord
2
1
70
0
62
7
6
DASHED
0
LAYER
5
51
100
AcDbSymbolTableRecord
100
AcDbLayerTableRecord
2
0
70
0
62
7
6
CONTINUOUS
0
ENDTAB
0
TABLE
2
STYLE
5
3
100
AcDbSymbolTable
70
1
0
STYLE
5
11
100
AcDbSymbolTableRecord
100
AcDbTextStyleTableRecord
2
STANDARD
70
0
0
ENDTAB
0
TABLE
2
VIEW
5
6
100
AcDbSymbolTable
70
0
0
ENDTAB
0
TABLE
2
UCS
5
7
100
AcDbSymbolTable
70
0
0
ENDTAB
0
TABLE
2
APPID
5
9
100
AcDbSymbolTable
70
2
0
APPID
5
12
100
AcDbSymbolTableRecord
100
AcDbRegAppTableRecord
2
ACAD
70
0
0
ENDTAB
0
TABLE
2
DIMSTYLE
5
A
100
AcDbSymbolTable
70
1
0
ENDTAB
0
TABLE
2
BLOCK_RECORD
5
1
100
AcDbSymbolTable
70
1
0
BLOCK_RECORD
5
1F
100
AcDbSymbolTableRecord
100
AcDbBlockTableRecord
2
*MODEL_SPACE
0
BLOCK_RECORD
5
1B
100
AcDbSymbolTableRecord
100
AcDbBlockTableRecord
2
*PAPER_SPACE
0
ENDTAB
0
ENDSEC
0
SECTION
2
BLOCKS
0
BLOCK
5
20
100
AcDbEntity
100
AcDbBlockBegin
2
*MODEL_SPACE
0
ENDBLK
5
21
100
AcDbEntity
100
AcDbBlockEnd
0
BLOCK
5
1C
100
AcDbEntity
100
AcDbBlockBegin
2
*PAPER_SPACE
0
ENDBLK
5
1D
100
AcDbEntity
100
AcDbBlockEnd
0
ENDSEC
0
SECTION
2
ENTITIES
0
LWPOLYLINE
5
100
100
AcDbEntity
8
0
100
AcDbPolyline
90
8
70
1
43
0.0
10
7.7875000000000005
20
-59.387500000000003
10
20.787500000000001
20
-59.387500000000003
42
0.41421356237307944
10
21.287500000000001
20
-58.887500000000017
10
21.287500000000001
20
-45.887500000000003
42
0.41421356237308204
10
20.787500000000001
20
-45.387500000000003
10
7.7875000000000005
20
-45.387500000000003
42
0.41421356237308071
10
7.2874999999999988
20
-45.887499999999989
10
7.2874999999999996
20
-58.887500000000017
42
0.41421356237307294
0
LWPOLYLINE
5
101
100
AcDbEntity
8
0
100
AcDbPolyline
90
12
70
1
43
0.0
10
240.65000000000003
20
-103.03750000000001
10
240.65000000000001
20
-116.03749999999999
42
0.41421356237301177
10
241.15000000000009
20
-116.53750000000001
10
243.53125000000009
20
-116.53750000000001
10
254.15000000000006
20
-116.53750000000001
10
256.53125
20
-116.53750000000001
42
0.41421356237303258
10
257.03125000000006
20
-116.03749999999999
10
257.03125000000006
20
-103.03750000000001
42
0.41421356237307422
10
256.53125
20
-102.53749999999999
10
254.15000000000006
20
-102.53749999999999
10
243.53125000000009
20
-102.53749999999999
10
241.15000000000009
20
-102.53749999999999
42
0.41421356237307422
0
LWPOLYLINE
5
102
100
AcDbEntity
8
0
100
AcDbPolyline
90
16
70
1
43
0.0
10
197.02500000000001
20
-116.53750000000001
10
203.02500000000009
20
-116.53750000000001
10
208.90625
20
-116.53750000000001
42
0.41421356237301177
10
209.40625
20
-116.03749999999999
10
209.40625
20
-103.03750000000001
42
0.41421356237313667
10
208.90625
20
-102.53749999999999
10
203.52500000000006
20
-102.53749999999999
10
203.52500000000006
20
-102.03749999999999
42
0.4142135623730222
10
203.02500000000009
20
-101.53750000000001
10
197.02500000000001
20
-101.53750000000001
42
0.41421356237311585
10
196.52500000000003
20
-102.03749999999999
10
196.52500000000003
20
-102.53749999999999
10
195.90625000000003
20
-102.53749999999999
42
0.41421356237309503
10
195.40625000000009
20
-103.03750000000001
10
195.40625000000009
20
-116.03749999999999
42
0.41421356237301177
10
195.90625000000003
20
-116.53750000000001
0
LWPOLYLINE
5
103
100
AcDbEntity
8
0
100
AcDbPolyline
90
12
70
1
43
0.0
10
219.71875
20
-102.53749999999999
10
217.33750000000001
20
-102.53749999999999
42
0.4142135623730846
10
216.83750000000003
20
-103.03750000000001
10
216.83750000000003
20
-116.03749999999999
42
0.41421356237307422
10
217.33750000000001
20
-116.53750000000001
10
219.71875
20
-116.53750000000001
10
230.33750000000001
20
-116.53750000000001
10
232.71875
20
-116.53750000000001
42
0.41421356237312623
10
233.21875000000011
20
-116.03749999999999
10
233.21875000000009
20
-103.03750000000001
42
0.41421356237310542
10
232.71875
20
-102.53749999999998
10
230.33750000000001
20
-102.53749999999999
0
LWPOLYLINE
5
104
100
AcDbEntity
8
0
100
AcDbPolyline
90
12
70
1
43
0.0
10
264.46249999999998
20
-116.03749999999999
42
0.41421356237309503
10
264.96249999999998
20
-116.53750000000001
10
267.34375
20
-116.53750000000001
10
277.96249999999998
20
-116.53750000000001
10
280.34375
20
-116.53750000000001
42
0.41421356237318868
10
280.84375
20
-116.03749999999999
10
280.84375
20
-103.03750000000001
42
0.41421356237313667
10
280.34375
20
-102.53749999999999
10
277.96249999999998
20
-102.53749999999999
10
267.34375
20
-102.53749999999999
10
264.96249999999998
20
-102.53749999999999
42
0.4142135623731783
10
264.46249999999998
20
-103.03750000000001
0
LWPOLYLINE
5
105
100
AcDbEntity
8
0
100
AcDbPolyline
90
8
70
1
43
0.0
10
344.63749999999999
20
-102.53749999999998
10
331.63749999999999
20
-102.53749999999999
42
0.41421356237337598
10
331.13750000000005
20
-103.03750000000001
10
331.1375000000001
20
-116.03749999999999
42
0.41421356237304302
10
331.63749999999999
20
-116.53749999999995
10
344.63749999999999
20
-116.53750000000001
42
0.41421356237327195
10
345.1375000000001
20
-116.03749999999999
10
345.13749999999993
20
-103.03750000000001
42
0.41421356237329271
0
LWPOLYLINE
5
106
100
AcDbEntity
8
0
100
AcDbPolyline
90
8
70
1
43
0.0
10
312.58749999999998
20
-102.53749999999999
42
0.41421356237310542
10
312.08750000000003
20
-103.03750000000001
10
312.08749999999998
20
-116.03749999999999
42
0.4142135623730846
10
312.58749999999998
20
-116.53749999999999
10
325.58749999999998
20
-116.53750000000001
42
0.41421356237290774
10
326.08749999999998
20
-116.03749999999999
10
326.08749999999992
20
-103.03750000000001
42
0.41421356237329271
10
325.58749999999998
20
-102.53749999999998
0
LWPOLYLINE
5
107
100
AcDbEntity
8
0
100
AcDbPolyline
90
8
70
1
43
0.0
10
293.53750000000002
20
-102.53749999999999
42
0.4142135623730846
10
293.03750000000008
20
-103.03750000000001
10
293.03750000000002
20
-116.03749999999999
42
0.4142135623730846
10
293.53750000000002
20
-116.53749999999999
10
306.53750000000002
20
-116.53750000000001
42
0.41421356237301177
10
307.03750000000002
20
-116.03749999999999
10
307.03750000000002
20
-103.03750000000001
42
0.41421356237313667
10
306.53750000000002
20
-102.53749999999998
0
LWPOLYLINE
5
108
100
AcDbEntity
8
0
100
AcDbPolyline
90
8
70
1
43
0.0
10
126.85000000000001
20
-2.5249999999999999
42
0.41421356237305601
10
126.35000000000002
20
-3.0249999999999999
10
126.34999999999999
20
-16.024999999999999
42
0.41421356237305729
10
126.85000000000001
20
-16.525000000000013
10
139.84999999999999
20
-16.525000000000002
42
0.41421356237309243
10
140.34999999999999
20
-16.024999999999999
10
140.34999999999999
20
-3.0249999999999999
42
0.4142135623731048
10
139.84999999999999
20
-2.5250000000000119
0
LWPOLYLINE
5
109
100
AcDbEntity
8
0
100
AcDbPolyline
90
8
70
1
43
0.0
10
159.40000000000001
20
-3.0249999999999999
42
0.4142135623731048
10
158.90000000000001
20
-2.5250000000000119
10
145.90000000000001
20
-2.5249999999999999
42
0.41421356237305601
10
145.40000000000003
20
-3.0249999999999999
10
145.40000000000001
20
-16.024999999999999
42
0.41421356237307033
10
145.90000000000001
20
-16.525000000000002
10
158.90000000000001
20
-16.525000000000002
42
0.41421356237309243
10
159.40000000000001
20
-16.024999999999999
0
LWPOLYLINE
5
110
100
AcDbEntity
8
0
100
AcDbPolyline
90
8
70
1
43
0.0
10
73.174999999999983
20
-2.5249999999999999
10
60.174999999999997
20
-2.5249999999999999
42
0.41421356237312529
10
59.675000000000004
20
-3.0249999999999999
10
59.675000000000004
20
-16.024999999999999
42
0.41421356237308854
10
60.174999999999997
20
-16.525000000000006
10
73.174999999999983
20
-16.525000000000002
42
0.41421356237309631
10
73.674999999999983
20
-16.024999999999999
10
73.674999999999983
20
-3.0249999999999999
42
0.41421356237308915
0
LWPOLYLINE
5
111
100
AcDbEntity
8
0
100
AcDbPolyline
90
8
70
1
43
0.0
10
111.77500000000002
20
-3.0249999999999999
42
0.4142135623731048
10
111.27500000000001
20
-2.5250000000000119
10
98.275000000000006
20
-2.5249999999999999
42
0.41421356237308754
10
97.775000000000034
20
-3.0249999999999999
10
97.775000000000034
20
-16.024999999999999
42
0.41421356237314577
10
98.275000000000006
20
-16.524999999999988
10
111.27500000000001
20
-16.525000000000002
42
0.41421356237309243
10
111.77500000000002
20
-16.024999999999999
0
LWPOLYLINE
5
112
100
AcDbEntity
8
0
100
AcDbPolyline
90
8
70
1
43
0.0
10
40.625
20
-16.024999999999999
42
0.41421356237309764
10
41.124999999999986
20
-16.524999999999995
10
54.125000000000021
20
-16.525000000000002
42
0.41421356237309503
10
54.625
20
-16.024999999999999
10
54.625
20
-3.0249999999999999
42
0.41421356237310381
10
54.125000000000021
20
-2.5250000000000044
10
41.125
20
-2.5249999999999999
42
0.41421356237306445
10
40.625
20
-3.0249999999999999
0
LWPOLYLINE
5
113
100
AcDbEntity
8
0
100
AcDbPolyline
90
8
70
1
43
0.0
10
92.724999999999994
20
-16.024999999999999
10
92.725000000000023
20
-3.0249999999999999
42
0.41421356237310053
10
92.224999999999994
20
-2.5250000000000012
10
79.22499999999998
20
-2.5249999999999999
42
0.41421356237306445
10
78.724999999999994
20
-3.0249999999999999
10
78.724999999999994
20
-16.024999999999999
42
0.4142135623730937
10
79.22499999999998
20
-16.525000000000002
10
92.224999999999994
20
-16.525000000000002
42
0.41421356237303519
0
LWPOLYLINE
5
114
100
AcDbEntity
8
0
100
AcDbPolyline
90
8
70
1
43
0.0
10
177.94999999999999
20
-2.5249999999999999
10
164.95000000000005
20
-2.5249999999999999
42
0.41421356237310314
10
164.44999999999999
20
-3.0249999999999999
10
164.44999999999999
20
-16.024999999999999
42
0.41421356237307161
10
164.95000000000005
20
-16.525000000000002
10
177.94999999999999
20
-16.525000000000002
42
0.41421356237318996
10
178.44999999999996
20
-16.024999999999999
10
178.44999999999999
20
-3.0249999999999999
42
0.41421356237310314
0
LWPOLYLINE
5
115
100
AcDbEntity
8
0
100
AcDbPolyline
90
8
70
1
43
0.0
10
16.524999999999999
20
-16.024999999999999
10
16.525000000000002
20
-3.0249999999999999
42
0.4142135623730937
10
16.024999999999999
20
-2.5249999999999995
10
3.0249999999999999
20
-2.5249999999999999
42
0.41421356237309437
10
2.5249999999999999
20
-3.0249999999999999
10
2.5249999999999999
20
-16.024999999999999
42
0.41421356237309082
10
3.0249999999999999
20
-16.525000000000002
10
16.024999999999999
20
-16.525000000000002
42
0.41421356237308982
0
LWPOLYLINE
5
116
100
AcDbEntity
8
0
100
AcDbPolyline
90
8
70
1
43
0.0
10
212.07499999999999
20
-16.024999999999999
42
0.41421356237316009
10
212.57499999999999
20
-16.524999999999977
10
225.57500000000002
20
-16.525000000000002
42
0.41421356237317569
10
226.07500000000002
20
-16.024999999999999
10
226.07500000000002
20
-3.0249999999999999
42
0.41421356237310314
10
225.57500000000002
20
-2.524999999999979
10
212.57499999999999
20
-2.5249999999999999
42
0.41421356237302154
10
212.07500000000005
20
-3.0249999999999999
0
LWPOLYLINE
5
117
100
AcDbEntity
8
0
100
AcDbPolyline
90
8
70
1
43
0.0
10
344.63749999999999
20
-2.5249999999999999
10
331.63749999999999
20
-2.5249999999999999
42
0.41421356237338347
10
331.1375000000001
20
-3.0249999999999999
10
331.1375000000001
20
-16.024999999999999
42
0.41421356237305601
10
331.63749999999999
20
-16.524999999999977
10
344.63749999999999
20
-16.525000000000002
42
0.4142135623732654
10
345.13749999999993
20
-16.024999999999999
10
345.13749999999993
20
-3.0249999999999999
42
0.41421356237326151
0
LWPOLYLINE
5
118
100
AcDbEntity
8
0
100
AcDbPolyline
90
8
70
1
43
0.0
10
293.03750000000002
20
-3.0249999999999999
10
293.03750000000002
20
-16.024999999999999
42
0.41421356237316009
10
293.53750000000002
20
-16.524999999999984
10
306.53750000000002
20
-16.525000000000002
42
0.41421356237309892
10
307.03750000000002
20
-16.024999999999999
10
307.03750000000002
20
-3.0249999999999999
42
0.41421356237313955
10
306.53750000000002
20
-2.5249999999999999
10
293.53750000000002
20
-2.5249999999999999
42
0.41421356237302154
0
LWPOLYLINE
5
119
100
AcDbEntity
8
0
100
AcDbPolyline
90
8
70
1
43
0.0
10
244.62500000000009
20
-16.525000000000002
42
0.41421356237302087
10
245.125
20
-16.024999999999999
10
245.12500000000003
20
-3.0249999999999999
42
0.41421356237313406
10
244.62500000000009
20
-2.5249999999999972
10
231.625
20
-2.5249999999999999
42
0.41421356237302154
10
231.125
20
-3.0249999999999999
10
231.125
20
-16.024999999999999
42
0.41421356237316009
10
231.625
20
-16.524999999999977
0
LWPOLYLINE
5
120
100
AcDbEntity
8
0
100
AcDbPolyline
90
8
70
1
43
0.0
10
325.58749999999998
20
-16.525000000000002
42
0.4142135623732654
10
326.08749999999992
20
-16.024999999999999
10
326.08749999999992
20
-3.0249999999999999
42
0.41421356237326185
10
325.58749999999998
20
-2.5250000000000057
10
312.58749999999998
20
-2.5249999999999999
42
0.41421356237302154
10
312.08750000000003
20
-3.0249999999999999
10
312.08749999999998
20
-16.024999999999999
42
0.41421356237316009
10
312.58749999999998
20
-16.524999999999977
0
LWPOLYLINE
5
121
100
AcDbEntity
8
0
100
AcDbPolyline
90
8
70
1
43
0.0
10
197.50000000000003
20
-3.0249999999999999
42
0.41421356237313955
10
197.00000000000003
20
-2.5249999999999879
10
184.00000000000003
20
-2.5249999999999999
42
0.4142135623731617
10
183.50000000000009
20
-3.0249999999999999
10
183.5
20
-16.024999999999999
42
0.41421356237310281
10
184.00000000000003
20
-16.52500000000002
10
197.00000000000003
20
-16.525000000000002
42
0.41421356237309892
10
197.50000000000003
20
-16.024999999999999
0
LWPOLYLINE
5
122
100
AcDbEntity
8
0
100
AcDbPolyline
90
8
70
1
43
0.0
10
264.17500000000007
20
-16.024999999999999
10
264.17500000000007
20
-3.0249999999999999
42
0.41421356237307355
10
263.67500000000001
20
-2.5249999999999999
10
250.67500000000001
20
-2.5249999999999999
42
0.41421356237302154
10
250.17500000000007
20
-3.0249999999999999
10
250.17500000000001
20
-16.024999999999999
42
0.41421356237313794
10
250.67500000000001
20
-16.525000000000002
10
263.67500000000001
20
-16.525000000000002
42
0.41421356237310542
0
LWPOLYLINE
5
123
100
AcDbEntity
8
0
100
AcDbPolyline
90
8
70
1
43
0.0
10
283.22500000000002
20
-3.0249999999999999
42
0.41421356237310314
10
282.72500000000002
20
-2.524999999999979
10
269.72500000000002
20
-2.5249999999999999
42
0.41421356237302154
10
269.22500000000008
20
-3.0249999999999999
10
269.22500000000002
20
-16.024999999999999
42
0.41421356237313794
10
269.72500000000002
20
-16.525000000000002
10
282.72500000000002
20
-16.525000000000002
42
0.41421356237317569
10
283.22500000000002
20
-16.024999999999999
0
LWPOLYLINE
5
124
100
AcDbEntity
8
0
100
AcDbPolyline
90
8
70
1
43
0.0
10
293.03750000000002
20
-26.837499999999999
10
293.03750000000002
20
-39.837499999999999
42
0.41421356237316526
10
293.53750000000002
20
-40.337500000000013
10
306.53750000000002
20
-40.337500000000013
42
0.41421356237292595
10
307.03750000000002
20
-39.837499999999999
10
307.03750000000002
20
-26.837499999999999
42
0.41421356237313928
10
306.53750000000002
20
-26.337499999999988
10
293.53750000000002
20
-26.337499999999999
42
0.4142135623730222
0
LWPOLYLINE
5
125
100
AcDbEntity
8
0
100
AcDbPolyline
90
8
70
1
43
0.0
10
312.58749999999998
20
-26.337499999999999
42
0.4142135623730222
10
312.08750000000003
20
-26.837499999999999
10
312.08749999999998
20
-39.837499999999999
42
0.41421356237316526
10
312.58749999999998
20
-40.337500000000013
10
325.58749999999998
20
-40.337500000000013
42
0.41421356237326934
10
326.08749999999992
20
-39.837499999999999
10
326.08749999999992
20
-26.837499999999999
42
0.41421356237326151
10
325.58749999999998
20
-26.337500000000027
0
LWPOLYLINE
5
126
100
AcDbEntity
8
0
100
AcDbPolyline
90
8
70
1
43
0.0
10
331.1375000000001
20
-39.837499999999999
42
0.41421356237305601
10
331.63749999999999
20
-40.337499999999977
10
344.63749999999999
20
-40.337500000000013
42
0.41421356237326934
10
345.13749999999993
20
-39.837499999999999
10
345.13749999999993
20
-26.837499999999999
42
0.41421356237326151
10
344.63749999999999
20
-26.337500000000027
10
331.63749999999999
20
-26.337499999999999
42
0.41421356237312623
10
331.1375000000001
20
-26.837499999999999
0
LWPOLYLINE
5
127
100
AcDbEntity
8
0
100
AcDbPolyline
90
8
70
1
43
0.0
10
16.525000000000002
20
-26.837499999999999
42
0.41421356237309115
10
16.024999999999999
20
-26.337499999999999
10
3.0249999999999999
20
-26.337499999999999
42
0.41421356237309537
10
2.5249999999999999
20
-26.837499999999999
10
2.5249999999999999
20
-39.837499999999999
42
0.41421356237309664
10
3.0249999999999999
20
-40.337500000000013
10
16.024999999999999
20
-40.337500000000013
42
0.41421356237308721
10
16.524999999999999
20
-39.837499999999999
0
LWPOLYLINE
5
128
100
AcDbEntity
8
0
100
AcDbPolyline
90
32
70
1
43
0.0
10
273.19999999999999
20
-26.337499999999999
10
269.72500000000002
20
-26.337499999999999
10
263.67500000000001
20
-26.337499999999999
10
260.19999999999999
20
-26.337499999999999
10
257.76200000000006
20
-26.337499999999999
10
251.762
20
-26.337499999999999
10
250.67500000000001
20
-26.337499999999999
42
0.4142135623730222
10
250.17500000000001
20
-26.837499999999999
10
250.17500000000001
20
-39.837499999999999
42
0.41421356237316526
10
250.67500000000001
20
-40.337499999999984
10
251.262
20
-40.337500000000013
10
251.262
20
-40.837500000000013
42
0.41421356237316265
10
251.762
20
-41.337499999999991
10
257.76200000000006
20
-41.337499999999999
42
0.41421356237317308
10
258.26200000000006
20
-40.837500000000013
10
258.262
20
-40.337500000000013
10
260.19999999999999
20
-40.337500000000013
10
263.67500000000001
20
-40.337500000000013
10
269.72500000000002
20
-40.337500000000013
10
273.19999999999999
20
-40.337500000000013
10
275.13799999999998
20
-40.337500000000013
10
275.13799999999998
20
-40.837500000000013
42
0.41421356237307944
10
275.63800000000003
20
-41.337500000000027
10
281.63799999999998
20
-41.337499999999999
42
0.41421356237317308
10
282.13799999999998
20
-40.837500000000013
10
282.13799999999998
20
-40.337500000000013
10
282.72500000000002
20
-40.337500000000013
42
0.41421356237314966
10
283.22500000000002
20
-39.837499999999999
10
283.22500000000002
20
-26.837499999999999
42
0.41421356237310281
10
282.72500000000002
20
-26.337499999999988
10
281.63799999999998
20
-26.337499999999999
10
275.63800000000003
20
-26.337499999999999
0
LWPOLYLINE
5
129
100
AcDbEntity
8
0
100
AcDbPolyline
90
20
70
1
43
0.0
10
244.61825000000002
20
-98.487500000000011
10
250.61824999999999
20
-98.487500000000011
42
0.41421356237312623
10
251.1182500000001
20
-97.987499999999997
10
251.11824999999999
20
-97.487500000000011
10
267.99425000000002
20
-97.487500000000011
10
267.99425000000002
20
-97.987499999999997
42
0.41421356237304302
10
268.49425000000002
20
-98.487499999999983
10
274.49425000000008
20
-98.487500000000011
42
0.41421356237304302
10
274.99425000000002
20
-97.987499999999997
10
274.99425000000002
20
-97.487500000000011
10
282.72500000000002
20
-97.487500000000011
42
0.4142135623731783
10
283.22500000000002
20
-96.987500000000011
10
283.22500000000002
20
-83.987499999999983
42
0.41421356237310542
10
282.72500000000008
20
-83.487499999999983
10
243.53125000000009
20
-83.487499999999983
42
0.4142135623730222
10
243.03124999999997
20
-83.987499999999983
10
243.03125
20
-96.987500000000011
42
0.41421356237310542
10
243.53125000000009
20
-97.487500000000011
10
244.11824999999999
20
-97.487500000000011
10
244.11824999999999
20
-97.987499999999997
42
0.41421356237309503
0
LWPOLYLINE
5
130
100
AcDbEntity
8
0
100
AcDbPolyline
90
8
70
1
43
0.0
10
325.58749999999998
20
-83.487499999999983
10
312.58749999999998
20
-83.487499999999983
42
0.41421356237301177
10
312.08749999999998
20
-83.987499999999983
10
312.08749999999998
20
-96.987500000000011
42
0.41421356237313667
10
312.58749999999998
20
-97.487500000000026
10
325.58749999999998
20
-97.487500000000011
42
0.41421356237326151
10
326.08749999999992
20
-96.987500000000011
10
326.08749999999992
20
-83.987499999999983
42
0.41421356237326151
0
LWPOLYLINE
5
131
100
AcDbEntity
8
0
100
AcDbPolyline
90
12
70
1
43
0.0
10
68.412499999999994
20
-116.53750000000001
42
0.4142135623730534
10
68.912500000000009
20
-116.03749999999999
10
68.912499999999994
20
-103.03750000000001
42
0.41421356237308982
10
68.412499999999994
20
-102.53749999999999
10
66.03125
20
-102.53749999999999
10
55.412500000000016
20
-102.53749999999999
10
53.031250000000021
20
-102.53749999999999
42
0.41421356237310542
10
52.531250000000007
20
-103.03750000000001
10
52.531250000000007
20
-116.03749999999999
42
0.41421356237305862
10
53.031250000000021
20
-116.53750000000001
10
55.412500000000016
20
-116.53750000000001
10
66.03125
20
-116.53750000000001
0
LWPOLYLINE
5
132
100
AcDbEntity
8
0
100
AcDbPolyline
90
12
70
1
43
0.0
10
4.90625
20
-116.03749999999999
42
0.41421356237305601
10
5.40625
20
-116.53749999999999
10
7.7875000000000005
20
-116.53750000000001
10
18.40625
20
-116.53750000000001
10
20.787500000000001
20
-116.53750000000001
42
0.41421356237305862
10
21.287500000000019
20
-116.03749999999999
10
21.287500000000001
20
-103.03750000000001
42
0.41421356237309243
10
20.787500000000001
20
-102.53749999999999
10
18.40625
20
-102.53749999999999
10
7.7875000000000005
20
-102.53749999999999
10
5.40625
20
-102.53749999999999
42
0.41421356237310542
10
4.9062500000000107
20
-103.03750000000001
0
LWPOLYLINE
5
133
100
AcDbEntity
8
0
100
AcDbPolyline
90
12
70
1
43
0.0
10
44.600000000000001
20
-102.53749999999999
10
42.21875
20
-102.53749999999999
10
31.600000000000001
20
-102.53749999999999
10
29.21875
20
-102.53749999999999
42
0.41421356237310542
10
28.718750000000011
20
-103.03750000000001
10
28.71875
20
-116.03749999999999
42
0.414213562373069
10
29.21875
20
-116.53750000000001
10
31.600000000000001
20
-116.53750000000001
10
42.21875
20
-116.53750000000001
10
44.600000000000001
20
-116.53750000000001
42
0.41421356237305862
10
45.100000000000009
20
-116.03749999999999
10
45.100000000000009
20
-103.03750000000001
42
0.41421356237309503
0
LWPOLYLINE
5
134
100
AcDbEntity
8
0
100
AcDbPolyline
90
8
70
1
43
0.0
10
177.46875
20
-102.03749999999999
10
177.46875
20
-116.03749999999999
42
0.4142135623730846
10
177.96875
20
-116.53750000000001
10
183.96875
20
-116.53750000000001
42
0.41421356237301177
10
184.46875000000003
20
-116.03749999999999
10
184.46875000000003
20
-102.03749999999999
42
0.41421356237301177
10
183.96875
20
-101.53750000000001
10
177.96875
20
-101.53750000000001
42
0.41421356237301177
0
LWPOLYLINE
5
135
100
AcDbEntity
8
0
100
AcDbPolyline
90
12
70
1
43
0.0
10
18.40625
20
-78.4375
10
23.168749999999999
20
-78.4375
42
0.41421356237309503
10
23.668749999999999
20
-77.9375
10
23.668749999999999
20
-64.9375
42
0.41421356237311063
10
23.168749999999999
20
-64.437500000000014
10
18.40625
20
-64.4375
10
10.168749999999999
20
-64.4375
10
5.40625
20
-64.4375
42
0.41421356237309764
10
4.9062499999999982
20
-64.9375
10
4.90625
20
-77.9375
42
0.41421356237307294
10
5.40625
20
-78.4375
10
10.168749999999999
20
-78.4375
0
LWPOLYLINE
5
136
100
AcDbEntity
8
0
100
AcDbPolyline
90
12
70
1
43
0.0
10
77.46875
20
-116.03749999999999
42
0.41421356237304818
10
77.96875
20
-116.53750000000001
10
82.724999999999994
20
-116.53750000000001
10
83.96875
20
-116.53750000000001
10
88.725000000000023
20
-116.53750000000001
42
0.41421356237314705
10
89.22499999999998
20
-116.03749999999999
10
89.225000000000023
20
-102.03749999999999
42
0.41421356237312623
10
88.725000000000023
20
-101.53750000000001
10
83.96875
20
-101.53750000000001
10
82.724999999999994
20
-101.53750000000001
10
77.96875
20
-101.53750000000001
42
0.41421356237315748
10
77.468750000000014
20
-102.03749999999999
0
LWPOLYLINE
5
137
100
AcDbEntity
8
0
100
AcDbPolyline
90
12
70
1
43
0.0
10
123.96875000000001
20
-103.03750000000001
10
123.96875000000001
20
-116.03749999999999
42
0.4142135623730846
10
124.46875
20
-116.53750000000001
10
136.375
20
-116.53750000000001
10
137.46875
20
-116.53750000000001
10
149.375
20
-116.53750000000001
42
0.41421356237307422
10
149.875
20
-116.03749999999999
10
149.875
20
-103.03750000000001
42
0.41421356237309503
10
149.375
20
-102.53749999999999
10
137.46875
20
-102.53749999999999
10
136.375
20
-102.53749999999999
10
124.46875
20
-102.53749999999999
42
0.41421356237316787
0
LWPOLYLINE
5
138
100
AcDbEntity
8
0
100
AcDbPolyline
90
22
70
1
43
0.0
10
245.41250000000005
20
-64.9375
10
245.41250000000002
20
-77.9375
42
0.41421356237312623
10
245.91250000000002
20
-78.437499999999986
10
280.34375
20
-78.4375
42
0.4142135623732251
10
280.84375
20
-77.9375
10
280.84375
20
-45.887500000000003
42
0.41421356237313667
10
280.34375000000006
20
-45.387499999999996
10
264.96249999999998
20
-45.387500000000003
42
0.4142135623732251
10
264.46249999999998
20
-45.887500000000003
10
264.46249999999998
20
-58.887500000000017
42
0.41421356237313667
10
264.96249999999998
20
-59.387500000000024
10
266.84375
20
-59.387500000000003
10
266.84375
20
-64.4375
10
258.91250000000002
20
-64.4375
10
257.81875000000002
20
-64.4375
10
255.88075000000003
20
-64.4375
10
255.88075000000003
20
-63.937500000000007
42
0.41421356237304818
10
255.38075000000006
20
-63.437499999999972
10
249.38075000000001
20
-63.437500000000007
42
0.41421356237317308
10
248.88075000000001
20
-63.937500000000007
10
248.88075000000001
20
-64.4375
10
245.91250000000002
20
-64.4375
42
0.4142135623730378
0
LWPOLYLINE
5
139
100
AcDbEntity
8
0
100
AcDbPolyline
90
32
70
1
43
0.0
10
4.9062499999999867
20
-83.987499999999983
10
4.90625
20
-96.987500000000011
42
0.41421356237309309
10
5.40625
20
-97.487500000000011
10
5.9932499999999997
20
-97.487500000000011
10
5.9932499999999997
20
-97.987499999999997
42
0.41421356237305601
10
6.4932500000000015
20
-98.487499999999983
10
12.49325
20
-98.487500000000011
42
0.41421356237305862
10
12.993250000000012
20
-97.987499999999997
10
12.99325
20
-97.487500000000011
10
14.93125
20
-97.487500000000011
10
18.40625
20
-97.487500000000011
10
26.837499999999999
20
-97.487500000000011
10
27.931249999999999
20
-97.487500000000011
10
29.869250000000001
20
-97.487500000000011
10
29.869250000000001
20
-97.987499999999997
42
0.414213562373069
10
30.369250000000001
20
-98.487500000000011
10
36.369250000000001
20
-98.487500000000011
42
0.41421356237305862
10
36.869250000000008
20
-97.987499999999997
10
36.869250000000008
20
-97.487500000000011
10
39.837499999999999
20
-97.487500000000011
42
0.41421356237309243
10
40.337500000000013
20
-96.987500000000011
10
40.337500000000013
20
-83.987499999999983
42
0.41421356237309243
10
39.837499999999999
20
-83.487499999999983
10
36.369250000000001
20
-83.487500000000026
10
30.369250000000001
20
-83.487500000000026
10
27.931249999999999
20
-83.487500000000026
10
26.837499999999999
20
-83.487500000000026
10
18.40625
20
-83.487500000000026
10
14.93125
20
-83.487500000000026
10
12.49325
20
-83.487500000000026
10
6.4932500000000015
20
-83.487500000000026
10
5.40625
20
-83.487499999999983
42
0.41421356237307294
0
LWPOLYLINE
5
140
100
AcDbEntity
8
0
100
AcDbPolyline
90
8
70
1
43
0.0
10
345.13749999999993
20
-83.987499999999983
42
0.41421356237326151
10
344.63749999999999
20
-83.487500000000011
10
331.63749999999999
20
-83.487500000000026
42
0.41421356237295975
10
331.13749999999993
20
-83.987499999999983
10
331.13749999999993
20
-96.987500000000011
42
0.41421356237319906
10
331.63749999999999
20
-97.487499999999997
10
344.63749999999999
20
-97.487500000000011
42
0.41421356237326151
10
345.13750000000005
20
-96.987500000000011
0
LWPOLYLINE
5
141
100
AcDbEntity
8
0
100
AcDbPolyline
90
8
70
1
43
0.0
10
293.03750000000002
20
-83.987499999999983
10
293.03750000000002
20
-96.987500000000011
42
0.41421356237313667
10
293.53750000000002
20
-97.487500000000011
10
306.53750000000002
20
-97.487500000000011
42
0.41421356237307422
10
307.03749999999991
20
-96.987500000000011
10
307.03749999999991
20
-83.987499999999983
42
0.41421356237310542
10
306.53750000000002
20
-83.487499999999983
10
293.53750000000002
20
-83.487500000000026
42
0.41421356237303258
0
LINE
5
142
100
AcDbEntity
8
0
100
AcDbLine
10
17.478325189065433
20
3.7549438495451168
30
0
11
19.066097855272144
21
1.004840920804303
31
0
0
SPLINE
5
143
100
AcDbEntity
8
0
100
AcDbSpline
70
4
71
3
72
8
73
4
74
0
42
0.000000001
43
0.0000000001
44
0.0000000001
40
0
40
0
40
0
40
0
40
1
40
1
40
1
40
1
41
1
41
1
41
1
41
1
10
6.8702755017069705
20
0.0048409208046495972
30
0
10
7.5848066815231618
20
0.0048409208046495972
30
0
10
8.2450607193674568
20
0.38603876728744879
30
0
10
8.6023263092756572
20
1.0048409208043028
30
0
0
LWPOLYLINE
5
144
100
AcDbEntity
8
0
100
AcDbPolyline
90
8
70
1
43
0.0
10
312.58749999999998
20
-59.387500000000003
10
325.58749999999998
20
-59.387500000000003
42
0.41421356237317308
10
326.08750000000009
20
-58.887500000000017
10
326.08749999999992
20
-45.887500000000003
42
0.41421356237325113
10
325.58749999999998
20
-45.387500000000045
10
312.58749999999998
20
-45.387500000000003
42
0.4142135623730222
10
312.08750000000003
20
-45.887500000000003
10
312.08749999999998
20
-58.887500000000017
42
0.41421356237316265
0
LINE
5
145
100
AcDbEntity
8
0
100
AcDbLine
10
15.831442269150459
20
4.2549438495450609
30
0
11
16.612299785281142
21
4.2549438495450609
31
0
0
SPLINE
5
146
100
AcDbEntity
8
0
100
AcDbSpline
70
4
71
3
72
8
73
4
74
0
42
0.000000001
43
0.0000000001
44
0.0000000001
40
0
40
0
40
0
40
0
40
1
40
1
40
1
40
1
41
1
41
1
41
1
41
1
10
11.056124293279462
20
4.2549437006079405
30
0
10
10.698858703371348
20
4.2549437006079405
30
0
10
10.368731684449264
20
4.0643447773665287
30
0
10
10.190098889495172
20
3.7549437006081119
30
0
0
SPLINE
5
147
100
AcDbEntity
8
0
100
AcDbSpline
70
4
71
3
72
8
73
4
74
0
42
0.000000001
43
0.0000000001
44
0.0000000001
40
0
40
0
40
0
40
0
40
1
40
1
40
1
40
1
41
1
41
1
41
1
41
1
10
17.478325189065433
20
3.7549438495451168
30
0
10
17.29969239411135
20
4.0643449263035336
30
0
10
16.969565375189241
20
4.2549438495449454
30
0
10
16.612299785281142
20
4.2549438495449454
30
0
0
LWPOLYLINE
5
148
100
AcDbEntity
8
0
100
AcDbPolyline
90
8
70
1
43
0.0
10
306.53750000000002
20
-59.387500000000003
42
0.41421356237300139
10
307.03750000000002
20
-58.887500000000017
10
307.03750000000002
20
-45.887500000000003
42
0.41421356237312623
10
306.53750000000002
20
-45.38750000000001
10
293.53750000000002
20
-45.387500000000003
42
0.4142135623730222
10
293.03750000000008
20
-45.887500000000003
10
293.03750000000002
20
-58.887500000000017
42
0.41421356237316265
10
293.53750000000002
20
-59.387500000000003
0
LINE
5
149
100
AcDbEntity
8
0
100
AcDbLine
10
8.6023263092756572
20
1.0048409208043028
30
0
11
10.190098889495172
21
3.7549437006081119
31
0
0
LINE
5
150
100
AcDbEntity
8
0
100
AcDbLine
10
11.056124293279462
20
4.2549437006079405
30
0
11
11.831442269150456
21
4.2549437006079938
31
0
0
LWPOLYLINE
5
151
100
AcDbEntity
8
0
100
AcDbPolyline
90
8
70
1
43
0.0
10
331.1375000000001
20
-45.887500000000003
10
331.1375000000001
20
-58.887500000000017
42
0.41421356237304818
10
331.63749999999999
20
-59.387499999999982
10
344.63749999999999
20
-59.387500000000003
42
0.41421356237325629
10
345.13750000000016
20
-58.887500000000017
10
345.13749999999993
20
-45.887500000000003
42
0.41421356237325629
10
344.63749999999999
20
-45.387500000000017
10
331.63749999999999
20
-45.387500000000003
42
0.41421356237338119
0
LINE
5
152
100
AcDbEntity
8
0
100
AcDbLine
10
15.831442269150459
20
3.4999719138447465
30
0
11
15.831442269150459
21
4.2549438495450609
31
0
0
ARC
5
153
100
AcDbEntity
8
0
100
AcDbCircle
10
13.831442269150456
20
3.4999719138447465
30
0
40
2.000000000000004
210
0
220
0
230
1
100
AcDbArc
50
-180
51
0
0
SPLINE
5
154
100
AcDbEntity
8
0
100
AcDbSpline
70
4
71
3
72
8
73
4
74
0
42
0.000000001
43
0.0000000001
44
0.0000000001
40
0
40
0
40
0
40
0
40
1
40
1
40
1
40
1
41
1
41
1
41
1
41
1
10
19.066097855272144
20
1.004840920804303
30
0
10
19.423363445180346
20
0.3860387672873844
30
0
10
20.083617483024657
20
0.0048409208045030461
30
0
10
20.798148662840937
20
0.0048409208045030079
30
0
0
LINE
5
155
100
AcDbEntity
8
0
100
AcDbLine
10
11.831442269150456
20
4.2549437006079938
30
0
11
11.831442269150452
21
3.4999719138447465
31
0
0
LINE
5
156
100
AcDbEntity
8
0
100
AcDbLine
10
248.60232630927484
20
1.0048409208045339
30
0
11
250.19009888949512
21
3.7549437006079778
31
0
0
LINE
5
157
100
AcDbEntity
8
0
100
AcDbLine
10
91.056124293279453
20
4.2549437006079316
30
0
11
91.831442269150443
21
4.2549437006079849
31
0
0
SPLINE
5
158
100
AcDbEntity
8
0
100
AcDbSpline
70
4
71
3
72
8
73
4
74
0
42
0.000000001
43
0.0000000001
44
0.0000000001
40
0
40
0
40
0
40
0
40
1
40
1
40
1
40
1
41
1
41
1
41
1
41
1
10
8.5967866830288031
20
-120.0648970931146
30
0
10
8.2395210931205654
20
-119.44609493959769
30
0
10
7.5792670552762686
20
-119.06489709311479
30
0
10
6.8647358754599352
20
-119.06489709311479
30
0
0
SPLINE
5
159
100
AcDbEntity
8
0
100
AcDbSpline
70
4
71
3
72
8
73
4
74
0
42
0.000000001
43
0.0000000001
44
0.0000000001
40
0
40
0
40
0
40
0
40
1
40
1
40
1
40
1
41
1
41
1
41
1
41
1
10
337.47832518906534
20
3.7549438495451071
30
0
10
337.29969239411133
20
4.0643449263035247
30
0
10
336.96956537518923
20
4.2549438495449365
30
0
10
336.61229978528121
20
4.2549438495449365
30
0
0
LINE
5
160
100
AcDbEntity
8
0
100
AcDbLine
10
171.05612429327954
20
4.2549437006079316
30
0
11
171.83144226915059
21
4.2549437006079849
31
0
0
LINE
5
161
100
AcDbEntity
8
0
100
AcDbLine
10
255.83144226915016
20
4.254943849545052
30
0
11
256.61229978528081
21
4.254943849545052
31
0
0
LINE
5
162
100
AcDbEntity
8
0
100
AcDbLine
10
95.831442269150443
20
4.254943849545052
30
0
11
96.612299785281124
21
4.254943849545052
31
0
0
LINE
5
163
100
AcDbEntity
8
0
100
AcDbLine
10
177.47832518906557
20
3.7549438495451071
30
0
11
179.06609785527226
21
1.0048409208042941
31
0
0
LINE
5
164
100
AcDbEntity
8
0
100
AcDbLine
10
175.83144226915061
20
4.254943849545052
30
0
11
176.61229978528129
21
4.254943849545052
31
0
0
SPLINE
5
165
100
AcDbEntity
8
0
100
AcDbSpline
70
4
71
3
72
8
73
4
74
0
42
0.000000001
43
0.0000000001
44
0.0000000001
40
0
40
0
40
0
40
0
40
1
40
1
40
1
40
1
41
1
41
1
41
1
41
1
10
99.066097855272162
20
1.0048409208042941
30
0
10
99.423363445180328
20
0.38603876728737552
30
0
10
100.08361748302464
20
0.0048409208044941643
30
0
10
100.79814866284093
20
0.0048409208044941261
30
0
0
LINE
5
166
100
AcDbEntity
8
0
100
AcDbLine
10
171.83144226915059
20
4.2549437006079849
30
0
11
171.83144226915059
21
3.4999719138447372
31
0
0
SPLINE
5
167
100
AcDbEntity
8
0
100
AcDbSpline
70
4
71
3
72
8
73
4
74
0
42
0.000000001
43
0.0000000001
44
0.0000000001
40
0
40
0
40
0
40
0
40
1
40
1
40
1
40
1
41
1
41
1
41
1
41
1
10
251.0561242932792
20
4.2549437006079316
30
0
10
250.69885870337106
20
4.2549437006079316
30
0
10
250.36873168444899
20
4.0643447773665198
30
0
10
250.19009888949486
20
3.754943700608103
30
0
0
LINE
5
168
100
AcDbEntity
8
0
100
AcDbLine
10
251.0561242932792
20
4.2549437006079316
30
0
11
251.83144226915007
21
4.2549437006079849
31
0
0
LINE
5
169
100
AcDbEntity
8
0
100
AcDbLine
10
251.83144226915007
20
4.2549437006079849
30
0
11
251.83144226915007
21
3.4999719138447372
31
0
0
SPLINE
5
170
100
AcDbEntity
8
0
100
AcDbSpline
70
4
71
3
72
8
73
4
74
0
42
0.000000001
43
0.0000000001
44
0.0000000001
40
0
40
0
40
0
40
0
40
1
40
1
40
1
40
1
41
1
41
1
41
1
41
1
10
246.87027550170666
20
0.0048409208046407137
30
0
10
247.58480668152285
20
0.0048409208046407137
30
0
10
248.24506071936713
20
0.38603876728743991
30
0
10
248.60232630927533
20
1.0048409208042941
30
0
0
LINE
5
171
100
AcDbEntity
8
0
100
AcDbLine
10
331.05612429327948
20
4.2549437006079316
30
0
11
331.83144226915044
21
4.2549437006079849
31
0
0
LINE
5
172
100
AcDbEntity
8
0
100
AcDbLine
10
246.86473587546004
20
-119.06489709311487
30
0
11
180.79260903659386
21
-119.06489709311501
31
0
0
LINE
5
173
100
AcDbEntity
8
0
100
AcDbLine
10
91.831442269150443
20
4.2549437006079849
30
0
11
91.831442269150443
21
3.4999719138447372
31
0
0
LINE
5
174
100
AcDbEntity
8
0
100
AcDbLine
10
331.83144226915044
20
4.2549437006079849
30
0
11
331.83144226915044
21
3.4999719138447372
31
0
0
LINE
5
175
100
AcDbEntity
8
0
100
AcDbLine
10
257.47832518906512
20
3.7549438495451071
30
0
11
259.06609785527178
21
1.0048409208042941
31
0
0
SPLINE
5
176
100
AcDbEntity
8
0
100
AcDbSpline
70
4
71
3
72
8
73
4
74
0
42
0.000000001
43
0.0000000001
44
0.0000000001
40
0
40
0
40
0
40
0
40
1
40
1
40
1
40
1
41
1
41
1
41
1
41
1
10
180.79260903659386
20
-119.06489709311501
30
0
10
180.07807785677761
20
-119.06489709311501
30
0
10
179.4178238189333
20
-119.44609493959776
30
0
10
179.06055822902513
20
-120.06489709311465
30
0
0
SPLINE
5
177
100
AcDbEntity
8
0
100
AcDbSpline
70
4
71
3
72
8
73
4
74
0
42
0.000000001
43
0.0000000001
44
0.0000000001
40
0
40
0
40
0
40
0
40
1
40
1
40
1
40
1
41
1
41
1
41
1
41
1
10
97.478325189065416
20
3.7549438495451071
30
0
10
97.299692394111318
20
4.0643449263035247
30
0
10
96.969565375189234
20
4.2549438495449365
30
0
10
96.612299785281124
20
4.2549438495449365
30
0
0
LINE
5
178
100
AcDbEntity
8
0
100
AcDbLine
10
255.83144226915016
20
3.4999719138447372
30
0
11
255.83144226915016
21
4.254943849545052
31
0
0
SPLINE
5
179
100
AcDbEntity
8
0
100
AcDbSpline
70
4
71
3
72
8
73
4
74
0
42
0.000000001
43
0.0000000001
44
0.0000000001
40
0
40
0
40
0
40
0
40
1
40
1
40
1
40
1
41
1
41
1
41
1
41
1
10
166.87027550170708
20
0.0048409208046407137
30
0
10
167.58480668152328
20
0.0048409208046407137
30
0
10
168.24506071936756
20
0.38603876728743991
30
0
10
168.60232630927581
20
1.0048409208042941
30
0
0
LINE
5
180
100
AcDbEntity
8
0
100
AcDbLine
10
95.831442269150443
20
3.4999719138447372
30
0
11
95.831442269150443
21
4.254943849545052
31
0
0
ARC
5
181
100
AcDbEntity
8
0
100
AcDbCircle
10
13.831442269150465
20
-122.56002808615507
30
0
40
1.9999999999999574
210
0
220
0
230
1
100
AcDbArc
50
0
51
180
0
SPLINE
5
182
100
AcDbEntity
8
0
100
AcDbSpline
70
4
71
3
72
8
73
4
74
0
42
0.000000001
43
0.0000000001
44
0.0000000001
40
0
40
0
40
0
40
0
40
1
40
1
40
1
40
1
41
1
41
1
41
1
41
1
10
168.59678668302863
20
-120.06489709311465
30
0
10
168.23952109312043
20
-119.44609493959774
30
0
10
167.57926705527612
20
-119.06489709311487
30
0
10
166.86473587545987
20
-119.06489709311487
30
0
0
LINE
5
183
100
AcDbEntity
8
0
100
AcDbLine
10
328.60232630927521
20
1.0048409208045339
30
0
11
330.19009888949535
21
3.7549437006079778
31
0
0
SPLINE
5
184
100
AcDbEntity
8
0
100
AcDbSpline
70
4
71
3
72
8
73
4
74
0
42
0.000000001
43
0.0000000001
44
0.0000000001
40
0
40
0
40
0
40
0
40
1
40
1
40
1
40
1
41
1
41
1
41
1
41
1
10
20.792609036593927
20
-119.06489709311495
30
0
10
20.078077856777728
20
-119.06489709311495
30
0
10
19.417823818933435
20
-119.44609493959776
30
0
10
19.060558229025265
20
-120.0648970931146
30
0
0
ARC
5
185
100
AcDbEntity
8
0
100
AcDbCircle
10
173.83144226915061
20
3.4999719138447372
30
0
40
2.0000000000000284
210
0
220
0
230
1
100
AcDbArc
50
-180
51
0
0
LINE
5
186
100
AcDbEntity
8
0
100
AcDbLine
10
175.83144226915039
20
-123.31499987291835
30
0
11
175.83144226915039
21
-122.56002808615507
31
0
0
LINE
5
187
100
AcDbEntity
8
0
100
AcDbLine
10
259.06055822902579
20
-120.06489709311488
30
0
11
257.4727856488056
21
-122.81499987291832
31
0
0
SPLINE
5
188
100
AcDbEntity
8
0
100
AcDbSpline
70
4
71
3
72
8
73
4
74
0
42
0.000000001
43
0.0000000001
44
0.0000000001
40
0
40
0
40
0
40
0
40
1
40
1
40
1
40
1
41
1
41
1
41
1
41
1
10
326.87027550170694
20
0.0048409208046407137
30
0
10
327.58480668152316
20
0.0048409208046407137
30
0
10
328.24506071936747
20
0.38603876728743991
30
0
10
328.60232630927561
20
1.0048409208042941
30
0
0
SPLINE
5
189
100
AcDbEntity
8
0
100
AcDbSpline
70
4
71
3
72
8
73
4
74
0
42
0.000000001
43
0.0000000001
44
0.0000000001
40
0
40
0
40
0
40
0
40
1
40
1
40
1
40
1
41
1
41
1
41
1
41
1
10
96.606760245021775
20
-123.31499987291828
30
0
10
96.964025834929842
20
-123.31499987291828
30
0
10
97.294152853851941
20
-123.12440094967684
30
0
10
97.472785648806038
20
-122.81499987291845
30
0
0
LINE
5
190
100
AcDbEntity
8
0
100
AcDbLine
10
168.60232630927581
20
1.0048409208042941
30
0
11
170.19009888949546
21
3.7549437006079778
31
0
0
SPLINE
5
191
100
AcDbEntity
8
0
100
AcDbSpline
70
4
71
3
72
8
73
4
74
0
42
0.000000001
43
0.0000000001
44
0.0000000001
40
0
40
0
40
0
40
0
40
1
40
1
40
1
40
1
41
1
41
1
41
1
41
1
10
10.184559349235476
20
-122.81500002185541
30
0
10
10.36319214418956
20
-123.12440109861384
30
0
10
10.693319163111674
20
-123.31500002185524
30
0
10
11.05058475301977
20
-123.31500002185524
30
0
0
LINE
5
192
100
AcDbEntity
8
0
100
AcDbLine
10
99.060558229026086
20
-120.06489709311488
30
0
11
97.472785648806038
21
-122.81499987291845
31
0
0
LINE
5
193
100
AcDbEntity
8
0
100
AcDbLine
10
88.602326309275128
20
1.0048409208045339
30
0
11
90.190098889495317
21
3.7549437006079778
31
0
0
SPLINE
5
194
100
AcDbEntity
8
0
100
AcDbSpline
70
4
71
3
72
8
73
4
74
0
42
0.000000001
43
0.0000000001
44
0.0000000001
40
0
40
0
40
0
40
0
40
1
40
1
40
1
40
1
41
1
41
1
41
1
41
1
10
259.06609785527178
20
1.0048409208042941
30
0
10
259.42336344518003
20
0.38603876728737552
30
0
10
260.08361748302434
20
0.0048409208044941643
30
0
10
260.79814866284062
20
0.0048409208044941261
30
0
0
SPLINE
5
195
100
AcDbEntity
8
0
100
AcDbSpline
70
4
71
3
72
8
73
4
74
0
42
0.000000001
43
0.0000000001
44
0.0000000001
40
0
40
0
40
0
40
0
40
1
40
1
40
1
40
1
41
1
41
1
41
1
41
1
10
86.870275501706956
20
0.0048409208046407137
30
0
10
87.584806681523148
20
0.0048409208046407137
30
0
10
88.245060719367444
20
0.38603876728743991
30
0
10
88.602326309275682
20
1.0048409208042941
30
0
0
SPLINE
5
196
100
AcDbEntity
8
0
100
AcDbSpline
70
4
71
3
72
8
73
4
74
0
42
0.000000001
43
0.0000000001
44
0.0000000001
40
0
40
0
40
0
40
0
40
1
40
1
40
1
40
1
41
1
41
1
41
1
41
1
10
179.06609785527226
20
1.0048409208042941
30
0
10
179.42336344518054
20
0.38603876728737552
30
0
10
180.08361748302474
20
0.0048409208044941643
30
0
10
180.7981486628411
20
0.0048409208044941261
30
0
0
SPLINE
5
197
100
AcDbEntity
8
0
100
AcDbSpline
70
4
71
3
72
8
73
4
74
0
42
0.000000001
43
0.0000000001
44
0.0000000001
40
0
40
0
40
0
40
0
40
1
40
1
40
1
40
1
41
1
41
1
41
1
41
1
10
177.47832518906557
20
3.7549438495451071
30
0
10
177.29969239411147
20
4.0643449263035247
30
0
10
176.96956537518935
20
4.2549438495449365
30
0
10
176.61229978528129
20
4.2549438495449365
30
0
0
LINE
5
198
100
AcDbEntity
8
0
100
AcDbLine
10
335.83144226915044
20
3.4999719138447372
30
0
11
335.83144226915044
21
4.254943849545052
31
0
0
SPLINE
5
199
100
AcDbEntity
8
0
100
AcDbSpline
70
4
71
3
72
8
73
4
74
0
42
0.000000001
43
0.0000000001
44
0.0000000001
40
0
40
0
40
0
40
0
40
1
40
1
40
1
40
1
41
1
41
1
41
1
41
1
10
171.05612429327954
20
4.2549437006079316
30
0
10
170.69885870337146
20
4.2549437006079316
30
0
10
170.36873168444941
20
4.0643447773665198
30
0
10
170.19009888949526
20
3.754943700608103
30
0
0
ARC
5
200
100
AcDbEntity
8
0
100
AcDbCircle
10
93.831442269150429
20
3.4999719138447372
30
0
40
1.9999999999999929
210
0
220
0
230
1
100
AcDbArc
50
-180
51
0
0
ARC
5
201
100
AcDbEntity
8
0
100
AcDbCircle
10
333.83144226915044
20
3.4999719138447372
30
0
40
1.9999999999999574
210
0
220
0
230
1
100
AcDbArc
50
-180
51
0
0
LINE
5
202
100
AcDbEntity
8
0
100
AcDbLine
10
175.83144226915064
20
3.4999719138447372
30
0
11
175.83144226915061
21
4.254943849545052
31
0
0
SPLINE
5
203
100
AcDbEntity
8
0
100
AcDbSpline
70
4
71
3
72
8
73
4
74
0
42
0.000000001
43
0.0000000001
44
0.0000000001
40
0
40
0
40
0
40
0
40
1
40
1
40
1
40
1
41
1
41
1
41
1
41
1
10
257.47832518906512
20
3.7549438495451071
30
0
10
257.29969239411105
20
4.0643449263035247
30
0
10
256.96956537518889
20
4.2549438495449365
30
0
10
256.61229978528081
20
4.2549438495449365
30
0
0
ARC
5
204
100
AcDbEntity
8
0
100
AcDbCircle
10
253.83144226915019
20
3.4999719138447372
30
0
40
2.0000000000000995
210
0
220
0
230
1
100
AcDbArc
50
-180
51
0
0
SPLINE
5
205
100
AcDbEntity
8
0
100
AcDbSpline
70
4
71
3
72
8
73
4
74
0
42
0.000000001
43
0.0000000001
44
0.0000000001
40
0
40
0
40
0
40
0
40
1
40
1
40
1
40
1
41
1
41
1
41
1
41
1
10
91.056124293279453
20
4.2549437006079316
30
0
10
90.698858703371371
20
4.2549437006079316
30
0
10
90.368731684449273
20
4.0643447773665198
30
0
10
90.190098889495147
20
3.754943700608103
30
0
0
SPLINE
5
206
100
AcDbEntity
8
0
100
AcDbSpline
70
4
71
3
72
8
73
4
74
0
42
0.000000001
43
0.0000000001
44
0.0000000001
40
0
40
0
40
0
40
0
40
1
40
1
40
1
40
1
41
1
41
1
41
1
41
1
10
176.60676024502135
20
-123.31499987291828
30
0
10
176.96402583492943
20
-123.31499987291828
30
0
10
177.29415285385156
20
-123.12440094967684
30
0
10
177.47278564880563
20
-122.81499987291845
30
0
0
LINE
5
207
100
AcDbEntity
8
0
100
AcDbLine
10
335.83144226915044
20
4.254943849545052
30
0
11
336.61229978528121
21
4.2549438495449365
31
0
0
SPLINE
5
208
100
AcDbEntity
8
0
100
AcDbSpline
70
4
71
3
72
8
73
4
74
0
42
0.000000001
43
0.0000000001
44
0.0000000001
40
0
40
0
40
0
40
0
40
1
40
1
40
1
40
1
41
1
41
1
41
1
41
1
10
331.05612429327948
20
4.2549437006079316
30
0
10
330.6988587033714
20
4.2549437006079316
30
0
10
330.36873168444924
20
4.0643447773665198
30
0
10
330.19009888949512
20
3.754943700608103
30
0
0
SPLINE
5
209
100
AcDbEntity
8
0
100
AcDbSpline
70
4
71
3
72
8
73
4
74
0
42
0.000000001
43
0.0000000001
44
0.0000000001
40
0
40
0
40
0
40
0
40
1
40
1
40
1
40
1
41
1
41
1
41
1
41
1
10
339.06609785527223
20
1.0048409208043825
30
0
10
339.42336344518031
20
0.38603876728757003
30
0
10
340.08361748302445
20
0.0048409208047894021
30
0
10
340.7981486628409
20
0.0048409208047962534
30
0
0
LINE
5
210
100
AcDbEntity
8
0
100
AcDbLine
10
20.798148662840937
20
0.0048409208045030079
30
0
11
86.870275501706956
21
0.0048409208046407137
31
0
0
LINE
5
211
100
AcDbEntity
8
0
100
AcDbLine
10
97.478325189065416
20
3.7549438495451071
30
0
11
99.066097855272162
21
1.0048409208042941
31
0
0
ARC
5
212
100
AcDbEntity
8
0
100
AcDbCircle
10
2.7071067811865879
20
-118.56489709311482
30
0
40
0.49999999999998768
210
0
220
0
230
1
100
AcDbArc
50
224.99999999999898
51
269.99999999999937
0
ARC
5
213
100
AcDbEntity
8
0
100
AcDbCircle
10
347.16250000000036
20
-2.702265860381829
30
0
40
0.49999999999954525
210
0
220
0
230
1
100
AcDbArc
50
0
51
45.000000000012086
0
ARC
5
214
100
AcDbEntity
8
0
100
AcDbCircle
10
173.83144226915033
20
-122.56002808615507
30
0
40
2.0000000000000639
210
0
220
0
230
1
100
AcDbArc
50
0
51
180
0
SPLINE
5
215
100
AcDbEntity
8
0
100
AcDbSpline
70
4
71
3
72
8
73
4
74
0
42
0.000000001
43
0.0000000001
44
0.0000000001
40
0
40
0
40
0
40
0
40
1
40
1
40
1
40
1
41
1
41
1
41
1
41
1
10
260.79260903659394
20
-119.06489709311501
30
0
10
260.07807785677778
20
-119.06489709311501
30
0
10
259.41782381893347
20
-119.44609493959776
30
0
10
259.06055822902522
20
-120.06489709311465
30
0
0
LINE
5
216
100
AcDbEntity
8
0
100
AcDbLine
10
90.184559349235784
20
-122.81500002185544
30
0
11
88.59678668302908
21
-120.0648970931146
31
0
0
LINE
5
217
100
AcDbEntity
8
0
100
AcDbLine
10
339.06055822902579
20
-120.06489709311488
30
0
11
337.4727856488056
21
-122.81499987291838
31
0
0
SPLINE
5
218
100
AcDbEntity
8
0
100
AcDbSpline
70
4
71
3
72
8
73
4
74
0
42
0.000000001
43
0.0000000001
44
0.0000000001
40
0
40
0
40
0
40
0
40
1
40
1
40
1
40
1
41
1
41
1
41
1
41
1
10
340.79260903659383
20
-119.06489709311508
30
0
10
340.07807785677761
20
-119.06489709311508
30
0
10
339.41782381893347
20
-119.44609493959788
30
0
10
339.06055822902539
20
-120.06489709311468
30
0
0
LINE
5
219
100
AcDbEntity
8
0
100
AcDbLine
10
91.831442269150727
20
-123.31500002185535
30
0
11
91.050584753020033
21
-123.31500002185535
31
0
0
LINE
5
220
100
AcDbEntity
8
0
100
AcDbLine
10
1.7347234759768071e-16
20
-1.9769307136662557
30
0
11
9.0899510141184692e-15
21
-116.35779031192827
31
0
0
LINE
5
221
100
AcDbEntity
8
0
100
AcDbLine
10
15.831442269150422
20
-123.31499987291828
30
0
11
15.831442269150422
21
-122.56002808615507
31
0
0
LINE
5
222
100
AcDbEntity
8
0
100
AcDbLine
10
179.06055822902513
20
-120.06489709311465
30
0
11
177.47278564880563
21
-122.81499987291845
31
0
0
LINE
5
223
100
AcDbEntity
8
0
100
AcDbLine
10
16.606760245021412
20
-123.31499987291828
30
0
11
15.831442269150422
21
-123.31499987291828
31
0
0
LINE
5
224
100
AcDbEntity
8
0
100
AcDbLine
10
347.66249999999991
20
-2.702265860381829
30
0
11
347.66250000000008
21
-116.35779031192845
31
0
0
LINE
5
225
100
AcDbEntity
8
0
100
AcDbLine
10
337.47832518906534
20
3.7549438495451071
30
0
11
339.06609785527223
21
1.0048409208043823
31
0
0
LINE
5
226
100
AcDbEntity
8
0
100
AcDbLine
10
326.86473587546004
20
-119.06489709311487
30
0
11
260.79260903659394
21
-119.06489709311501
31
0
0
ARC
5
227
100
AcDbEntity
8
0
100
AcDbCircle
10
0.50000000000005962
20
-116.35779031192827
30
0
40
0.50000000000005052
210
0
220
0
230
1
100
AcDbArc
50
180
51
224.99999999999696
0
ARC
5
228
100
AcDbEntity
8
0
100
AcDbCircle
10
347.16250000000053
20
-116.35779031192871
30
0
40
0.49999999999950911
210
0
220
0
230
1
100
AcDbArc
50
-45.000000000024173
51
0
0
LINE
5
229
100
AcDbEntity
8
0
100
AcDbLine
10
0.14644660940673154
20
-116.71134370252156
30
0
11
2.353553390593313
21
-118.91845048370809
31
0
0
SPLINE
5
230
100
AcDbEntity
8
0
100
AcDbSpline
70
4
71
3
72
8
73
4
74
0
42
0.000000001
43
0.0000000001
44
0.0000000001
40
0
40
0
40
0
40
0
40
1
40
1
40
1
40
1
41
1
41
1
41
1
41
1
10
330.18455934923543
20
-122.81500002185552
30
0
10
330.3631921441895
20
-123.12440109861387
30
0
10
330.69331916311165
20
-123.3150000218553
30
0
10
331.05058475301973
20
-123.3150000218553
30
0
0
LINE
5
231
100
AcDbEntity
8
0
100
AcDbLine
10
260.79814866284062
20
0.0048409208044941261
30
0
11
326.87027550170694
21
0.0048409208046407137
31
0
0
SPLINE
5
232
100
AcDbEntity
8
0
100
AcDbSpline
70
4
71
3
72
8
73
4
74
0
42
0.000000001
43
0.0000000001
44
0.0000000001
40
0
40
0
40
0
40
0
40
1
40
1
40
1
40
1
41
1
41
1
41
1
41
1
10
250.18455934923549
20
-122.81500002185544
30
0
10
250.36319214418955
20
-123.12440109861386
30
0
10
250.69331916311171
20
-123.31500002185528
30
0
10
251.05058475301976
20
-123.31500002185528
30
0
0
ARC
5
233
100
AcDbEntity
8
0
100
AcDbCircle
10
333.83144226915044
20
-122.56002808615507
30
0
40
2.0000000000000284
210
0
220
0
230
1
100
AcDbArc
50
0
51
180
0
LINE
5
234
100
AcDbEntity
8
0
100
AcDbLine
10
0.14644660940672627
20
-1.6233773230729811
30
0
11
1.6282182438776307
21
-0.1416056886020764
31
0
0
LINE
5
235
100
AcDbEntity
8
0
100
AcDbLine
10
251.83144226915044
20
-122.56002808615507
30
0
11
251.83144226915044
21
-123.31500002185535
31
0
0
LINE
5
236
100
AcDbEntity
8
0
100
AcDbLine
10
6.8702755017069705
20
0.0048409208046495972
30
0
11
1.9817716344709047
21
0.0048409208046495972
31
0
0
LINE
5
237
100
AcDbEntity
8
0
100
AcDbLine
10
347.5160533905933
20
-116.71134370252177
30
0
11
345.30894660940658
21
-118.91845048370828
31
0
0
LINE
5
238
100
AcDbEntity
8
0
100
AcDbLine
10
256.60676024502146
20
-123.31499987291828
30
0
11
255.83144226915039
21
-123.31499987291836
31
0
0
LINE
5
239
100
AcDbEntity
8
0
100
AcDbLine
10
255.83144226915039
20
-123.31499987291836
30
0
11
255.83144226915039
21
-122.56002808615507
31
0
0
SPLINE
5
240
100
AcDbEntity
8
0
100
AcDbSpline
70
4
71
3
72
8
73
4
74
0
42
0.000000001
43
0.0000000001
44
0.0000000001
40
0
40
0
40
0
40
0
40
1
40
1
40
1
40
1
41
1
41
1
41
1
41
1
10
16.606760245021412
20
-123.31499987291828
30
0
10
16.964025834929579
20
-123.31499987291828
30
0
10
17.294152853851617
20
-123.12440094967684
30
0
10
17.472785648805775
20
-122.81499987291845
30
0
0
SPLINE
5
241
100
AcDbEntity
8
0
100
AcDbSpline
70
4
71
3
72
8
73
4
74
0
42
0.000000001
43
0.0000000001
44
0.0000000001
40
0
40
0
40
0
40
0
40
1
40
1
40
1
40
1
41
1
41
1
41
1
41
1
10
336.60676024502146
20
-123.31499987291828
30
0
10
336.9640258349296
20
-123.31499987291828
30
0
10
337.29415285385164
20
-123.12440094967691
30
0
10
337.47278564880571
20
-122.81499987291845
30
0
0
LINE
5
242
100
AcDbEntity
8
0
100
AcDbLine
10
100.79814866284093
20
0.0048409208044941261
30
0
11
166.87027550170708
21
0.0048409208046407137
31
0
0
ARC
5
243
100
AcDbEntity
8
0
100
AcDbCircle
10
344.95539321881347
20
-118.56489709311505
30
0
40
0.49999999999993605
210
0
220
0
230
1
100
AcDbArc
50
269.99999999998045
51
314.99999999998965
0
LINE
5
244
100
AcDbEntity
8
0
100
AcDbLine
10
2.7071067811865825
20
-119.06489709311481
30
0
11
6.8647358754599352
21
-119.06489709311479
31
0
0
LINE
5
245
100
AcDbEntity
8
0
100
AcDbLine
10
171.8314422691503
20
-123.31500002185535
30
0
11
171.05058475301962
21
-123.31500002185535
31
0
0
LINE
5
246
100
AcDbEntity
8
0
100
AcDbLine
10
10.184559349235476
20
-122.81500002185541
30
0
11
8.5967866830288031
21
-120.0648970931146
31
0
0
LINE
5
247
100
AcDbEntity
8
0
100
AcDbLine
10
171.8314422691503
20
-122.56002808615507
30
0
11
171.8314422691503
21
-123.31500002185535
31
0
0
SPLINE
5
248
100
AcDbEntity
8
0
100
AcDbSpline
70
4
71
3
72
8
73
4
74
0
42
0.000000001
43
0.0000000001
44
0.0000000001
40
0
40
0
40
0
40
0
40
1
40
1
40
1
40
1
41
1
41
1
41
1
41
1
10
170.18455934923534
20
-122.81500002185544
30
0
10
170.36319214418941
20
-123.12440109861386
30
0
10
170.69331916311154
20
-123.31500002185528
30
0
10
171.05058475301962
20
-123.31500002185528
30
0
0
LINE
5
249
100
AcDbEntity
8
0
100
AcDbLine
10
250.18455934923549
20
-122.81500002185544
30
0
11
248.59678668302882
21
-120.06489709311465
31
0
0
LINE
5
250
100
AcDbEntity
8
0
100
AcDbLine
10
330.18455934923543
20
-122.81500002185552
30
0
11
328.59678668302882
21
-120.06489709311468
31
0
0
SPLINE
5
251
100
AcDbEntity
8
0
100
AcDbSpline
70
4
71
3
72
8
73
4
74
0
42
0.000000001
43
0.0000000001
44
0.0000000001
40
0
40
0
40
0
40
0
40
1
40
1
40
1
40
1
41
1
41
1
41
1
41
1
10
328.59678668302882
20
-120.06489709311468
30
0
10
328.23952109312052
20
-119.44609493959774
30
0
10
327.5792670552762
20
-119.06489709311487
30
0
10
326.86473587546004
20
-119.06489709311487
30
0
0
LINE
5
252
100
AcDbEntity
8
0
100
AcDbLine
10
251.83144226915044
20
-123.31500002185535
30
0
11
251.05058475301976
21
-123.31500002185528
31
0
0
LINE
5
253
100
AcDbEntity
8
0
100
AcDbLine
10
170.18455934923534
20
-122.81500002185544
30
0
11
168.59678668302863
21
-120.06489709311465
31
0
0
LINE
5
254
100
AcDbEntity
8
0
100
AcDbLine
10
11.831442269150507
20
-122.56002808615507
30
0
11
11.831442269150436
21
-123.31500002185535
31
0
0
ARC
5
255
100
AcDbEntity
8
0
100
AcDbCircle
10
1.9817716344709053
20
-0.49515907919535201
30
0
40
0.50000000000000167
210
0
220
0
230
1
100
AcDbArc
50
90.000000000000071
51
134.99999999999991
0
LINE
5
256
100
AcDbEntity
8
0
100
AcDbLine
10
331.83144226915039
20
-122.56002808615507
30
0
11
331.83144226915044
21
-123.31500002185543
31
0
0
LINE
5
257
100
AcDbEntity
8
0
100
AcDbLine
10
96.606760245021775
20
-123.31499987291828
30
0
11
95.831442269150784
21
-123.31499987291835
31
0
0
LINE
5
258
100
AcDbEntity
8
0
100
AcDbLine
10
11.831442269150436
20
-123.31500002185535
30
0
11
11.05058475301977
21
-123.31500002185524
31
0
0
LINE
5
259
100
AcDbEntity
8
0
100
AcDbLine
10
331.83144226915044
20
-123.31500002185543
30
0
11
331.05058475301973
21
-123.3150000218553
31
0
0
LINE
5
260
100
AcDbEntity
8
0
100
AcDbLine
10
336.60676024502146
20
-123.31499987291828
30
0
11
335.83144226915044
21
-123.31499987291836
31
0
0
LINE
5
261
100
AcDbEntity
8
0
100
AcDbLine
10
166.86473587545987
20
-119.06489709311487
30
0
11
100.79260903659424
21
-119.06489709311501
31
0
0
LINE
5
262
100
AcDbEntity
8
0
100
AcDbLine
10
19.060558229025265
20
-120.0648970931146
30
0
11
17.472785648805775
21
-122.81499987291845
31
0
0
SPLINE
5
263
100
AcDbEntity
8
0
100
AcDbSpline
70
4
71
3
72
8
73
4
74
0
42
0.000000001
43
0.0000000001
44
0.0000000001
40
0
40
0
40
0
40
0
40
1
40
1
40
1
40
1
41
1
41
1
41
1
41
1
10
256.60676024502146
20
-123.31499987291828
30
0
10
256.9640258349296
20
-123.31499987291828
30
0
10
257.29415285385164
20
-123.12440094967691
30
0
10
257.47278564880571
20
-122.81499987291845
30
0
0
LINE
5
264
100
AcDbEntity
8
0
100
AcDbLine
10
180.7981486628411
20
0.0048409208044941261
30
0
11
246.87027550170666
21
0.0048409208046407137
31
0
0
SPLINE
5
265
100
AcDbEntity
8
0
100
AcDbSpline
70
4
71
3
72
8
73
4
74
0
42
0.000000001
43
0.0000000001
44
0.0000000001
40
0
40
0
40
0
40
0
40
1
40
1
40
1
40
1
41
1
41
1
41
1
41
1
10
100.79260903659424
20
-119.06489709311501
30
0
10
100.07807785677805
20
-119.06489709311501
30
0
10
99.417823818933769
20
-119.44609493959776
30
0
10
99.060558229025574
20
-120.06489709311465
30
0
0
SPLINE
5
266
100
AcDbEntity
8
0
100
AcDbSpline
70
4
71
3
72
8
73
4
74
0
42
0.000000001
43
0.0000000001
44
0.0000000001
40
0
40
0
40
0
40
0
40
1
40
1
40
1
40
1
41
1
41
1
41
1
41
1
10
248.59678668302882
20
-120.06489709311465
30
0
10
248.2395210931206
20
-119.44609493959774
30
0
10
247.57926705527626
20
-119.06489709311487
30
0
10
246.86473587546004
20
-119.06489709311487
30
0
0
LINE
5
267
100
AcDbEntity
8
0
100
AcDbLine
10
344.9553932188133
20
-119.06489709311499
30
0
11
340.79260903659383
21
-119.06489709311508
31
0
0
LINE
5
268
100
AcDbEntity
8
0
100
AcDbLine
10
340.7981486628409
20
0.0048409208047962534
30
0
11
344.95539321881347
21
0.0048409208045294139
31
0
0
LINE
5
269
100
AcDbEntity
8
0
100
AcDbLine
10
345.30894660940669
20
-0.1416056886022326
30
0
11
347.51605339059324
21
-2.3487124697888011
31
0
0
ARC
5
270
100
AcDbEntity
8
0
100
AcDbCircle
10
253.83144226915044
20
-122.56002808615507
30
0
40
1.9999999999999574
210
0
220
0
230
1
100
AcDbArc
50
0
51
180
0
LINE
5
271
100
AcDbEntity
8
0
100
AcDbLine
10
176.60676024502135
20
-123.31499987291828
30
0
11
175.83144226915039
21
-123.31499987291835
31
0
0
ARC
5
272
100
AcDbEntity
8
0
100
AcDbCircle
10
0.50000000000000255
20
-1.9769307136662562
30
0
40
0.50000000000000266
210
0
220
0
230
1
100
AcDbArc
50
135.00000000000011
51
180
0
LINE
5
273
100
AcDbEntity
8
0
100
AcDbLine
10
86.864735875460312
20
-119.06489709311479
30
0
11
20.792609036593923
21
-119.06489709311495
31
0
0
SPLINE
5
274
100
AcDbEntity
8
0
100
AcDbSpline
70
4
71
3
72
8
73
4
74
0
42
0.000000001
43
0.0000000001
44
0.0000000001
40
0
40
0
40
0
40
0
40
1
40
1
40
1
40
1
41
1
41
1
41
1
41
1
10
90.184559349235784
20
-122.81500002185544
30
0
10
90.363192144189867
20
-123.12440109861384
30
0
10
90.693319163111966
20
-123.31500002185528
30
0
10
91.050584753020033
20
-123.31500002185528
30
0
0
SPLINE
5
275
100
AcDbEntity
8
0
100
AcDbSpline
70
4
71
3
72
8
73
4
74
0
42
0.000000001
43
0.0000000001
44
0.0000000001
40
0
40
0
40
0
40
0
40
1
40
1
40
1
40
1
41
1
41
1
41
1
41
1
10
88.59678668302908
20
-120.0648970931146
30
0
10
88.239521093120857
20
-119.44609493959774
30
0
10
87.579267055276546
20
-119.06489709311479
30
0
10
86.864735875460312
20
-119.06489709311479
30
0
0
LWPOLYLINE
5
276
100
AcDbEntity
8
0
100
AcDbPolyline
90
8
70
1
43
0.0
10
4.5250000000000004
20
-23.8125
42
-0.4142135623730947
10
2.5249999999999968
20
-21.812500000000004
10
2.5249999999999995
20
-21.050000000000004
42
-0.4142135623730947
10
4.5250000000000004
20
-19.050000000000008
10
14.524999999999997
20
-19.050000000000004
42
-0.41421356237309276
10
16.524999999999999
20
-21.049999999999997
10
16.525000000000002
20
-21.8125
42
-0.4142135623730947
10
14.525000000000004
20
-23.812500000000011
0
ARC
5
277
100
AcDbEntity
8
0
100
AcDbCircle
10
344.9553932188133
20
-0.49515907919559682
30
0
40
0.50000000000012623
210
0
220
-0
230
1
100
AcDbArc
50
44.999999999997883
51
89.99999999998046
0
LINE
5
278
100
AcDbEntity
8
0
100
AcDbLine
10
335.83144226915044
20
-123.31499987291836
30
0
11
335.83144226915044
21
-122.56002808615507
31
0
0
ARC
5
279
100
AcDbEntity
8
0
100
AcDbCircle
10
93.83144226915077
20
-122.56002808615507
30
0
40
2.0000000000000284
210
0
220
0
230
1
100
AcDbArc
50
0
51
180
0
LWPOLYLINE
5
280
100
AcDbEntity
8
0
100
AcDbPolyline
90
8
70
1
43
0.0
10
295.03750000000002
20
-19.049999999999994
10
343.13749999999982
20
-19.050000000000008
42
-0.41421356237310153
10
345.13749999999993
20
-21.050000000000001
10
345.13749999999993
20
-21.812500000000018
42
-0.41421356237307422
10
343.13750000000022
20
-23.812500000000053
10
295.03750000000002
20
-23.812500000000011
42
-0.41421356237312429
10
293.03750000000002
20
-21.812500000000018
10
293.03750000000002
20
-21.050000000000001
42
-0.41421356237309764
0
LWPOLYLINE
5
281
100
AcDbEntity
8
0
100
AcDbPolyline
90
8
70
1
43
0.0
10
290.5125000000001
20
-4.5250000000000004
10
290.5125000000001
20
-14.524999999999997
42
-0.41421356237309537
10
288.5125000000001
20
-16.525000000000002
10
287.75000000000006
20
-16.525000000000006
42
-0.41421356237312074
10
285.75
20
-14.524999999999997
10
285.75000000000006
20
-4.5250000000000012
42
-0.41421356237309492
10
287.75000000000006
20
-2.5249999999999999
10
288.5125000000001
20
-2.5250000000000079
42
-0.41421356237307244
0
LINE
5
282
100
AcDbEntity
8
0
100
AcDbLine
10
95.831442269150784
20
-123.31499987291835
30
0
11
95.831442269150799
21
-122.56002808615507
31
0
0
LINE
5
283
100
AcDbEntity
8
0
100
AcDbLine
10
91.831442269150742
20
-122.56002808615507
30
0
11
91.831442269150727
21
-123.31500002185535
31
0
0
LWPOLYLINE
5
284
100
AcDbEntity
8
0
100
AcDbPolyline
90
16
70
1
43
0.0
10
106.06849096675852
20
-106.68035714285715
42
-0.24539268395660652
10
104.42718735346196
20
-107.53750000000004
10
96.183443330828055
20
-107.53749999999999
42
0.41421356237310375
10
94.383443330828086
20
-109.33750000000003
10
94.383443330828086
20
-109.73749999999998
42
0.41421356237307771
10
96.183443330828055
20
-111.53750000000001
10
104.42718735346196
20
-111.53750000000001
42
-0.24539268395660782
10
106.06849096675857
20
-112.39464285714288
42
0.52223296786709628
10
114.27500903324152
20
-112.39464285714288
42
-0.24539268395662567
10
115.91631264653806
20
-111.53750000000001
10
119.64375000000004
20
-111.53750000000001
42
0.41421356237311241
10
121.44375000000005
20
-109.73749999999998
10
121.44375000000004
20
-109.33750000000003
42
0.41421356237310375
10
119.64375000000004
20
-107.53749999999998
10
115.91631264653806
20
-107.53750000000004
42
-0.24539268395659705
10
114.27500903324145
20
-106.68035714285716
42
0.52223296786709472
0
LWPOLYLINE
5
285
100
AcDbEntity
8
0
100
AcDbPolyline
90
8
70
1
43
0.0
10
287.75000000000006
20
-59.387499999999989
42
-0.41421356237313273
10
285.75
20
-57.387500000000003
10
285.75000000000006
20
-32.337499999999999
42
-0.41421356237309825
10
287.75000000000006
20
-30.337499999999984
10
288.5125000000001
20
-30.337500000000052
42
-0.41421356237309243
10
290.51249999999999
20
-32.337499999999999
10
290.5125000000001
20
-57.387500000000003
42
-0.41421356237309243
10
288.51250000000016
20
-59.387500000000017
0
LWPOLYLINE
5
286
100
AcDbEntity
8
0
100
AcDbPolyline
90
8
70
1
43
0.0
10
116.29999999999998
20
-21.287500000000009
42
-0.41421356237309598
10
114.3
20
-19.287500000000001
10
114.3
20
-7.0499999999999989
42
-0.41421356237310303
10
116.29999999999998
20
-5.050000000000022
10
121.82500000000005
20
-5.0499999999999936
42
-0.41421356237309598
10
123.825
20
-7.0500000000000007
10
123.825
20
-19.287500000000005
42
-0.41421356237309764
10
121.82500000000003
20
-21.287500000000005
0
LWPOLYLINE
5
287
100
AcDbEntity
8
0
100
AcDbPolyline
90
8
70
1
43
0.0
10
200.02500000000003
20
-7.0499999999999972
42
-0.41421356237309587
10
202.02500000000003
20
-5.0499999999999989
10
207.55000000000001
20
-5.0500000000000025
42
-0.41421356237312462
10
209.55000000000001
20
-7.0500000000000007
10
209.55000000000001
20
-19.287500000000005
42
-0.41421356237308915
10
207.55000000000001
20
-21.287500000000016
10
202.02500000000003
20
-21.287500000000001
42
-0.41421356237307455
10
200.02500000000003
20
-19.287500000000001
0
LWPOLYLINE
5
288
100
AcDbEntity
8
0
100
AcDbPolyline
90
16
70
1
43
0.0
10
167.7751340332415
20
-113.09662962777288
42
-0.52223296786709639
10
159.5686159667585
20
-113.09662962777293
42
0.24539268395661024
10
157.92731235346196
20
-112.23948677063008
10
154.20000000000005
20
-112.23948677063008
42
-0.41421356237310658
10
152.40000000000003
20
-110.43948677063007
10
152.40000000000003
20
-110.03948677063006
42
-0.41421356237308637
10
154.19999999999999
20
-108.23948677063008
10
157.9273123534619
20
-108.23948677063008
42
0.24539268395658789
10
159.5686159667585
20
-107.3823439134872
42
-0.52223296786709772
10
167.77513403324153
20
-107.3823439134872
42
0.24539268395663424
10
169.4164376465381
20
-108.23948677063008
10
173.14374999999995
20
-108.23948677063008
42
-0.41421356237307477
10
174.94374999999997
20
-110.03948677063006
10
174.94374999999997
20
-110.43948677063007
42
-0.41421356237309798
10
173.1437499999999
20
-112.23948677063008
10
169.4164376465381
20
-112.23948677063008
42
0.24539268395661376
0
CIRCLE
5
289
100
AcDbEntity
8
0
100
AcDbCircle
10
288.13125000000008
20
-21.431250000000009
30
0
40
1.500000000000008
210
0
220
0
230
1
0
LWPOLYLINE
5
290
100
AcDbEntity
8
0
100
AcDbPolyline
90
8
70
1
43
0.0
10
287.75000000000006
20
-63.387500000000017
10
288.51249999999999
20
-63.387499999999974
42
-0.41421356237309243
10
290.5125000000001
20
-65.387500000000045
10
290.51249999999993
20
-91.487499999999997
42
-0.41421356237307944
10
288.51249999999999
20
-93.487499999999983
10
287.75000000000006
20
-93.487499999999983
42
-0.41421356237313667
10
285.75000000000006
20
-91.487499999999997
10
285.75000000000006
20
-65.387500000000017
42
-0.41421356237309631
0
LWPOLYLINE
5
291
100
AcDbEntity
8
0
100
AcDbPolyline
90
32
70
1
43
0.0
10
19.050000000000004
20
-41.862500000000011
10
19.050000000000008
20
-24.8125
42
-0.4142135623730937
10
20.050000000000004
20
-23.812500000000007
10
246.65000000000003
20
-23.8125
42
-0.41421356237310414
10
247.65000000000001
20
-24.812500000000011
10
247.65000000000001
20
-42.862500000000018
42
0.41421356237312101
10
248.65000000000006
20
-43.862499999999997
10
260.93749999999994
20
-43.862499999999997
42
-0.41421356237304302
10
261.9375
20
-44.862499999999997
10
261.9375
20
-59.912500000000009
42
-0.41421356237308204
10
260.9375
20
-60.912499999999987
10
243.88750000000005
20
-60.912499999999987
42
0.41421356237310025
10
242.88750000000007
20
-61.91249999999998
10
242.88750000000007
20
-79.96250000000002
42
-0.41421356237305079
10
241.88749999999999
20
-80.962500000000034
10
241.50625000000002
20
-80.962500000000006
42
0.4142135623730534
10
240.50625000000002
20
-81.962500000000006
10
240.50624999999999
20
-99.012500000000017
42
-0.41421356237310542
10
239.50625000000002
20
-100.01250000000002
10
43.862499999999997
20
-100.0125
42
-0.41421356237308721
10
42.862499999999997
20
-99.012500000000017
10
42.862500000000018
20
-81.962500000000048
42
0.41421356237308204
10
41.862500000000011
20
-80.962500000000034
10
27.193750000000001
20
-80.962500000000034
42
-0.41421356237309631
10
26.193750000000001
20
-79.962500000000034
10
26.193750000000001
20
-62.912500000000016
42
0.41421356237309631
10
25.193750000000001
20
-61.912500000000023
10
24.8125
20
-61.912500000000023
42
-0.41421356237309503
10
23.8125
20
-60.912500000000023
10
23.8125
20
-43.862499999999997
42
0.41421356237309503
10
22.8125
20
-42.862499999999997
10
20.050000000000004
20
-42.862499999999997
42
-0.41421356237309115
0
LWPOLYLINE
5
292
100
AcDbEntity
8
0
100
AcDbPolyline
90
8
70
1
43
0.0
10
250.17500000000001
20
-21.050000000000004
42
-0.41421356237309631
10
252.17500000000001
20
-19.050000000000004
10
281.22500000000002
20
-19.050000000000008
42
-0.41421356237310997
10
283.22500000000002
20
-21.050000000000004
10
283.22500000000002
20
-21.8125
42
-0.41421356237310869
10
281.22500000000002
20
-23.8125
10
252.17500000000001
20
-23.812500000000011
42
-0.41421356237312623
10
250.17499999999998
20
-21.8125
0
LWPOLYLINE
5
293
100
AcDbEntity
8
0
100
AcDbPolyline
90
8
70
1
43
0.0
10
334.13750000000618
20
-66.9375
10
304.03750000000008
20
-66.9375
42
0.4142135623730937
10
300.03750000000002
20
-70.937500000000014
10
300.03750000000002
20
-71.937500000000057
42
0.41421356237309503
10
304.03750000000002
20
-75.937500000000028
10
334.13750000000618
20
-75.937500000000028
42
0.41421356237309764
10
338.13750000000618
20
-71.937500000000014
10
338.13750000000618
20
-70.937500000000014
42
0.41421356237309698
0
LWPOLYLINE
5
294
100
AcDbEntity
8
0
100
AcDbPolyline
90
8
70
1
43
0.0
10
29.625000000000004
20
-17.524999999999999
10
27.525000000000013
20
-17.524999999999999
42
-0.41421356237309598
10
25.525000000000002
20
-15.525000000000002
10
25.525000000000002
20
-3.5249999999999999
42
-0.41421356237309365
10
27.524999999999999
20
-1.525000000000003
10
29.625000000000004
20
-1.5250000000000012
42
-0.41421356237309398
10
31.625
20
-3.5250000000000004
10
31.625
20
-15.525000000000002
42
-0.41421356237309631
0
ENDSEC
0
SECTION
2
OBJECTS
0
DICTIONARY
5
C
100
AcDbDictionary
3
ACAD_GROUP
350
D
3
ACAD_MLINESTYLE
350
17
0
DICTIONARY
5
D
100
AcDbDictionary
0
DICTIONARY
5
1A
330
C
100
AcDbDictionary
0
DICTIONARY
5
17
100
AcDbDictionary
0
ENDSEC
0
EOF
