0
SECTION
2
HEADER
9
$INSUNITS
70
4
9
$ACADVER
1
AC1014
9
$HANDSEED
5
FFFF
0
ENDSEC
0
SECTION
2
TABLES
0
TABLE
2
VPORT
5
8
100
AcDbSymbolTable
0
ENDTAB
0
TABLE
2
LTYPE
5
5
100
AcDbSymbolTable
0
LTYPE
5
14
100
AcDbSymbolTableRecord
100
AcDbLinetypeTableRecord
2
BYBLOCK
70
0
0
LTYPE
5
15
100
AcDbSymbolTableRecord
100
AcDbLinetypeTableRecord
2
BYLAYER
70
0
0
LTYPE
5
16
100
AcDbSymbolTableRecord
100
AcDbLinetypeTableRecord
2
DASHED
70
0
3
Dashed __ __ __ __ __ __ __ __ __ __ __ __ __ _
72
65
73
2
40
0.75
49
0.5
74
0
49
-0.25
74
0
0
ENDTAB
0
TABLE
2
LAYER
5
2
100
AcDbSymbolTable
70
3
0
LAYER
5
50
100
AcDbSymbolTableRecord
100
AcDbLayerTableRecord
2
1
70
0
62
7
6
DASHED
0
LAYER
5
51
100
AcDbSymbolTableRecord
100
AcDbLayerTableRecord
2
0
70
0
62
7
6
CONTINUOUS
0
ENDTAB
0
TABLE
2
STYLE
5
3
100
AcDbSymbolTable
70
1
0
STYLE
5
11
100
AcDbSymbolTableRecord
100
AcDbTextStyleTableRecord
2
STANDARD
70
0
0
ENDTAB
0
TABLE
2
VIEW
5
6
100
AcDbSymbolTable
70
0
0
ENDTAB
0
TABLE
2
UCS
5
7
100
AcDbSymbolTable
70
0
0
ENDTAB
0
TABLE
2
APPID
5
9
100
AcDbSymbolTable
70
2
0
APPID
5
12
100
AcDbSymbolTableRecord
100
AcDbRegAppTableRecord
2
ACAD
70
0
0
ENDTAB
0
TABLE
2
DIMSTYLE
5
A
100
AcDbSymbolTable
70
1
0
ENDTAB
0
TABLE
2
BLOCK_RECORD
5
1
100
AcDbSymbolTable
70
1
0
BLOCK_RECORD
5
1F
100
AcDbSymbolTableRecord
100
AcDbBlockTableRecord
2
*MODEL_SPACE
0
BLOCK_RECORD
5
1B
100
AcDbSymbolTableRecord
100
AcDbBlockTableRecord
2
*PAPER_SPACE
0
ENDTAB
0
ENDSEC
0
SECTION
2
BLOCKS
0
BLOCK
5
20
100
AcDbEntity
100
AcDbBlockBegin
2
*MODEL_SPACE
0
ENDBLK
5
21
100
AcDbEntity
100
AcDbBlockEnd
0
BLOCK
5
1C
100
AcDbEntity
100
AcDbBlockBegin
2
*PAPER_SPACE
0
ENDBLK
5
1D
100
AcDbEntity
100
AcDbBlockEnd
0
ENDSEC
0
SECTION
2
ENTITIES
0
LWPOLYLINE
5
100
100
AcDbEntity
8
0
100
AcDbPolyline
90
8
70
1
43
0.0
10
35.862500000000011
20
-77.9375
42
0.4142135623730846
10
36.362499999999997
20
-78.4375
10
49.362500000000004
20
-78.4375
42
0.41421356237309503
10
49.862499999999997
20
-77.9375
10
49.862499999999997
20
-64.9375
42
0.41421356237309503
10
49.362500000000004
20
-64.4375
10
36.362499999999997
20
-64.4375
42
0.41421356237309503
10
35.862500000000004
20
-64.9375
0
LWPOLYLINE
5
101
100
AcDbEntity
8
0
100
AcDbPolyline
90
8
70
1
43
0.0
10
126.06250000000001
20
-77.9375
10
126.06250000000001
20
-64.9375
42
0.41421356237309503
10
125.5625
20
-64.4375
10
112.56250000000001
20
-64.4375
42
0.41421356237310542
10
112.0625
20
-64.9375
10
112.0625
20
-77.9375
42
0.41421356237308982
10
112.56250000000001
20
-78.4375
10
125.5625
20
-78.4375
42
0.414213562373069
0
LWPOLYLINE
5
102
100
AcDbEntity
8
0
100
AcDbPolyline
90
8
70
1
43
0.0
10
93.512500000000003
20
-78.4375
10
106.51250000000003
20
-78.4375
42
0.41421356237310025
10
107.01250000000002
20
-77.9375
10
107.01250000000002
20
-64.9375
42
0.41421356237310542
10
106.51250000000003
20
-64.4375
10
93.512500000000003
20
-64.4375
42
0.4142135623730534
10
93.012500000000017
20
-64.9375
10
93.012500000000017
20
-77.9375
42
0.41421356237311585
0
LWPOLYLINE
5
103
100
AcDbEntity
8
0
100
AcDbPolyline
90
12
70
1
43
0.0
10
10.168749999999999
20
-78.4375
10
18.40625
20
-78.4375
10
23.168749999999999
20
-78.4375
42
0.41421356237310542
10
23.668749999999999
20
-77.9375
10
23.668749999999999
20
-64.9375
42
0.41421356237309764
10
23.168749999999999
20
-64.4375
10
18.40625
20
-64.4375
10
10.168749999999999
20
-64.4375
10
5.40625
20
-64.4375
42
0.41421356237309698
10
4.90625
20
-64.9375
10
4.90625
20
-77.9375
42
0.41421356237307549
10
5.40625
20
-78.4375
0
LWPOLYLINE
5
104
100
AcDbEntity
8
0
100
AcDbPolyline
90
8
70
1
43
0.0
10
68.412499999999994
20
-64.4375
10
55.412500000000016
20
-64.4375
42
0.41421356237308982
10
54.912500000000009
20
-64.9375
10
54.912500000000009
20
-77.9375
42
0.41421356237307944
10
55.412500000000016
20
-78.4375
10
68.412499999999994
20
-78.4375
42
0.41421356237309503
10
68.912499999999994
20
-77.9375
10
68.912499999999994
20
-64.9375
42
0.41421356237309503
0
LWPOLYLINE
5
105
100
AcDbEntity
8
0
100
AcDbPolyline
90
8
70
1
43
0.0
10
87.96250000000002
20
-77.9375
10
87.96250000000002
20
-64.9375
42
0.41421356237309503
10
87.46250000000002
20
-64.4375
10
74.462500000000006
20
-64.4375
42
0.41421356237310542
10
73.962500000000006
20
-64.9375
10
73.962500000000006
20
-77.9375
42
0.4142135623730846
10
74.462500000000006
20
-78.4375
10
87.46250000000002
20
-78.4375
42
0.414213562373069
0
LWPOLYLINE
5
106
100
AcDbEntity
8
0
100
AcDbPolyline
90
8
70
1
43
0.0
10
221.59999999999999
20
-58.887500000000017
42
0.41421356237312623
10
222.10000000000002
20
-59.387500000000003
10
235.10000000000002
20
-59.387500000000003
42
0.41421356237316787
10
235.60000000000002
20
-58.887500000000017
10
235.60000000000002
20
-45.887500000000003
42
0.4142135623730846
10
235.10000000000005
20
-45.387499999999974
10
222.10000000000002
20
-45.387500000000003
42
0.41421356237312101
10
221.59999999999999
20
-45.887500000000003
0
LWPOLYLINE
5
107
100
AcDbEntity
8
0
100
AcDbPolyline
90
22
70
1
43
0.0
10
245.91250000000002
20
-64.4375
42
0.4142135623730222
10
245.41250000000005
20
-64.9375
10
245.41250000000002
20
-77.9375
42
0.41421356237312101
10
245.91250000000002
20
-78.4375
10
280.34375
20
-78.4375
42
0.41421356237313667
10
280.84375
20
-77.9375
10
280.84375
20
-45.887500000000003
42
0.4142135623730846
10
280.34375000000006
20
-45.387499999999974
10
264.96249999999998
20
-45.387500000000003
42
0.41421356237313667
10
264.46249999999998
20
-45.887500000000003
10
264.46249999999998
20
-58.887500000000017
42
0.41421356237312101
10
264.96249999999998
20
-59.387499999999996
10
266.84375
20
-59.387500000000003
10
266.84375
20
-64.4375
10
258.91250000000002
20
-64.4375
10
257.81875000000002
20
-64.4375
10
255.88075000000003
20
-64.4375
10
255.88075000000003
20
-63.937500000000007
42
0.41421356237304818
10
255.38075000000006
20
-63.437499999999972
10
249.38075000000001
20
-63.437500000000007
42
0.41421356237314189
10
248.88075000000001
20
-63.937500000000007
10
248.88075000000001
20
-64.4375
0
LWPOLYLINE
5
108
100
AcDbEntity
8
0
100
AcDbPolyline
90
8
70
1
43
0.0
10
240.65000000000001
20
-45.887500000000003
10
240.65000000000001
20
-58.887500000000017
42
0.41421356237307422
10
241.15000000000006
20
-59.387500000000003
10
254.15000000000006
20
-59.387500000000003
42
0.41421356237307422
10
254.65000000000003
20
-58.887500000000017
10
254.65000000000003
20
-45.887500000000003
42
0.41421356237304818
10
254.15000000000006
20
-45.387500000000003
10
241.15000000000006
20
-45.387500000000003
42
0.41421356237311063
0
LWPOLYLINE
5
109
100
AcDbEntity
8
0
100
AcDbPolyline
90
8
70
1
43
0.0
10
150.66249999999999
20
-78.4375
10
163.66250000000005
20
-78.4375
42
0.41421356237313667
10
164.16250000000005
20
-77.9375
10
164.16250000000005
20
-64.9375
42
0.41421356237310025
10
163.66250000000005
20
-64.4375
10
150.66249999999999
20
-64.4375
42
0.41421356237310542
10
150.16249999999999
20
-64.9375
10
150.16249999999999
20
-77.9375
42
0.41421356237308982
0
LWPOLYLINE
5
110
100
AcDbEntity
8
0
100
AcDbPolyline
90
8
70
1
43
0.0
10
169.71250000000001
20
-78.4375
10
182.71250000000006
20
-78.4375
42
0.41421356237310542
10
183.21250000000003
20
-77.9375
10
183.21250000000003
20
-64.9375
42
0.41421356237309503
10
182.71250000000006
20
-64.4375
10
169.71250000000001
20
-64.4375
42
0.41421356237314189
10
169.21250000000001
20
-64.9375
10
169.21250000000001
20
-77.9375
42
0.41421356237310542
0
LWPOLYLINE
5
111
100
AcDbEntity
8
0
100
AcDbPolyline
90
8
70
1
43
0.0
10
131.61250000000001
20
-78.4375
10
144.61250000000001
20
-78.4375
42
0.414213562373069
10
145.11250000000001
20
-77.9375
10
145.11250000000001
20
-64.9375
42
0.41421356237309503
10
144.61250000000001
20
-64.4375
10
131.61250000000001
20
-64.4375
42
0.41421356237310542
10
131.11250000000001
20
-64.9375
10
131.11250000000001
20
-77.9375
42
0.41421356237308982
0
LWPOLYLINE
5
112
100
AcDbEntity
8
0
100
AcDbPolyline
90
8
70
1
43
0.0
10
221.3125
20
-77.9375
10
221.3125
20
-64.9375
42
0.41421356237310025
10
220.8125
20
-64.4375
10
207.8125
20
-64.4375
42
0.4142135623730846
10
207.31250000000003
20
-64.9375
10
207.31250000000003
20
-77.9375
42
0.41421356237304818
10
207.8125
20
-78.437500000000028
10
220.8125
20
-78.4375
42
0.41421356237313667
0
LWPOLYLINE
5
113
100
AcDbEntity
8
0
100
AcDbPolyline
90
8
70
1
43
0.0
10
188.76249999999999
20
-78.4375
10
201.76249999999999
20
-78.4375
42
0.41421356237313667
10
202.26249999999999
20
-77.9375
10
202.26249999999999
20
-64.9375
42
0.41421356237310025
10
201.76249999999999
20
-64.4375
10
188.76249999999999
20
-64.4375
42
0.4142135623730222
10
188.26249999999999
20
-64.9375
10
188.26249999999999
20
-77.9375
42
0.41421356237312101
0
LWPOLYLINE
5
114
100
AcDbEntity
8
0
100
AcDbPolyline
90
8
70
1
43
0.0
10
240.36250000000001
20
-64.9375
42
0.41421356237310025
10
239.86250000000001
20
-64.437499999999986
10
226.86250000000001
20
-64.4375
42
0.4142135623730846
10
226.36250000000007
20
-64.9375
10
226.36250000000004
20
-77.9375
42
0.41421356237304818
10
226.86250000000001
20
-78.4375
10
239.86250000000001
20
-78.4375
42
0.41421356237313667
10
240.36250000000001
20
-77.9375
0
LWPOLYLINE
5
115
100
AcDbEntity
8
0
100
AcDbPolyline
90
32
70
1
43
0.0
10
26.837499999999999
20
-97.487500000000011
10
27.931249999999999
20
-97.487500000000011
10
29.869250000000001
20
-97.487500000000011
10
29.869250000000001
20
-97.987499999999997
42
0.41421356237307161
10
30.369250000000001
20
-98.487500000000011
10
36.369250000000001
20
-98.487500000000011
42
0.41421356237307422
10
36.869250000000008
20
-97.987499999999997
10
36.869250000000008
20
-97.487500000000011
10
39.837499999999999
20
-97.487500000000011
42
0.41421356237309243
10
40.337500000000006
20
-96.987500000000011
10
40.337500000000013
20
-83.987499999999983
42
0.41421356237309243
10
39.837499999999999
20
-83.487499999999983
10
36.369250000000001
20
-83.487500000000026
10
30.369250000000001
20
-83.487500000000026
10
27.931249999999999
20
-83.487500000000026
10
26.837499999999999
20
-83.487500000000026
10
18.40625
20
-83.487500000000026
10
14.93125
20
-83.487500000000026
10
12.49325
20
-83.487500000000026
10
6.4932500000000015
20
-83.487500000000026
10
5.40625
20
-83.487499999999983
42
0.41421356237308854
10
4.9062499999999867
20
-83.987499999999983
10
4.90625
20
-96.987500000000011
42
0.41421356237309309
10
5.40625
20
-97.487500000000011
10
5.9932499999999997
20
-97.487500000000011
10
5.9932499999999997
20
-97.987499999999997
42
0.41421356237307227
10
6.4932500000000015
20
-98.487500000000011
10
12.49325
20
-98.487500000000011
42
0.41421356237307549
10
12.99325000000001
20
-97.987499999999997
10
12.99325
20
-97.487500000000011
10
14.93125
20
-97.487500000000011
10
18.40625
20
-97.487500000000011
0
LWPOLYLINE
5
116
100
AcDbEntity
8
0
100
AcDbPolyline
90
8
70
1
43
0.0
10
83.987499999999983
20
-83.487499999999983
42
0.41421356237309503
10
83.487500000000026
20
-83.987499999999983
10
83.487499999999983
20
-96.987500000000011
42
0.41421356237310542
10
83.987499999999983
20
-97.487500000000011
10
96.987500000000011
20
-97.487500000000011
42
0.41421356237309503
10
97.487500000000011
20
-96.987500000000011
10
97.487500000000011
20
-83.987499999999983
42
0.4142135623730534
10
96.987500000000011
20
-83.487500000000011
0
LWPOLYLINE
5
117
100
AcDbEntity
8
0
100
AcDbPolyline
90
8
70
1
43
0.0
10
45.387500000000003
20
-96.987500000000011
42
0.41421356237308982
10
45.887500000000003
20
-97.487500000000011
10
58.887500000000017
20
-97.487500000000011
42
0.41421356237310542
10
59.387500000000003
20
-96.987500000000011
10
59.387500000000003
20
-83.987499999999983
42
0.41421356237311585
10
58.887500000000017
20
-83.487499999999983
10
45.887500000000003
20
-83.487499999999983
42
0.4142135623730846
10
45.387500000000003
20
-83.987499999999983
0
LWPOLYLINE
5
118
100
AcDbEntity
8
0
100
AcDbPolyline
90
8
70
1
43
0.0
10
77.9375
20
-97.487500000000011
42
0.41421356237308982
10
78.4375
20
-96.987500000000011
10
78.4375
20
-83.987499999999983
42
0.41421356237310025
10
77.9375
20
-83.487499999999983
10
64.9375
20
-83.487499999999983
42
0.41421356237310542
10
64.4375
20
-83.987499999999983
10
64.4375
20
-96.987500000000011
42
0.41421356237310542
10
64.9375
20
-97.487500000000011
0
LWPOLYLINE
5
119
100
AcDbEntity
8
0
100
AcDbPolyline
90
8
70
1
43
0.0
10
116.53750000000001
20
-96.987500000000011
10
116.53750000000001
20
-83.987499999999983
42
0.41421356237309503
10
116.03749999999999
20
-83.487500000000011
10
103.03750000000001
20
-83.487499999999983
42
0.41421356237310542
10
102.53749999999999
20
-83.987499999999983
10
102.53749999999999
20
-96.987500000000011
42
0.41421356237309503
10
103.03750000000001
20
-97.487500000000011
10
116.03749999999999
20
-97.487500000000011
42
0.41421356237307422
0
LWPOLYLINE
5
120
100
AcDbEntity
8
0
100
AcDbPolyline
90
8
70
1
43
0.0
10
173.68750000000003
20
-83.987499999999983
42
0.41421356237311585
10
173.1875
20
-83.487500000000011
10
160.1875
20
-83.487499999999983
42
0.41421356237311585
10
159.68749999999997
20
-83.987499999999983
10
159.6875
20
-96.987500000000011
42
0.41421356237309503
10
160.1875
20
-97.487500000000011
10
173.1875
20
-97.487500000000011
42
0.41421356237310542
10
173.68750000000003
20
-96.987500000000011
0
LWPOLYLINE
5
121
100
AcDbEntity
8
0
100
AcDbPolyline
90
8
70
1
43
0.0
10
135.08750000000001
20
-83.487499999999983
10
122.08750000000002
20
-83.487499999999983
42
0.41421356237310542
10
121.58750000000001
20
-83.987499999999983
10
121.58750000000001
20
-96.987500000000011
42
0.41421356237309503
10
122.08750000000002
20
-97.487500000000011
10
135.08750000000001
20
-97.487500000000011
42
0.41421356237307422
10
135.58750000000001
20
-96.987500000000011
10
135.58750000000001
20
-83.987499999999983
42
0.4142135623730846
0
LWPOLYLINE
5
122
100
AcDbEntity
8
0
100
AcDbPolyline
90
8
70
1
43
0.0
10
230.83750000000006
20
-83.987499999999983
42
0.41421356237309503
10
230.33750000000001
20
-83.487500000000011
10
217.33750000000001
20
-83.487499999999983
42
0.41421356237310542
10
216.83750000000003
20
-83.987499999999983
10
216.83750000000003
20
-96.987500000000011
42
0.4142135623730846
10
217.33750000000001
20
-97.487500000000011
10
230.33750000000001
20
-97.487500000000011
42
0.4142135623730846
10
230.83750000000003
20
-96.987500000000011
0
LWPOLYLINE
5
123
100
AcDbEntity
8
0
100
AcDbPolyline
90
8
70
1
43
0.0
10
198.28749999999999
20
-97.487500000000011
10
211.28749999999999
20
-97.487500000000011
42
0.41421356237314705
10
211.78750000000002
20
-96.987500000000011
10
211.78750000000002
20
-83.987499999999983
42
0.41421356237312623
10
211.28749999999999
20
-83.487499999999983
10
198.28749999999999
20
-83.487499999999983
42
0.41421356237310542
10
197.78750000000002
20
-83.987499999999983
10
197.78750000000002
20
-96.987500000000011
42
0.4142135623730846
0
LWPOLYLINE
5
124
100
AcDbEntity
8
0
100
AcDbPolyline
90
8
70
1
43
0.0
10
140.63749999999999
20
-83.987499999999983
10
140.63749999999999
20
-96.987500000000011
42
0.41421356237309503
10
141.13749999999999
20
-97.487500000000011
10
154.13749999999999
20
-97.487500000000011
42
0.41421356237312623
10
154.63749999999999
20
-96.987500000000011
10
154.63750000000005
20
-83.987499999999983
42
0.41421356237309503
10
154.13749999999999
20
-83.487500000000026
10
141.13749999999999
20
-83.487499999999983
42
0.41421356237310542
0
LWPOLYLINE
5
125
100
AcDbEntity
8
0
100
AcDbPolyline
90
8
70
1
43
0.0
10
192.23750000000001
20
-83.487500000000026
10
179.23750000000001
20
-83.487499999999983
42
0.41421356237312623
10
178.73750000000001
20
-83.987499999999983
10
178.73750000000001
20
-96.987500000000011
42
0.41421356237313667
10
179.23750000000001
20
-97.487500000000011
10
192.23750000000001
20
-97.487500000000011
42
0.41421356237307422
10
192.73750000000007
20
-96.987500000000011
10
192.73750000000007
20
-83.987499999999983
42
0.41421356237309503
0
LWPOLYLINE
5
126
100
AcDbEntity
8
0
100
AcDbPolyline
90
20
70
1
43
0.0
10
267.99425000000002
20
-97.987499999999997
42
0.4142135623730846
10
268.49425000000002
20
-98.487499999999983
10
274.49425000000008
20
-98.487500000000011
42
0.41421356237312623
10
274.99425000000002
20
-97.987499999999997
10
274.99425000000002
20
-97.487500000000011
10
282.72500000000002
20
-97.487500000000011
42
0.41421356237314705
10
283.22500000000002
20
-96.987500000000011
10
283.22500000000002
20
-83.987499999999983
42
0.41421356237312623
10
282.72500000000002
20
-83.487499999999983
10
243.53125000000006
20
-83.487499999999983
42
0.41421356237306384
10
243.03125
20
-83.987499999999983
10
243.03125
20
-96.987500000000011
42
0.4142135623730846
10
243.53125000000006
20
-97.487500000000026
10
244.11824999999999
20
-97.487500000000011
10
244.11824999999999
20
-97.987499999999997
42
0.41421356237309503
10
244.61825000000002
20
-98.487500000000011
10
250.61824999999999
20
-98.487500000000011
42
0.4142135623730846
10
251.11825000000005
20
-97.987499999999997
10
251.11824999999999
20
-97.487500000000011
10
267.99425000000002
20
-97.487500000000011
0
LWPOLYLINE
5
127
100
AcDbEntity
8
0
100
AcDbPolyline
90
8
70
1
43
0.0
10
312.08749999999998
20
-96.987500000000011
42
0.41421356237310542
10
312.58749999999998
20
-97.487500000000026
10
325.58749999999998
20
-97.487500000000011
42
0.4142135623732095
10
326.08749999999992
20
-96.987500000000011
10
326.08749999999992
20
-83.987499999999983
42
0.41421356237319906
10
325.58750000000003
20
-83.48750000000004
10
312.58749999999998
20
-83.487499999999983
42
0.41421356237304302
10
312.08749999999998
20
-83.987499999999983
0
LWPOLYLINE
5
128
100
AcDbEntity
8
0
100
AcDbPolyline
90
12
70
1
43
0.0
10
44.600000000000001
20
-102.53749999999999
10
42.21875
20
-102.53749999999999
10
31.600000000000001
20
-102.53749999999999
10
29.21875
20
-102.53749999999999
42
0.41421356237310542
10
28.718750000000011
20
-103.03750000000001
10
28.71875
20
-116.03749999999999
42
0.41421356237307161
10
29.21875
20
-116.53750000000001
10
31.600000000000001
20
-116.53750000000001
10
42.21875
20
-116.53750000000001
10
44.600000000000001
20
-116.53750000000001
42
0.41421356237307422
10
45.100000000000009
20
-116.03749999999999
10
45.100000000000009
20
-103.03750000000001
42
0.41421356237309503
0
LWPOLYLINE
5
129
100
AcDbEntity
8
0
100
AcDbPolyline
90
12
70
1
43
0.0
10
18.40625
20
-102.53749999999999
10
7.7875000000000005
20
-102.53749999999999
10
5.40625
20
-102.53749999999999
42
0.41421356237310542
10
4.9062500000000107
20
-103.03750000000001
10
4.90625
20
-116.03749999999999
42
0.41421356237307227
10
5.40625
20
-116.53750000000001
10
7.7875000000000005
20
-116.53750000000001
10
18.40625
20
-116.53750000000001
10
20.787500000000001
20
-116.53750000000001
42
0.41421356237307422
10
21.287500000000001
20
-116.03749999999999
10
21.287500000000001
20
-103.03750000000001
42
0.41421356237309243
10
20.787500000000001
20
-102.53749999999999
0
LWPOLYLINE
5
130
100
AcDbEntity
8
0
100
AcDbPolyline
90
12
70
1
43
0.0
10
52.531250000000007
20
-103.03750000000001
10
52.531250000000007
20
-116.03749999999999
42
0.41421356237307944
10
53.031250000000014
20
-116.53749999999999
10
55.412500000000016
20
-116.53750000000001
10
66.03125
20
-116.53750000000001
10
68.412499999999994
20
-116.53750000000001
42
0.41421356237305862
10
68.912499999999994
20
-116.03750000000002
10
68.912499999999994
20
-103.03750000000001
42
0.41421356237308982
10
68.412499999999994
20
-102.53749999999999
10
66.03125
20
-102.53749999999999
10
55.412500000000016
20
-102.53749999999999
10
53.031250000000014
20
-102.53749999999999
42
0.41421356237310025
0
LWPOLYLINE
5
131
100
AcDbEntity
8
0
100
AcDbPolyline
90
8
70
1
43
0.0
10
184.46875000000003
20
-102.03749999999999
42
0.4142135623730534
10
183.96875
20
-101.53749999999999
10
177.96875
20
-101.53750000000001
42
0.4142135623730534
10
177.46875000000003
20
-102.03749999999999
10
177.46875
20
-116.03749999999999
42
0.4142135623730846
10
177.96875
20
-116.53749999999999
10
183.96875
20
-116.53750000000001
42
0.4142135623730846
10
184.46875000000003
20
-116.03749999999999
0
LWPOLYLINE
5
132
100
AcDbEntity
8
0
100
AcDbPolyline
90
12
70
1
43
0.0
10
123.96875000000001
20
-103.03750000000001
10
123.96875000000001
20
-116.03749999999999
42
0.4142135623730846
10
124.46875
20
-116.53750000000001
10
136.375
20
-116.53750000000001
10
137.46875
20
-116.53750000000001
10
149.375
20
-116.53750000000001
42
0.41421356237307422
10
149.875
20
-116.03749999999999
10
149.875
20
-103.03750000000001
42
0.41421356237309503
10
149.375
20
-102.53749999999999
10
137.46875
20
-102.53749999999999
10
136.375
20
-102.53749999999999
10
124.46875
20
-102.53749999999999
42
0.41421356237310542
0
LWPOLYLINE
5
133
100
AcDbEntity
8
0
100
AcDbPolyline
90
12
70
1
43
0.0
10
77.96875
20
-101.53750000000001
42
0.41421356237314189
10
77.46875
20
-102.03749999999999
10
77.46875
20
-116.03749999999999
42
0.41421356237307422
10
77.96875
20
-116.53749999999999
10
82.724999999999994
20
-116.53750000000001
10
83.96875
20
-116.53750000000001
10
88.725000000000023
20
-116.53750000000001
42
0.41421356237310542
10
89.22499999999998
20
-116.03749999999999
10
89.225000000000023
20
-102.03749999999999
42
0.41421356237312623
10
88.725000000000023
20
-101.53750000000001
10
83.96875
20
-101.53750000000001
10
82.724999999999994
20
-101.53750000000001
0
LWPOLYLINE
5
134
100
AcDbEntity
8
0
100
AcDbPolyline
90
12
70
1
43
0.0
10
256.53125
20
-116.53750000000001
42
0.41421356237303258
10
257.03125000000006
20
-116.03749999999999
10
257.03125000000006
20
-103.03750000000001
42
0.4142135623730846
10
256.53125
20
-102.53749999999999
10
254.15000000000006
20
-102.53749999999999
10
243.53125000000006
20
-102.53749999999999
10
241.15000000000006
20
-102.53749999999999
42
0.4142135623730846
10
240.65000000000001
20
-103.03750000000001
10
240.65000000000001
20
-116.03749999999999
42
0.41421356237303258
10
241.15000000000006
20
-116.53750000000001
10
243.53125000000006
20
-116.53750000000001
10
254.15000000000006
20
-116.53750000000001
0
LWPOLYLINE
5
135
100
AcDbEntity
8
0
100
AcDbPolyline
90
12
70
1
43
0.0
10
216.83750000000003
20
-116.03749999999999
42
0.41421356237307422
10
217.33750000000001
20
-116.53750000000001
10
219.71875
20
-116.53750000000001
10
230.33750000000001
20
-116.53750000000001
10
232.71875
20
-116.53750000000001
42
0.41421356237303258
10
233.21875000000006
20
-116.03749999999999
10
233.21875000000006
20
-103.03750000000001
42
0.4142135623730846
10
232.71875
20
-102.53749999999999
10
230.33750000000001
20
-102.53749999999999
10
219.71875
20
-102.53749999999999
10
217.33750000000001
20
-102.53749999999999
42
0.4142135623730846
10
216.83750000000003
20
-103.03750000000001
0
LWPOLYLINE
5
136
100
AcDbEntity
8
0
100
AcDbPolyline
90
16
70
1
43
0.0
10
209.40625
20
-103.03750000000001
42
0.41421356237310542
10
208.90625
20
-102.53749999999998
10
203.52500000000006
20
-102.53749999999999
10
203.52500000000006
20
-102.03749999999999
42
0.41421356237304302
10
203.02500000000006
20
-101.53750000000001
10
197.02500000000001
20
-101.53750000000001
42
0.41421356237311585
10
196.52500000000003
20
-102.03749999999999
10
196.52500000000003
20
-102.53749999999999
10
195.90625000000003
20
-102.53749999999999
42
0.4142135623730846
10
195.40625000000006
20
-103.03750000000001
10
195.40625000000006
20
-116.03749999999999
42
0.41421356237307422
10
195.90625000000003
20
-116.53750000000001
10
197.02500000000001
20
-116.53750000000001
10
203.02500000000006
20
-116.53750000000001
10
208.90625
20
-116.53750000000001
42
0.4142135623730846
10
209.40625
20
-116.03749999999999
0
LWPOLYLINE
5
137
100
AcDbEntity
8
0
100
AcDbPolyline
90
12
70
1
43
0.0
10
267.34375
20
-102.53749999999999
10
264.96249999999998
20
-102.53749999999999
42
0.41421356237314705
10
264.46249999999998
20
-103.03750000000001
10
264.46249999999998
20
-116.03749999999999
42
0.41421356237309503
10
264.96249999999998
20
-116.53750000000001
10
267.34375
20
-116.53750000000001
10
277.96249999999998
20
-116.53750000000001
10
280.34375
20
-116.53750000000001
42
0.41421356237314705
10
280.84375
20
-116.03749999999999
10
280.84375
20
-103.03750000000001
42
0.41421356237313667
10
280.34375
20
-102.53749999999999
10
277.96249999999998
20
-102.53749999999999
0
LWPOLYLINE
5
138
100
AcDbEntity
8
0
100
AcDbPolyline
90
8
70
1
43
0.0
10
331.1375000000001
20
-116.03749999999999
42
0.4142135623730534
10
331.63749999999999
20
-116.53749999999997
10
344.63749999999999
20
-116.53750000000001
42
0.41421356237318868
10
345.1375000000001
20
-116.03749999999999
10
345.13749999999993
20
-103.03750000000001
42
0.4142135623732095
10
344.63749999999999
20
-102.53749999999998
10
331.63749999999999
20
-102.53749999999999
42
0.41421356237331353
10
331.1375000000001
20
-103.03750000000001
0
LWPOLYLINE
5
139
100
AcDbEntity
8
0
100
AcDbPolyline
90
8
70
1
43
0.0
10
325.58749999999998
20
-116.53750000000001
42
0.41421356237306384
10
326.08749999999998
20
-116.03749999999999
10
326.08749999999992
20
-103.03750000000001
42
0.4142135623732095
10
325.58749999999998
20
-102.53749999999999
10
312.58749999999998
20
-102.53749999999999
42
0.41421356237310542
10
312.08749999999998
20
-103.03750000000001
10
312.08749999999998
20
-116.03749999999999
42
0.4142135623730846
10
312.58749999999998
20
-116.53750000000001
0
LWPOLYLINE
5
140
100
AcDbEntity
8
0
100
AcDbPolyline
90
8
70
1
43
0.0
10
293.03750000000002
20
-103.03750000000001
10
293.03750000000002
20
-116.03749999999999
42
0.4142135623730846
10
293.53750000000002
20
-116.53750000000001
10
306.53750000000002
20
-116.53750000000001
42
0.4142135623730846
10
307.03750000000002
20
-116.03749999999999
10
307.03750000000002
20
-103.03750000000001
42
0.41421356237310542
10
306.53750000000002
20
-102.53749999999998
10
293.53750000000002
20
-102.53749999999999
42
0.41421356237310542
0
LWPOLYLINE
5
141
100
AcDbEntity
8
0
100
AcDbPolyline
90
8
70
1
43
0.0
10
126.85000000000001
20
-2.5249999999999999
42
0.41421356237307227
10
126.34999999999999
20
-3.0249999999999999
10
126.34999999999999
20
-16.024999999999999
42
0.41421356237307294
10
126.85000000000001
20
-16.524999999999999
10
139.84999999999999
20
-16.525000000000002
42
0.41421356237309243
10
140.34999999999999
20
-16.024999999999999
10
140.34999999999999
20
-3.0249999999999999
42
0.41421356237310542
10
139.84999999999999
20
-2.5250000000000106
0
LWPOLYLINE
5
142
100
AcDbEntity
8
0
100
AcDbPolyline
90
8
70
1
43
0.0
10
60.174999999999997
20
-2.5249999999999999
42
0.41421356237309698
10
59.675000000000004
20
-3.0249999999999999
10
59.675000000000004
20
-16.024999999999999
42
0.41421356237308982
10
60.174999999999997
20
-16.525000000000002
10
73.174999999999983
20
-16.525000000000002
42
0.41421356237309631
10
73.674999999999983
20
-16.024999999999999
10
73.674999999999983
20
-3.0249999999999999
42
0.41421356237309664
10
73.174999999999983
20
-2.5249999999999999
0
LWPOLYLINE
5
143
100
AcDbEntity
8
0
100
AcDbPolyline
90
8
70
1
43
0.0
10
78.724999999999994
20
-3.0249999999999999
10
78.724999999999994
20
-16.024999999999999
42
0.41421356237309243
10
79.22499999999998
20
-16.525000000000002
10
92.224999999999994
20
-16.525000000000002
42
0.41421356237305729
10
92.724999999999994
20
-16.024999999999999
10
92.725000000000023
20
-3.0249999999999999
42
0.41421356237309859
10
92.224999999999994
20
-2.5249999999999999
10
79.22499999999998
20
-2.5249999999999999
42
0.41421356237307522
0
LWPOLYLINE
5
144
100
AcDbEntity
8
0
100
AcDbPolyline
90
8
70
1
43
0.0
10
98.275000000000006
20
-16.525000000000002
10
111.27500000000001
20
-16.525000000000002
42
0.41421356237309243
10
111.77500000000002
20
-16.024999999999999
10
111.77500000000002
20
-3.0249999999999999
42
0.41421356237310542
10
111.27500000000001
20
-2.5250000000000106
10
98.275000000000006
20
-2.5249999999999999
42
0.41421356237308721
10
97.775000000000034
20
-3.0249999999999999
10
97.77500000000002
20
-16.024999999999999
42
0.41421356237312101
0
LWPOLYLINE
5
145
100
AcDbEntity
8
0
100
AcDbPolyline
90
8
70
1
43
0.0
10
178.44999999999999
20
-3.0249999999999999
42
0.41421356237310053
10
177.94999999999999
20
-2.5249999999999835
10
164.95000000000005
20
-2.5249999999999999
42
0.41421356237310414
10
164.44999999999999
20
-3.0249999999999999
10
164.44999999999999
20
-16.024999999999999
42
0.41421356237307161
10
164.95000000000005
20
-16.525000000000002
10
177.94999999999999
20
-16.525000000000002
42
0.41421356237314577
10
178.44999999999996
20
-16.024999999999999
0
LWPOLYLINE
5
146
100
AcDbEntity
8
0
100
AcDbPolyline
90
8
70
1
43
0.0
10
16.024999999999999
20
-16.525000000000002
42
0.4142135623730937
10
16.525000000000002
20
-16.024999999999999
10
16.525000000000002
20
-3.0249999999999999
42
0.4142135623730937
10
16.024999999999999
20
-2.5249999999999999
10
3.0249999999999999
20
-2.5249999999999999
42
0.41421356237309437
10
2.5249999999999999
20
-3.0249999999999999
10
2.5249999999999999
20
-16.024999999999999
42
0.41421356237309437
10
3.0249999999999999
20
-16.525000000000002
0
LWPOLYLINE
5
147
100
AcDbEntity
8
0
100
AcDbPolyline
90
8
70
1
43
0.0
10
54.625
20
-3.0249999999999999
42
0.41421356237310936
10
54.125000000000014
20
-2.5250000000000039
10
41.125
20
-2.5249999999999999
42
0.41421356237307522
10
40.625
20
-3.0249999999999999
10
40.625
20
-16.024999999999999
42
0.41421356237310153
10
41.125
20
-16.524999999999999
10
54.125000000000014
20
-16.525000000000002
42
0.41421356237308071
10
54.625
20
-16.024999999999999
0
LWPOLYLINE
5
148
100
AcDbEntity
8
0
100
AcDbPolyline
90
8
70
1
43
0.0
10
158.90000000000001
20
-16.525000000000002
42
0.41421356237309243
10
159.40000000000001
20
-16.024999999999999
10
159.40000000000001
20
-3.0249999999999999
42
0.41421356237310542
10
158.90000000000001
20
-2.5250000000000106
10
145.90000000000001
20
-2.5249999999999999
42
0.41421356237307227
10
145.40000000000001
20
-3.0249999999999999
10
145.40000000000001
20
-16.024999999999999
42
0.41421356237307422
10
145.90000000000001
20
-16.525000000000002
0
LWPOLYLINE
5
149
100
AcDbEntity
8
0
100
AcDbPolyline
90
8
70
1
43
0.0
10
212.57499999999999
20
-16.524999999999999
10
225.57500000000002
20
-16.525000000000002
42
0.41421356237314577
10
226.07500000000002
20
-16.024999999999999
10
226.07500000000002
20
-3.0249999999999999
42
0.41421356237310053
10
225.57500000000002
20
-2.5249999999999999
10
212.57499999999999
20
-2.5249999999999999
42
0.41421356237312101
10
212.07499999999999
20
-3.0249999999999999
10
212.07499999999999
20
-16.024999999999999
42
0.41421356237312235
0
LWPOLYLINE
5
150
100
AcDbEntity
8
0
100
AcDbPolyline
90
8
70
1
43
0.0
10
244.62500000000006
20
-2.5249999999999999
10
231.625
20
-2.5249999999999999
42
0.41421356237312101
10
231.12499999999997
20
-3.0249999999999999
10
231.125
20
-16.024999999999999
42
0.41421356237312235
10
231.625
20
-16.524999999999984
10
244.62500000000006
20
-16.525000000000002
42
0.41421356237308332
10
245.125
20
-16.024999999999999
10
245.12500000000003
20
-3.0249999999999999
42
0.41421356237307294
0
LWPOLYLINE
5
151
100
AcDbEntity
8
0
100
AcDbPolyline
90
8
70
1
43
0.0
10
250.67500000000001
20
-16.525000000000002
10
263.67500000000001
20
-16.525000000000002
42
0.41421356237310542
10
264.17500000000007
20
-16.024999999999999
10
264.17500000000007
20
-3.0249999999999999
42
0.41421356237307327
10
263.67500000000001
20
-2.5249999999999946
10
250.67500000000001
20
-2.5249999999999999
42
0.41421356237312101
10
250.17500000000001
20
-3.0249999999999999
10
250.17500000000001
20
-16.024999999999999
42
0.41421356237312362
0
LWPOLYLINE
5
152
100
AcDbEntity
8
0
100
AcDbPolyline
90
8
70
1
43
0.0
10
307.03750000000002
20
-3.0249999999999999
42
0.41421356237312335
10
306.53750000000002
20
-2.5250000000000155
10
293.53750000000002
20
-2.5249999999999999
42
0.41421356237312101
10
293.03750000000002
20
-3.0249999999999999
10
293.03750000000002
20
-16.024999999999999
42
0.41421356237312235
10
293.53750000000002
20
-16.524999999999999
10
306.53750000000002
20
-16.525000000000002
42
0.41421356237309892
10
307.03750000000002
20
-16.024999999999999
0
LWPOLYLINE
5
153
100
AcDbEntity
8
0
100
AcDbPolyline
90
8
70
1
43
0.0
10
312.58749999999998
20
-2.5249999999999999
42
0.41421356237312101
10
312.08749999999998
20
-3.0249999999999999
10
312.08749999999998
20
-16.024999999999999
42
0.41421356237312362
10
312.58749999999998
20
-16.524999999999984
10
325.58749999999998
20
-16.525000000000002
42
0.414213562373203
10
326.08749999999992
20
-16.024999999999999
10
326.08749999999992
20
-3.0249999999999999
42
0.41421356237319162
10
325.58749999999998
20
-2.5249999999999999
0
LWPOLYLINE
5
154
100
AcDbEntity
8
0
100
AcDbPolyline
90
8
70
1
43
0.0
10
197.50000000000003
20
-16.024999999999999
10
197.50000000000003
20
-3.0249999999999999
42
0.41421356237312335
10
197.00000000000003
20
-2.5250000000000155
10
184.00000000000003
20
-2.5249999999999999
42
0.41421356237314383
10
183.50000000000006
20
-3.0249999999999999
10
183.5
20
-16.024999999999999
42
0.41421356237309892
10
184.00000000000003
20
-16.525000000000013
10
197.00000000000003
20
-16.525000000000002
42
0.41421356237309892
0
LWPOLYLINE
5
155
100
AcDbEntity
8
0
100
AcDbPolyline
90
8
70
1
43
0.0
10
283.22500000000002
20
-3.0249999999999999
42
0.41421356237310053
10
282.72500000000002
20
-2.5249999999999835
10
269.72500000000002
20
-2.5249999999999999
42
0.41421356237312101
10
269.22500000000002
20
-3.0249999999999999
10
269.22500000000002
20
-16.024999999999999
42
0.41421356237312362
10
269.72500000000002
20
-16.525000000000002
10
282.72500000000002
20
-16.525000000000002
42
0.41421356237314577
10
283.22500000000002
20
-16.024999999999999
0
LWPOLYLINE
5
156
100
AcDbEntity
8
0
100
AcDbPolyline
90
8
70
1
43
0.0
10
344.63749999999999
20
-16.525000000000002
42
0.414213562373203
10
345.13749999999993
20
-16.024999999999999
10
345.13749999999993
20
-3.0249999999999999
42
0.41421356237319162
10
344.63749999999999
20
-2.5249999999999999
10
331.63749999999999
20
-2.5249999999999999
42
0.41421356237330248
10
331.1375000000001
20
-3.0249999999999999
10
331.1375000000001
20
-16.024999999999999
42
0.41421356237304952
10
331.63749999999999
20
-16.524999999999967
0
LWPOLYLINE
5
157
100
AcDbEntity
8
0
100
AcDbPolyline
90
8
70
1
43
0.0
10
97.77500000000002
20
-39.837499999999999
42
0.41421356237310802
10
98.275000000000006
20
-40.337500000000013
10
111.27500000000001
20
-40.337500000000013
42
0.41421356237309243
10
111.77500000000002
20
-39.837499999999999
10
111.77500000000002
20
-26.837499999999999
42
0.41421356237310542
10
111.27500000000001
20
-26.337500000000009
10
98.275000000000006
20
-26.337499999999999
42
0.41421356237305601
10
97.77500000000002
20
-26.837499999999999
0
LWPOLYLINE
5
158
100
AcDbEntity
8
0
100
AcDbPolyline
90
8
70
1
43
0.0
10
60.174999999999997
20
-40.337500000000013
10
73.174999999999983
20
-40.337500000000013
42
0.41421356237311324
10
73.674999999999983
20
-39.837499999999999
10
73.674999999999983
20
-26.837499999999999
42
0.41421356237309764
10
73.174999999999983
20
-26.337499999999995
10
60.174999999999997
20
-26.337499999999999
42
0.41421356237309764
10
59.675000000000011
20
-26.837499999999999
10
59.675000000000004
20
-39.837499999999999
42
0.41421356237309243
0
LWPOLYLINE
5
159
100
AcDbEntity
8
0
100
AcDbPolyline
90
8
70
1
43
0.0
10
21.575000000000006
20
-39.837499999999999
42
0.41421356237309503
10
22.074999999999999
20
-40.337500000000013
10
35.075000000000003
20
-40.337500000000013
42
0.41421356237309503
10
35.57500000000001
20
-39.837499999999999
10
35.57500000000001
20
-26.837499999999999
42
0.41421356237309243
10
35.075000000000003
20
-26.337499999999999
10
22.074999999999999
20
-26.337499999999999
42
0.41421356237310281
10
21.575000000000006
20
-26.837499999999999
0
LWPOLYLINE
5
160
100
AcDbEntity
8
0
100
AcDbPolyline
90
8
70
1
43
0.0
10
54.125000000000014
20
-26.337499999999999
10
41.125
20
-26.337499999999999
42
0.41421356237308204
10
40.625
20
-26.837499999999999
10
40.625
20
-39.837499999999999
42
0.41421356237308982
10
41.125
20
-40.337500000000013
10
54.125000000000014
20
-40.337500000000013
42
0.41421356237310025
10
54.625
20
-39.837499999999999
10
54.625
20
-26.837499999999999
42
0.41421356237307944
0
LWPOLYLINE
5
161
100
AcDbEntity
8
0
100
AcDbPolyline
90
8
70
1
43
0.0
10
117.32500000000002
20
-40.337500000000013
10
130.32499999999999
20
-40.337500000000013
42
0.41421356237309243
10
130.82499999999999
20
-39.837499999999999
10
130.82499999999999
20
-26.837499999999999
42
0.41421356237310542
10
130.32499999999999
20
-26.337499999999999
10
117.32500000000002
20
-26.337499999999999
42
0.41421356237305601
10
116.82500000000003
20
-26.837499999999999
10
116.82500000000003
20
-39.837499999999999
42
0.41421356237310802
0
LWPOLYLINE
5
162
100
AcDbEntity
8
0
100
AcDbPolyline
90
8
70
1
43
0.0
10
2.5249999999999999
20
-39.837499999999999
42
0.41421356237309664
10
3.0249999999999999
20
-40.337500000000013
10
16.024999999999999
20
-40.337500000000013
42
0.4142135623730937
10
16.525000000000002
20
-39.837499999999999
10
16.525000000000002
20
-26.837499999999999
42
0.41421356237309243
10
16.024999999999999
20
-26.337499999999999
10
3.0249999999999999
20
-26.337499999999999
42
0.41421356237309537
10
2.5250000000000012
20
-26.837499999999999
0
LWPOLYLINE
5
163
100
AcDbEntity
8
0
100
AcDbPolyline
90
8
70
1
43
0.0
10
92.725000000000023
20
-26.837499999999999
42
0.41421356237309764
10
92.224999999999994
20
-26.337500000000006
10
79.22499999999998
20
-26.337499999999999
42
0.41421356237308204
10
78.724999999999994
20
-26.837499999999999
10
78.724999999999994
20
-39.837499999999999
42
0.41421356237308982
10
79.22499999999998
20
-40.337500000000013
10
92.224999999999994
20
-40.337500000000013
42
0.41421356237308982
10
92.725000000000023
20
-39.837499999999999
0
LWPOLYLINE
5
164
100
AcDbEntity
8
0
100
AcDbPolyline
90
32
70
1
43
0.0
10
263.67500000000001
20
-40.337500000000013
10
269.72500000000002
20
-40.337500000000013
10
273.19999999999999
20
-40.337500000000013
10
275.13799999999998
20
-40.337500000000013
10
275.13799999999998
20
-40.837500000000013
42
0.41421356237307422
10
275.63800000000003
20
-41.33750000000002
10
281.63799999999998
20
-41.337499999999999
42
0.41421356237316265
10
282.13799999999998
20
-40.837500000000013
10
282.13799999999998
20
-40.337500000000013
10
282.72500000000002
20
-40.337500000000013
42
0.41421356237311063
10
283.22500000000002
20
-39.837499999999999
10
283.22500000000002
20
-26.837499999999999
42
0.41421356237310025
10
282.72500000000002
20
-26.337499999999984
10
281.63799999999998
20
-26.337499999999999
10
275.63800000000003
20
-26.337499999999999
10
273.19999999999999
20
-26.337499999999999
10
269.72500000000002
20
-26.337499999999999
10
263.67500000000001
20
-26.337499999999999
10
260.19999999999999
20
-26.337499999999999
10
257.76200000000006
20
-26.337499999999999
10
251.762
20
-26.337499999999999
10
250.67500000000001
20
-26.337499999999999
42
0.41421356237312101
10
250.17500000000001
20
-26.837499999999999
10
250.17500000000001
20
-39.837499999999999
42
0.41421356237313928
10
250.67500000000001
20
-40.337500000000013
10
251.262
20
-40.337500000000013
10
251.262
20
-40.837500000000013
42
0.41421356237312623
10
251.762
20
-41.337499999999999
10
257.76200000000006
20
-41.337499999999999
42
0.41421356237316265
10
258.26200000000006
20
-40.837500000000013
10
258.262
20
-40.337500000000013
10
260.19999999999999
20
-40.337500000000013
0
LWPOLYLINE
5
165
100
AcDbEntity
8
0
100
AcDbPolyline
90
8
70
1
43
0.0
10
187.97499999999999
20
-39.837499999999999
10
187.97499999999999
20
-26.837499999999999
42
0.41421356237310025
10
187.47499999999999
20
-26.337499999999999
10
174.47500000000005
20
-26.337499999999999
42
0.41421356237312101
10
173.97500000000002
20
-26.837499999999999
10
173.97500000000005
20
-39.837499999999999
42
0.41421356237313928
10
174.47500000000005
20
-40.337500000000013
10
187.47499999999999
20
-40.337500000000013
42
0.41421356237311063
0
LWPOLYLINE
5
166
100
AcDbEntity
8
0
100
AcDbPolyline
90
8
70
1
43
0.0
10
136.375
20
-40.337500000000013
10
149.375
20
-40.337500000000013
42
0.41421356237309243
10
149.875
20
-39.837499999999999
10
149.875
20
-26.837499999999999
42
0.41421356237310542
10
149.375
20
-26.337500000000009
10
136.375
20
-26.337499999999999
42
0.41421356237307161
10
135.875
20
-26.837499999999999
10
135.875
20
-39.837499999999999
42
0.41421356237306123
0
LWPOLYLINE
5
167
100
AcDbEntity
8
0
100
AcDbPolyline
90
8
70
1
43
0.0
10
207.02500000000001
20
-39.837499999999999
10
207.02500000000003
20
-26.837499999999999
42
0.41421356237312362
10
206.52500000000003
20
-26.337500000000013
10
193.52500000000006
20
-26.337499999999999
42
0.41421356237312101
10
193.02500000000003
20
-26.837499999999999
10
193.02500000000006
20
-39.837499999999999
42
0.41421356237313928
10
193.52500000000006
20
-40.337500000000013
10
206.52500000000003
20
-40.337500000000013
42
0.4142135623730534
0
LWPOLYLINE
5
168
100
AcDbEntity
8
0
100
AcDbPolyline
90
8
70
1
43
0.0
10
168.42500000000001
20
-26.337499999999999
10
155.42500000000001
20
-26.337499999999999
42
0.41421356237307161
10
154.92500000000001
20
-26.837499999999999
10
154.92500000000001
20
-39.837499999999999
42
0.41421356237306123
10
155.42500000000001
20
-40.33750000000002
10
168.42500000000001
20
-40.337500000000013
42
0.41421356237301177
10
168.92500000000001
20
-39.837499999999999
10
168.92500000000001
20
-26.837499999999999
42
0.41421356237312362
0
LWPOLYLINE
5
169
100
AcDbEntity
8
0
100
AcDbPolyline
90
8
70
1
43
0.0
10
244.62500000000006
20
-40.337500000000013
42
0.4142135623730534
10
245.125
20
-39.837499999999999
10
245.12500000000003
20
-26.837499999999999
42
0.41421356237307422
10
244.62500000000006
20
-26.337499999999991
10
231.625
20
-26.337499999999999
42
0.41421356237312101
10
231.125
20
-26.837499999999999
10
231.125
20
-39.837499999999999
42
0.41421356237313928
10
231.625
20
-40.337500000000013
0
LWPOLYLINE
5
170
100
AcDbEntity
8
0
100
AcDbPolyline
90
8
70
1
43
0.0
10
212.07499999999999
20
-39.837499999999999
42
0.41421356237313928
10
212.57499999999999
20
-40.337500000000013
10
225.57500000000002
20
-40.337500000000013
42
0.41421356237311063
10
226.07500000000002
20
-39.837499999999999
10
226.07500000000002
20
-26.837499999999999
42
0.41421356237310025
10
225.57500000000002
20
-26.337499999999984
10
212.57499999999999
20
-26.337499999999999
42
0.41421356237312101
10
212.07499999999999
20
-26.837499999999999
0
LWPOLYLINE
5
171
100
AcDbEntity
8
0
100
AcDbPolyline
90
8
70
1
43
0.0
10
45.100000000000009
20
-58.887500000000017
10
45.100000000000009
20
-45.887500000000003
42
0.41421356237307944
10
44.600000000000001
20
-45.387500000000003
10
31.600000000000001
20
-45.387500000000003
42
0.41421356237310281
10
31.100000000000001
20
-45.887500000000003
10
31.100000000000001
20
-58.887500000000017
42
0.41421356237311063
10
31.600000000000001
20
-59.387500000000003
10
44.600000000000001
20
-59.387500000000003
42
0.41421356237309503
0
LWPOLYLINE
5
172
100
AcDbEntity
8
0
100
AcDbPolyline
90
8
70
1
43
0.0
10
326.08749999999992
20
-39.837499999999999
10
326.08749999999992
20
-26.837499999999999
42
0.4142135623731939
10
325.58749999999998
20
-26.337499999999999
10
312.58749999999998
20
-26.337499999999999
42
0.41421356237312101
10
312.08749999999998
20
-26.837499999999999
10
312.08749999999998
20
-39.837499999999999
42
0.41421356237313928
10
312.58749999999998
20
-40.337500000000013
10
325.58749999999998
20
-40.337500000000013
42
0.41421356237320428
0
LWPOLYLINE
5
173
100
AcDbEntity
8
0
100
AcDbPolyline
90
8
70
1
43
0.0
10
293.03750000000002
20
-26.837499999999999
10
293.03750000000002
20
-39.837499999999999
42
0.41421356237313928
10
293.53750000000002
20
-40.337500000000013
10
306.53750000000002
20
-40.337500000000013
42
0.41421356237301177
10
307.03750000000002
20
-39.837499999999999
10
307.03750000000002
20
-26.837499999999999
42
0.41421356237312362
10
306.53750000000002
20
-26.337499999999999
10
293.53750000000002
20
-26.337499999999999
42
0.41421356237312101
0
LWPOLYLINE
5
174
100
AcDbEntity
8
0
100
AcDbPolyline
90
8
70
1
43
0.0
10
63.65000000000002
20
-59.387500000000003
42
0.41421356237307422
10
64.150000000000006
20
-58.887500000000017
10
64.150000000000006
20
-45.887500000000003
42
0.41421356237307422
10
63.65000000000002
20
-45.387500000000003
10
50.650000000000013
20
-45.387500000000003
42
0.41421356237309503
10
50.150000000000013
20
-45.887500000000003
10
50.150000000000013
20
-58.887500000000017
42
0.41421356237311063
10
50.650000000000013
20
-59.387500000000003
0
LWPOLYLINE
5
175
100
AcDbEntity
8
0
100
AcDbPolyline
90
8
70
1
43
0.0
10
344.63749999999999
20
-40.337500000000013
42
0.41421356237320428
10
345.13749999999993
20
-39.837499999999999
10
345.13749999999993
20
-26.837499999999999
42
0.4142135623731939
10
344.63749999999999
20
-26.337499999999999
10
331.63749999999999
20
-26.337499999999999
42
0.41421356237312623
10
331.13750000000005
20
-26.837499999999999
10
331.1375000000001
20
-39.837499999999999
42
0.4142135623730534
10
331.63749999999999
20
-40.337500000000013
0
LWPOLYLINE
5
176
100
AcDbEntity
8
0
100
AcDbPolyline
90
8
70
1
43
0.0
10
7.2874999999999988
20
-58.887500000000017
42
0.41421356237308071
10
7.7875000000000005
20
-59.387500000000003
10
20.787500000000001
20
-59.387500000000003
42
0.41421356237307944
10
21.287500000000001
20
-58.887500000000017
10
21.287500000000001
20
-45.887500000000003
42
0.41421356237308204
10
20.787500000000001
20
-45.387500000000003
10
7.7875000000000005
20
-45.387500000000003
42
0.41421356237309243
10
7.2874999999999979
20
-45.887499999999989
0
LWPOLYLINE
5
177
100
AcDbEntity
8
0
100
AcDbPolyline
90
8
70
1
43
0.0
10
69.700000000000003
20
-59.387500000000003
10
82.700000000000017
20
-59.387500000000003
42
0.4142135623730846
10
83.200000000000017
20
-58.887500000000017
10
83.200000000000017
20
-45.887500000000003
42
0.414213562373069
10
82.700000000000017
20
-45.387500000000003
10
69.700000000000003
20
-45.387500000000003
42
0.41421356237309503
10
69.200000000000003
20
-45.887500000000003
10
69.200000000000003
20
-58.887500000000017
42
0.41421356237311063
0
LWPOLYLINE
5
178
100
AcDbEntity
8
0
100
AcDbPolyline
90
8
70
1
43
0.0
10
178.44999999999999
20
-45.887500000000003
42
0.4142135623730846
10
177.95000000000002
20
-45.387499999999974
10
164.95000000000005
20
-45.387500000000003
42
0.41421356237311063
10
164.44999999999999
20
-45.887500000000003
10
164.44999999999999
20
-58.887500000000017
42
0.41421356237307422
10
164.95000000000005
20
-59.387500000000024
10
177.94999999999999
20
-59.387500000000003
42
0.41421356237316787
10
178.44999999999999
20
-58.887500000000017
0
LWPOLYLINE
5
179
100
AcDbEntity
8
0
100
AcDbPolyline
90
8
70
1
43
0.0
10
202.55000000000001
20
-45.887500000000003
10
202.55000000000001
20
-58.887500000000017
42
0.41421356237307422
10
203.05000000000007
20
-59.387500000000003
10
216.05000000000004
20
-59.387500000000003
42
0.41421356237307422
10
216.55000000000001
20
-58.887500000000017
10
216.55000000000004
20
-45.887500000000003
42
0.41421356237312101
10
216.05000000000004
20
-45.387500000000003
10
203.05000000000007
20
-45.387500000000003
42
0.41421356237311063
0
LWPOLYLINE
5
180
100
AcDbEntity
8
0
100
AcDbPolyline
90
8
70
1
43
0.0
10
120.8
20
-45.387500000000003
10
107.80000000000001
20
-45.387500000000003
42
0.41421356237308982
10
107.30000000000001
20
-45.887500000000003
10
107.30000000000001
20
-58.887500000000017
42
0.41421356237310542
10
107.80000000000001
20
-59.387500000000003
10
120.8
20
-59.387500000000003
42
0.4142135623730846
10
121.30000000000001
20
-58.887500000000017
10
121.30000000000001
20
-45.887500000000003
42
0.414213562373069
0
LWPOLYLINE
5
181
100
AcDbEntity
8
0
100
AcDbPolyline
90
8
70
1
43
0.0
10
101.75
20
-45.387500000000003
10
88.75
20
-45.387500000000003
42
0.41421356237305862
10
88.250000000000014
20
-45.887500000000003
10
88.250000000000014
20
-58.887500000000017
42
0.41421356237311063
10
88.75
20
-59.387499999999996
10
101.75
20
-59.387500000000003
42
0.4142135623730846
10
102.25000000000001
20
-58.887500000000017
10
102.25000000000001
20
-45.887500000000003
42
0.41421356237308982
0
LWPOLYLINE
5
182
100
AcDbEntity
8
0
100
AcDbPolyline
90
8
70
1
43
0.0
10
145.90000000000001
20
-45.387500000000003
42
0.414213562373069
10
145.40000000000001
20
-45.887500000000003
10
145.40000000000001
20
-58.887500000000017
42
0.41421356237306384
10
145.90000000000001
20
-59.387500000000003
10
158.90000000000001
20
-59.387500000000003
42
0.4142135623730846
10
159.40000000000001
20
-58.887500000000017
10
159.40000000000001
20
-45.887500000000003
42
0.41421356237308982
10
158.90000000000001
20
-45.387500000000003
0
LWPOLYLINE
5
183
100
AcDbEntity
8
0
100
AcDbPolyline
90
8
70
1
43
0.0
10
126.85000000000001
20
-45.387500000000003
42
0.414213562373069
10
126.34999999999999
20
-45.887500000000003
10
126.34999999999999
20
-58.887500000000017
42
0.41421356237306384
10
126.85000000000001
20
-59.387500000000003
10
139.84999999999999
20
-59.387500000000003
42
0.4142135623730846
10
140.34999999999999
20
-58.887500000000017
10
140.34999999999999
20
-45.887500000000003
42
0.41421356237308982
10
139.84999999999999
20
-45.387500000000003
0
LWPOLYLINE
5
184
100
AcDbEntity
8
0
100
AcDbPolyline
90
8
70
1
43
0.0
10
183.5
20
-45.887500000000003
10
183.5
20
-58.887500000000017
42
0.41421356237312101
10
184.00000000000003
20
-59.387499999999996
10
197.00000000000003
20
-59.387500000000003
42
0.41421356237301177
10
197.5
20
-58.887500000000017
10
197.50000000000003
20
-45.887500000000003
42
0.41421356237312101
10
197.00000000000003
20
-45.387500000000003
10
184.00000000000003
20
-45.387500000000003
42
0.41421356237313667
0
LWPOLYLINE
5
185
100
AcDbEntity
8
0
100
AcDbPolyline
90
8
70
1
43
0.0
10
307.03750000000002
20
-45.887500000000003
42
0.41421356237312101
10
306.53750000000002
20
-45.387500000000017
10
293.53750000000002
20
-45.387500000000003
42
0.41421356237312101
10
293.03750000000002
20
-45.887500000000003
10
293.03750000000002
20
-58.887500000000017
42
0.41421356237312623
10
293.53750000000002
20
-59.387500000000003
10
306.53750000000002
20
-59.387500000000003
42
0.41421356237301177
10
307.03750000000002
20
-58.887500000000017
0
LWPOLYLINE
5
186
100
AcDbEntity
8
0
100
AcDbPolyline
90
8
70
1
43
0.0
10
345.1375000000001
20
-58.887500000000017
10
345.13749999999993
20
-45.887500000000003
42
0.41421356237318346
10
344.63749999999999
20
-45.387500000000003
10
331.63749999999999
20
-45.387500000000003
42
0.41421356237330315
10
331.1375000000001
20
-45.887500000000003
10
331.1375000000001
20
-58.887500000000017
42
0.41421356237304302
10
331.63749999999999
20
-59.387500000000003
10
344.63749999999999
20
-59.387500000000003
42
0.41421356237317308
0
LWPOLYLINE
5
187
100
AcDbEntity
8
0
100
AcDbPolyline
90
8
70
1
43
0.0
10
312.08749999999998
20
-58.887500000000017
42
0.41421356237312623
10
312.58749999999998
20
-59.387500000000003
10
325.58749999999998
20
-59.387500000000003
42
0.41421356237311063
10
326.08749999999998
20
-58.887500000000017
10
326.08749999999992
20
-45.887500000000003
42
0.41421356237318346
10
325.58749999999998
20
-45.387500000000003
10
312.58749999999998
20
-45.387500000000003
42
0.41421356237312101
10
312.08749999999998
20
-45.887500000000003
0
SPLINE
5
188
100
AcDbEntity
8
0
100
AcDbSpline
70
4
71
3
72
8
73
4
74
0
42
0.000000001
43
0.0000000001
44
0.0000000001
40
0
40
0
40
0
40
0
40
1
40
1
40
1
40
1
41
1
41
1
41
1
41
1
10
6.8702755017069705
20
0.0048409208046495964
30
0
10
7.5848066815231618
20
0.0048409208046495964
30
0
10
8.2450607193674568
20
0.38603876728744879
30
0
10
8.6023263092756572
20
1.0048409208043028
30
0
0
LINE
5
189
100
AcDbEntity
8
0
100
AcDbLine
10
8.6023263092751456
20
1.0048409208045428
30
0
11
10.190098889495347
21
3.7549437006079867
31
0
0
SPLINE
5
190
100
AcDbEntity
8
0
100
AcDbSpline
70
4
71
3
72
8
73
4
74
0
42
0.000000001
43
0.0000000001
44
0.0000000001
40
0
40
0
40
0
40
0
40
1
40
1
40
1
40
1
41
1
41
1
41
1
41
1
10
11.056124293279462
20
4.2549437006079405
30
0
10
10.698858703371348
20
4.2549437006079405
30
0
10
10.368731684449264
20
4.0643447773665287
30
0
10
10.190098889495172
20
3.7549437006081114
30
0
0
LINE
5
191
100
AcDbEntity
8
0
100
AcDbLine
10
11.056124293279462
20
4.2549437006079405
30
0
11
11.831442269150456
21
4.2549437006079938
31
0
0
LINE
5
192
100
AcDbEntity
8
0
100
AcDbLine
10
11.831442269150456
20
4.2549437006079938
30
0
11
11.831442269150456
21
3.4999719138447465
31
0
0
LINE
5
193
100
AcDbEntity
8
0
100
AcDbLine
10
15.831442269150459
20
3.4999719138447465
30
0
11
15.831442269150459
21
4.2549438495450609
31
0
0
LINE
5
194
100
AcDbEntity
8
0
100
AcDbLine
10
15.831442269150459
20
4.2549438495450609
30
0
11
16.612299785281142
21
4.2549438495450609
31
0
0
SPLINE
5
195
100
AcDbEntity
8
0
100
AcDbSpline
70
4
71
3
72
8
73
4
74
0
42
0.000000001
43
0.0000000001
44
0.0000000001
40
0
40
0
40
0
40
0
40
1
40
1
40
1
40
1
41
1
41
1
41
1
41
1
10
17.478325189065433
20
3.7549438495451164
30
0
10
17.29969239411135
20
4.0643449263035336
30
0
10
16.969565375189241
20
4.2549438495449454
30
0
10
16.612299785281142
20
4.2549438495449454
30
0
0
LINE
5
196
100
AcDbEntity
8
0
100
AcDbLine
10
17.478325189065433
20
3.7549438495451164
30
0
11
19.066097855272144
21
1.004840920804303
31
0
0
SPLINE
5
197
100
AcDbEntity
8
0
100
AcDbSpline
70
4
71
3
72
8
73
4
74
0
42
0.000000001
43
0.0000000001
44
0.0000000001
40
0
40
0
40
0
40
0
40
1
40
1
40
1
40
1
41
1
41
1
41
1
41
1
10
19.066097855272144
20
1.004840920804303
30
0
10
19.423363445180346
20
0.3860387672873844
30
0
10
20.083617483024653
20
0.0048409208045030461
30
0
10
20.798148662840937
20
0.0048409208045030079
30
0
0
ARC
5
198
100
AcDbEntity
8
0
100
AcDbCircle
10
13.831442269150456
20
3.4999719138447465
30
0
40
1.9999999999999996
210
0
220
0
230
1
100
AcDbArc
50
-180
51
0
0
SPLINE
5
199
100
AcDbEntity
8
0
100
AcDbSpline
70
4
71
3
72
8
73
4
74
0
42
0.000000001
43
0.0000000001
44
0.0000000001
40
0
40
0
40
0
40
0
40
1
40
1
40
1
40
1
41
1
41
1
41
1
41
1
10
86.870275501706956
20
0.0048409208046407137
30
0
10
87.584806681523148
20
0.0048409208046407137
30
0
10
88.245060719367444
20
0.38603876728743991
30
0
10
88.602326309275682
20
1.0048409208042941
30
0
0
LINE
5
200
100
AcDbEntity
8
0
100
AcDbLine
10
88.602326309275128
20
1.0048409208045339
30
0
11
90.190098889495317
21
3.7549437006079778
31
0
0
SPLINE
5
201
100
AcDbEntity
8
0
100
AcDbSpline
70
4
71
3
72
8
73
4
74
0
42
0.000000001
43
0.0000000001
44
0.0000000001
40
0
40
0
40
0
40
0
40
1
40
1
40
1
40
1
41
1
41
1
41
1
41
1
10
97.478325189065416
20
3.7549438495451071
30
0
10
97.299692394111318
20
4.0643449263035247
30
0
10
96.969565375189234
20
4.2549438495449365
30
0
10
96.612299785281124
20
4.2549438495449365
30
0
0
LINE
5
202
100
AcDbEntity
8
0
100
AcDbLine
10
91.831442269150443
20
4.2549437006079849
30
0
11
91.831442269150443
21
3.4999719138447372
31
0
0
SPLINE
5
203
100
AcDbEntity
8
0
100
AcDbSpline
70
4
71
3
72
8
73
4
74
0
42
0.000000001
43
0.0000000001
44
0.0000000001
40
0
40
0
40
0
40
0
40
1
40
1
40
1
40
1
41
1
41
1
41
1
41
1
10
99.066097855272162
20
1.0048409208042941
30
0
10
99.423363445180328
20
0.38603876728737552
30
0
10
100.08361748302464
20
0.0048409208044941643
30
0
10
100.79814866284093
20
0.0048409208044941261
30
0
0
LINE
5
204
100
AcDbEntity
8
0
100
AcDbLine
10
95.831442269150443
20
3.4999719138447372
30
0
11
95.831442269150443
21
4.254943849545052
31
0
0
ARC
5
205
100
AcDbEntity
8
0
100
AcDbCircle
10
93.831442269150429
20
3.4999719138447372
30
0
40
1.9999999999999929
210
0
220
0
230
1
100
AcDbArc
50
-180
51
0
0
LINE
5
206
100
AcDbEntity
8
0
100
AcDbLine
10
95.831442269150443
20
4.254943849545052
30
0
11
96.612299785281124
21
4.254943849545052
31
0
0
LINE
5
207
100
AcDbEntity
8
0
100
AcDbLine
10
97.478325189065416
20
3.7549438495451071
30
0
11
99.066097855272162
21
1.0048409208042941
31
0
0
SPLINE
5
208
100
AcDbEntity
8
0
100
AcDbSpline
70
4
71
3
72
8
73
4
74
0
42
0.000000001
43
0.0000000001
44
0.0000000001
40
0
40
0
40
0
40
0
40
1
40
1
40
1
40
1
41
1
41
1
41
1
41
1
10
91.056124293279453
20
4.2549437006079316
30
0
10
90.698858703371371
20
4.2549437006079316
30
0
10
90.368731684449273
20
4.0643447773665198
30
0
10
90.190098889495147
20
3.7549437006081026
30
0
0
LINE
5
209
100
AcDbEntity
8
0
100
AcDbLine
10
91.056124293279453
20
4.2549437006079316
30
0
11
91.831442269150443
21
4.2549437006079849
31
0
0
LINE
5
210
100
AcDbEntity
8
0
100
AcDbLine
10
171.83144226915059
20
4.2549437006079849
30
0
11
171.83144226915059
21
3.4999719138447372
31
0
0
LINE
5
211
100
AcDbEntity
8
0
100
AcDbLine
10
175.83144226915061
20
3.4999719138447372
30
0
11
175.83144226915061
21
4.254943849545052
31
0
0
LINE
5
212
100
AcDbEntity
8
0
100
AcDbLine
10
168.60232630927527
20
1.0048409208045339
30
0
11
170.19009888949546
21
3.7549437006079778
31
0
0
SPLINE
5
213
100
AcDbEntity
8
0
100
AcDbSpline
70
4
71
3
72
8
73
4
74
0
42
0.000000001
43
0.0000000001
44
0.0000000001
40
0
40
0
40
0
40
0
40
1
40
1
40
1
40
1
41
1
41
1
41
1
41
1
10
179.06609785527226
20
1.0048409208042941
30
0
10
179.42336344518051
20
0.38603876728737552
30
0
10
180.08361748302474
20
0.0048409208044941643
30
0
10
180.79814866284107
20
0.0048409208044941261
30
0
0
LINE
5
214
100
AcDbEntity
8
0
100
AcDbLine
10
171.05612429327954
20
4.2549437006079316
30
0
11
171.83144226915059
21
4.2549437006079849
31
0
0
ARC
5
215
100
AcDbEntity
8
0
100
AcDbCircle
10
173.83144226915061
20
3.4999719138447372
30
0
40
2.0000000000000284
210
0
220
0
230
1
100
AcDbArc
50
-180
51
0
0
SPLINE
5
216
100
AcDbEntity
8
0
100
AcDbSpline
70
4
71
3
72
8
73
4
74
0
42
0.000000001
43
0.0000000001
44
0.0000000001
40
0
40
0
40
0
40
0
40
1
40
1
40
1
40
1
41
1
41
1
41
1
41
1
10
177.47832518906557
20
3.7549438495451071
30
0
10
177.29969239411147
20
4.0643449263035247
30
0
10
176.96956537518935
20
4.2549438495449365
30
0
10
176.61229978528129
20
4.2549438495449365
30
0
0
LINE
5
217
100
AcDbEntity
8
0
100
AcDbLine
10
175.83144226915061
20
4.254943849545052
30
0
11
176.61229978528129
21
4.254943849545052
31
0
0
SPLINE
5
218
100
AcDbEntity
8
0
100
AcDbSpline
70
4
71
3
72
8
73
4
74
0
42
0.000000001
43
0.0000000001
44
0.0000000001
40
0
40
0
40
0
40
0
40
1
40
1
40
1
40
1
41
1
41
1
41
1
41
1
10
166.87027550170708
20
0.0048409208046407137
30
0
10
167.58480668152328
20
0.0048409208046407137
30
0
10
168.24506071936756
20
0.38603876728743991
30
0
10
168.60232630927581
20
1.0048409208042941
30
0
0
SPLINE
5
219
100
AcDbEntity
8
0
100
AcDbSpline
70
4
71
3
72
8
73
4
74
0
42
0.000000001
43
0.0000000001
44
0.0000000001
40
0
40
0
40
0
40
0
40
1
40
1
40
1
40
1
41
1
41
1
41
1
41
1
10
171.05612429327954
20
4.2549437006079316
30
0
10
170.69885870337146
20
4.2549437006079316
30
0
10
170.36873168444941
20
4.0643447773665198
30
0
10
170.19009888949526
20
3.7549437006081026
30
0
0
LINE
5
220
100
AcDbEntity
8
0
100
AcDbLine
10
177.47832518906557
20
3.7549438495451071
30
0
11
179.06609785527226
21
1.0048409208042941
31
0
0
LINE
5
221
100
AcDbEntity
8
0
100
AcDbLine
10
251.83144226915007
20
4.2549437006079849
30
0
11
251.83144226915007
21
3.4999719138447372
31
0
0
LINE
5
222
100
AcDbEntity
8
0
100
AcDbLine
10
255.83144226915016
20
3.4999719138447372
30
0
11
255.83144226915016
21
4.254943849545052
31
0
0
LINE
5
223
100
AcDbEntity
8
0
100
AcDbLine
10
248.60232630927484
20
1.0048409208045339
30
0
11
250.19009888949509
21
3.7549437006079778
31
0
0
SPLINE
5
224
100
AcDbEntity
8
0
100
AcDbSpline
70
4
71
3
72
8
73
4
74
0
42
0.000000001
43
0.0000000001
44
0.0000000001
40
0
40
0
40
0
40
0
40
1
40
1
40
1
40
1
41
1
41
1
41
1
41
1
10
259.06609785527178
20
1.0048409208042941
30
0
10
259.42336344518003
20
0.38603876728737552
30
0
10
260.08361748302434
20
0.0048409208044941643
30
0
10
260.79814866284062
20
0.0048409208044941261
30
0
0
LINE
5
225
100
AcDbEntity
8
0
100
AcDbLine
10
251.05612429327917
20
4.2549437006079316
30
0
11
251.83144226915007
21
4.2549437006079849
31
0
0
ARC
5
226
100
AcDbEntity
8
0
100
AcDbCircle
10
253.83144226915019
20
3.4999719138447372
30
0
40
2.0000000000000995
210
0
220
0
230
1
100
AcDbArc
50
-180
51
0
0
SPLINE
5
227
100
AcDbEntity
8
0
100
AcDbSpline
70
4
71
3
72
8
73
4
74
0
42
0.000000001
43
0.0000000001
44
0.0000000001
40
0
40
0
40
0
40
0
40
1
40
1
40
1
40
1
41
1
41
1
41
1
41
1
10
257.47832518906512
20
3.7549438495451071
30
0
10
257.29969239411105
20
4.0643449263035247
30
0
10
256.96956537518889
20
4.2549438495449365
30
0
10
256.61229978528081
20
4.2549438495449365
30
0
0
LINE
5
228
100
AcDbEntity
8
0
100
AcDbLine
10
255.83144226915016
20
4.254943849545052
30
0
11
256.61229978528081
21
4.254943849545052
31
0
0
SPLINE
5
229
100
AcDbEntity
8
0
100
AcDbSpline
70
4
71
3
72
8
73
4
74
0
42
0.000000001
43
0.0000000001
44
0.0000000001
40
0
40
0
40
0
40
0
40
1
40
1
40
1
40
1
41
1
41
1
41
1
41
1
10
246.87027550170666
20
0.0048409208046407137
30
0
10
247.58480668152285
20
0.0048409208046407137
30
0
10
248.24506071936713
20
0.38603876728743991
30
0
10
248.60232630927533
20
1.0048409208042941
30
0
0
SPLINE
5
230
100
AcDbEntity
8
0
100
AcDbSpline
70
4
71
3
72
8
73
4
74
0
42
0.000000001
43
0.0000000001
44
0.0000000001
40
0
40
0
40
0
40
0
40
1
40
1
40
1
40
1
41
1
41
1
41
1
41
1
10
251.05612429327917
20
4.2549437006079316
30
0
10
250.69885870337106
20
4.2549437006079316
30
0
10
250.36873168444899
20
4.0643447773665198
30
0
10
250.19009888949486
20
3.7549437006081026
30
0
0
LINE
5
231
100
AcDbEntity
8
0
100
AcDbLine
10
257.47832518906512
20
3.7549438495451071
30
0
11
259.06609785527178
21
1.0048409208042941
31
0
0
LINE
5
232
100
AcDbEntity
8
0
100
AcDbLine
10
331.83144226915044
20
4.2549437006079849
30
0
11
331.83144226915044
21
3.4999719138447372
31
0
0
LINE
5
233
100
AcDbEntity
8
0
100
AcDbLine
10
335.83144226915044
20
3.4999719138447372
30
0
11
335.83144226915044
21
4.254943849545052
31
0
0
LINE
5
234
100
AcDbEntity
8
0
100
AcDbLine
10
328.60232630927521
20
1.0048409208045339
30
0
11
330.19009888949535
21
3.7549437006079778
31
0
0
SPLINE
5
235
100
AcDbEntity
8
0
100
AcDbSpline
70
4
71
3
72
8
73
4
74
0
42
0.000000001
43
0.0000000001
44
0.0000000001
40
0
40
0
40
0
40
0
40
1
40
1
40
1
40
1
41
1
41
1
41
1
41
1
10
339.06609785527212
20
1.0048409208042941
30
0
10
339.42336344518031
20
0.38603876728737552
30
0
10
340.08361748302463
20
0.0048409208044941643
30
0
10
340.7981486628409
20
0.0048409208044941261
30
0
0
LINE
5
236
100
AcDbEntity
8
0
100
AcDbLine
10
331.05612429327948
20
4.2549437006079316
30
0
11
331.83144226915044
21
4.2549437006079849
31
0
0
ARC
5
237
100
AcDbEntity
8
0
100
AcDbCircle
10
333.83144226915044
20
3.4999719138447372
30
0
40
1.9999999999999574
210
0
220
0
230
1
100
AcDbArc
50
-180
51
0
0
SPLINE
5
238
100
AcDbEntity
8
0
100
AcDbSpline
70
4
71
3
72
8
73
4
74
0
42
0.000000001
43
0.0000000001
44
0.0000000001
40
0
40
0
40
0
40
0
40
1
40
1
40
1
40
1
41
1
41
1
41
1
41
1
10
337.47832518906534
20
3.7549438495451071
30
0
10
337.29969239411133
20
4.0643449263035247
30
0
10
336.96956537518923
20
4.2549438495449365
30
0
10
336.61229978528121
20
4.2549438495449365
30
0
0
LINE
5
239
100
AcDbEntity
8
0
100
AcDbLine
10
335.83144226915044
20
4.254943849545052
30
0
11
336.61229978528121
21
4.254943849545052
31
0
0
SPLINE
5
240
100
AcDbEntity
8
0
100
AcDbSpline
70
4
71
3
72
8
73
4
74
0
42
0.000000001
43
0.0000000001
44
0.0000000001
40
0
40
0
40
0
40
0
40
1
40
1
40
1
40
1
41
1
41
1
41
1
41
1
10
326.87027550170694
20
0.0048409208046407137
30
0
10
327.58480668152316
20
0.0048409208046407137
30
0
10
328.24506071936747
20
0.38603876728743991
30
0
10
328.60232630927561
20
1.0048409208042941
30
0
0
SPLINE
5
241
100
AcDbEntity
8
0
100
AcDbSpline
70
4
71
3
72
8
73
4
74
0
42
0.000000001
43
0.0000000001
44
0.0000000001
40
0
40
0
40
0
40
0
40
1
40
1
40
1
40
1
41
1
41
1
41
1
41
1
10
331.05612429327948
20
4.2549437006079316
30
0
10
330.6988587033714
20
4.2549437006079316
30
0
10
330.36873168444924
20
4.0643447773665198
30
0
10
330.19009888949512
20
3.7549437006081026
30
0
0
LINE
5
242
100
AcDbEntity
8
0
100
AcDbLine
10
337.47832518906534
20
3.7549438495451071
30
0
11
339.06609785527212
21
1.0048409208042941
31
0
0
LINE
5
243
100
AcDbEntity
8
0
100
AcDbLine
10
20.798148662840937
20
0.0048409208045030079
30
0
11
86.870275501706956
21
0.0048409208046407137
31
0
0
LINE
5
244
100
AcDbEntity
8
0
100
AcDbLine
10
100.79814866284093
20
0.0048409208044941261
30
0
11
166.87027550170708
21
0.0048409208046407137
31
0
0
LINE
5
245
100
AcDbEntity
8
0
100
AcDbLine
10
180.79814866284107
20
0.0048409208044941261
30
0
11
246.87027550170666
21
0.0048409208046407137
31
0
0
LINE
5
246
100
AcDbEntity
8
0
100
AcDbLine
10
260.79814866284062
20
0.0048409208044941261
30
0
11
326.87027550170694
21
0.0048409208046407137
31
0
0
LINE
5
247
100
AcDbEntity
8
0
100
AcDbLine
10
246.86473587546004
20
-119.06489709311487
30
0
11
180.79260903659386
21
-119.06489709311501
31
0
0
LINE
5
248
100
AcDbEntity
8
0
100
AcDbLine
10
176.60676024502135
20
-123.31499987291828
30
0
11
175.83144226915039
21
-123.31499987291834
31
0
0
LINE
5
249
100
AcDbEntity
8
0
100
AcDbLine
10
15.831442269150422
20
-123.31499987291828
30
0
11
15.831442269150422
21
-122.56002808615507
31
0
0
SPLINE
5
250
100
AcDbEntity
8
0
100
AcDbSpline
70
4
71
3
72
8
73
4
74
0
42
0.000000001
43
0.0000000001
44
0.0000000001
40
0
40
0
40
0
40
0
40
1
40
1
40
1
40
1
41
1
41
1
41
1
41
1
10
20.792609036593927
20
-119.06489709311495
30
0
10
20.078077856777728
20
-119.06489709311495
30
0
10
19.417823818933435
20
-119.44609493959776
30
0
10
19.060558229025265
20
-120.0648970931146
30
0
0
SPLINE
5
251
100
AcDbEntity
8
0
100
AcDbSpline
70
4
71
3
72
8
73
4
74
0
42
0.000000001
43
0.0000000001
44
0.0000000001
40
0
40
0
40
0
40
0
40
1
40
1
40
1
40
1
41
1
41
1
41
1
41
1
10
180.79260903659386
20
-119.06489709311501
30
0
10
180.07807785677761
20
-119.06489709311501
30
0
10
179.4178238189333
20
-119.44609493959776
30
0
10
179.06055822902513
20
-120.06489709311465
30
0
0
SPLINE
5
252
100
AcDbEntity
8
0
100
AcDbSpline
70
4
71
3
72
8
73
4
74
0
42
0.000000001
43
0.0000000001
44
0.0000000001
40
0
40
0
40
0
40
0
40
1
40
1
40
1
40
1
41
1
41
1
41
1
41
1
10
176.60676024502135
20
-123.31499987291828
30
0
10
176.96402583492943
20
-123.31499987291828
30
0
10
177.29415285385156
20
-123.12440094967684
30
0
10
177.47278564880563
20
-122.81499987291845
30
0
0
SPLINE
5
253
100
AcDbEntity
8
0
100
AcDbSpline
70
4
71
3
72
8
73
4
74
0
42
0.000000001
43
0.0000000001
44
0.0000000001
40
0
40
0
40
0
40
0
40
1
40
1
40
1
40
1
41
1
41
1
41
1
41
1
10
96.606760245021775
20
-123.31499987291828
30
0
10
96.964025834929842
20
-123.31499987291828
30
0
10
97.294152853851941
20
-123.12440094967684
30
0
10
97.472785648806038
20
-122.81499987291845
30
0
0
LINE
5
254
100
AcDbEntity
8
0
100
AcDbLine
10
19.060558229025766
20
-120.06489709311487
30
0
11
17.472785648805562
21
-122.81499987291829
31
0
0
SPLINE
5
255
100
AcDbEntity
8
0
100
AcDbSpline
70
4
71
3
72
8
73
4
74
0
42
0.000000001
43
0.0000000001
44
0.0000000001
40
0
40
0
40
0
40
0
40
1
40
1
40
1
40
1
41
1
41
1
41
1
41
1
10
8.5967866830288031
20
-120.0648970931146
30
0
10
8.2395210931205654
20
-119.44609493959769
30
0
10
7.5792670552762686
20
-119.06489709311479
30
0
10
6.8647358754599352
20
-119.06489709311479
30
0
0
SPLINE
5
256
100
AcDbEntity
8
0
100
AcDbSpline
70
4
71
3
72
8
73
4
74
0
42
0.000000001
43
0.0000000001
44
0.0000000001
40
0
40
0
40
0
40
0
40
1
40
1
40
1
40
1
41
1
41
1
41
1
41
1
10
168.59678668302863
20
-120.06489709311465
30
0
10
168.23952109312043
20
-119.44609493959774
30
0
10
167.57926705527612
20
-119.06489709311487
30
0
10
166.86473587545987
20
-119.06489709311487
30
0
0
LINE
5
257
100
AcDbEntity
8
0
100
AcDbLine
10
170.18455934923534
20
-122.81500002185544
30
0
11
168.59678668302863
21
-120.06489709311465
31
0
0
SPLINE
5
258
100
AcDbEntity
8
0
100
AcDbSpline
70
4
71
3
72
8
73
4
74
0
42
0.000000001
43
0.0000000001
44
0.0000000001
40
0
40
0
40
0
40
0
40
1
40
1
40
1
40
1
41
1
41
1
41
1
41
1
10
10.184559349235476
20
-122.81500002185541
30
0
10
10.36319214418956
20
-123.12440109861384
30
0
10
10.693319163111674
20
-123.31500002185524
30
0
10
11.05058475301977
20
-123.31500002185524
30
0
0
SPLINE
5
259
100
AcDbEntity
8
0
100
AcDbSpline
70
4
71
3
72
8
73
4
74
0
42
0.000000001
43
0.0000000001
44
0.0000000001
40
0
40
0
40
0
40
0
40
1
40
1
40
1
40
1
41
1
41
1
41
1
41
1
10
90.184559349235784
20
-122.81500002185544
30
0
10
90.363192144189867
20
-123.12440109861384
30
0
10
90.693319163111966
20
-123.31500002185528
30
0
10
91.050584753020033
20
-123.31500002185528
30
0
0
LINE
5
260
100
AcDbEntity
8
0
100
AcDbLine
10
250.18455934923549
20
-122.81500002185544
30
0
11
248.59678668302882
21
-120.06489709311465
31
0
0
LINE
5
261
100
AcDbEntity
8
0
100
AcDbLine
10
10.184559349235476
20
-122.81500002185541
30
0
11
8.5967866830288031
21
-120.0648970931146
31
0
0
ARC
5
262
100
AcDbEntity
8
0
100
AcDbCircle
10
13.831442269150465
20
-122.56002808615507
30
0
40
1.9999999999999574
210
0
220
0
230
1
100
AcDbArc
50
0
51
180
0
LINE
5
263
100
AcDbEntity
8
0
100
AcDbLine
10
11.831442269150436
20
-123.31500002185535
30
0
11
11.05058475301977
21
-123.31500002185535
31
0
0
LINE
5
264
100
AcDbEntity
8
0
100
AcDbLine
10
166.86473587545987
20
-119.06489709311487
30
0
11
100.79260903659424
21
-119.06489709311501
31
0
0
LINE
5
265
100
AcDbEntity
8
0
100
AcDbLine
10
175.83144226915039
20
-123.31499987291834
30
0
11
175.83144226915039
21
-122.56002808615507
31
0
0
LINE
5
266
100
AcDbEntity
8
0
100
AcDbLine
10
99.060558229026071
20
-120.06489709311488
30
0
11
97.472785648805868
21
-122.81499987291832
31
0
0
LINE
5
267
100
AcDbEntity
8
0
100
AcDbLine
10
179.06055822902562
20
-120.06489709311488
30
0
11
177.47278564880543
21
-122.81499987291832
31
0
0
LINE
5
268
100
AcDbEntity
8
0
100
AcDbLine
10
16.606760245021412
20
-123.31499987291826
30
0
11
15.831442269150422
21
-123.31499987291828
31
0
0
ARC
5
269
100
AcDbEntity
8
0
100
AcDbCircle
10
173.83144226915033
20
-122.56002808615507
30
0
40
2.0000000000000639
210
0
220
0
230
1
100
AcDbArc
50
0
51
180
0
ARC
5
270
100
AcDbEntity
8
0
100
AcDbCircle
10
333.83144226915044
20
-122.56002808615507
30
0
40
2.0000000000000284
210
0
220
0
230
1
100
AcDbArc
50
0
51
180
0
LINE
5
271
100
AcDbEntity
8
0
100
AcDbLine
10
259.06055822902579
20
-120.06489709311488
30
0
11
257.4727856488056
21
-122.81499987291832
31
0
0
SPLINE
5
272
100
AcDbEntity
8
0
100
AcDbSpline
70
4
71
3
72
8
73
4
74
0
42
0.000000001
43
0.0000000001
44
0.0000000001
40
0
40
0
40
0
40
0
40
1
40
1
40
1
40
1
41
1
41
1
41
1
41
1
10
170.18455934923534
20
-122.81500002185544
30
0
10
170.36319214418941
20
-123.12440109861386
30
0
10
170.69331916311154
20
-123.31500002185528
30
0
10
171.05058475301962
20
-123.31500002185528
30
0
0
SPLINE
5
273
100
AcDbEntity
8
0
100
AcDbSpline
70
4
71
3
72
8
73
4
74
0
42
0.000000001
43
0.0000000001
44
0.0000000001
40
0
40
0
40
0
40
0
40
1
40
1
40
1
40
1
41
1
41
1
41
1
41
1
10
88.59678668302908
20
-120.0648970931146
30
0
10
88.239521093120857
20
-119.44609493959774
30
0
10
87.579267055276546
20
-119.06489709311479
30
0
10
86.864735875460312
20
-119.06489709311479
30
0
0
LINE
5
274
100
AcDbEntity
8
0
100
AcDbLine
10
11.831442269150507
20
-122.56002808615507
30
0
11
11.831442269150436
21
-123.31500002185535
31
0
0
LINE
5
275
100
AcDbEntity
8
0
100
AcDbLine
10
171.8314422691503
20
-122.56002808615507
30
0
11
171.8314422691503
21
-123.31500002185537
31
0
0
SPLINE
5
276
100
AcDbEntity
8
0
100
AcDbSpline
70
4
71
3
72
8
73
4
74
0
42
0.000000001
43
0.0000000001
44
0.0000000001
40
0
40
0
40
0
40
0
40
1
40
1
40
1
40
1
41
1
41
1
41
1
41
1
10
248.59678668302882
20
-120.06489709311465
30
0
10
248.2395210931206
20
-119.44609493959774
30
0
10
247.57926705527626
20
-119.06489709311487
30
0
10
246.86473587546004
20
-119.06489709311487
30
0
0
SPLINE
5
277
100
AcDbEntity
8
0
100
AcDbSpline
70
4
71
3
72
8
73
4
74
0
42
0.000000001
43
0.0000000001
44
0.0000000001
40
0
40
0
40
0
40
0
40
1
40
1
40
1
40
1
41
1
41
1
41
1
41
1
10
16.606760245021412
20
-123.31499987291826
30
0
10
16.964025834929579
20
-123.31499987291826
30
0
10
17.294152853851617
20
-123.12440094967684
30
0
10
17.472785648805775
20
-122.81499987291843
30
0
0
LINE
5
278
100
AcDbEntity
8
0
100
AcDbLine
10
326.86473587546004
20
-119.06489709311487
30
0
11
260.79260903659394
21
-119.06489709311501
31
0
0
LINE
5
279
100
AcDbEntity
8
0
100
AcDbLine
10
86.864735875460312
20
-119.06489709311479
30
0
11
20.792609036593923
21
-119.06489709311495
31
0
0
LINE
5
280
100
AcDbEntity
8
0
100
AcDbLine
10
330.18455934923543
20
-122.8150000218555
30
0
11
328.59678668302882
21
-120.06489709311468
31
0
0
LINE
5
281
100
AcDbEntity
8
0
100
AcDbLine
10
331.83144226915044
20
-123.31500002185543
30
0
11
331.05058475301973
21
-123.31500002185543
31
0
0
LINE
5
282
100
AcDbEntity
8
0
100
AcDbLine
10
91.831442269150727
20
-122.56002808615507
30
0
11
91.831442269150727
21
-123.31500002185535
31
0
0
ARC
5
283
100
AcDbEntity
8
0
100
AcDbCircle
10
253.83144226915044
20
-122.56002808615507
30
0
40
2.0000000000000284
210
0
220
0
230
1
100
AcDbArc
50
0
51
180
0
SPLINE
5
284
100
AcDbEntity
8
0
100
AcDbSpline
70
4
71
3
72
8
73
4
74
0
42
0.000000001
43
0.0000000001
44
0.0000000001
40
0
40
0
40
0
40
0
40
1
40
1
40
1
40
1
41
1
41
1
41
1
41
1
10
330.18455934923543
20
-122.8150000218555
30
0
10
330.3631921441895
20
-123.12440109861387
30
0
10
330.69331916311165
20
-123.3150000218553
30
0
10
331.05058475301973
20
-123.3150000218553
30
0
0
LINE
5
285
100
AcDbEntity
8
0
100
AcDbLine
10
336.60676024502146
20
-123.31499987291828
30
0
11
335.83144226915044
21
-123.31499987291836
31
0
0
LINE
5
286
100
AcDbEntity
8
0
100
AcDbLine
10
91.831442269150727
20
-123.31500002185535
30
0
11
91.050584753020033
21
-123.31500002185535
31
0
0
LINE
5
287
100
AcDbEntity
8
0
100
AcDbLine
10
331.83144226915039
20
-122.56002808615507
30
0
11
331.83144226915044
21
-123.31500002185543
31
0
0
LINE
5
288
100
AcDbEntity
8
0
100
AcDbLine
10
90.184559349235784
20
-122.81500002185544
30
0
11
88.59678668302908
21
-120.0648970931146
31
0
0
LINE
5
289
100
AcDbEntity
8
0
100
AcDbLine
10
251.83144226915044
20
-123.31500002185537
30
0
11
251.05058475301976
21
-123.31500002185537
31
0
0
SPLINE
5
290
100
AcDbEntity
8
0
100
AcDbSpline
70
4
71
3
72
8
73
4
74
0
42
0.000000001
43
0.0000000001
44
0.0000000001
40
0
40
0
40
0
40
0
40
1
40
1
40
1
40
1
41
1
41
1
41
1
41
1
10
340.79260903659383
20
-119.06489709311501
30
0
10
340.07807785677767
20
-119.06489709311501
30
0
10
339.41782381893347
20
-119.44609493959781
30
0
10
339.06055822902522
20
-120.06489709311468
30
0
0
ARC
5
291
100
AcDbEntity
8
0
100
AcDbCircle
10
93.83144226915077
20
-122.56002808615507
30
0
40
2.0000000000000284
210
0
220
0
230
1
100
AcDbArc
50
0
51
180
0
LINE
5
292
100
AcDbEntity
8
0
100
AcDbLine
10
171.8314422691503
20
-123.31500002185537
30
0
11
171.05058475301962
21
-123.31500002185537
31
0
0
LINE
5
293
100
AcDbEntity
8
0
100
AcDbLine
10
95.831442269150784
20
-123.31499987291834
30
0
11
95.831442269150799
21
-122.56002808615507
31
0
0
LINE
5
294
100
AcDbEntity
8
0
100
AcDbLine
10
339.06055822902579
20
-120.06489709311488
30
0
11
337.4727856488056
21
-122.81499987291838
31
0
0
LINE
5
295
100
AcDbEntity
8
0
100
AcDbLine
10
255.83144226915041
20
-123.31499987291835
30
0
11
255.83144226915044
21
-122.56002808615507
31
0
0
LINE
5
296
100
AcDbEntity
8
0
100
AcDbLine
10
251.83144226915039
20
-122.56002808615507
30
0
11
251.83144226915044
21
-123.31500002185537
31
0
0
SPLINE
5
297
100
AcDbEntity
8
0
100
AcDbSpline
70
4
71
3
72
8
73
4
74
0
42
0.000000001
43
0.0000000001
44
0.0000000001
40
0
40
0
40
0
40
0
40
1
40
1
40
1
40
1
41
1
41
1
41
1
41
1
10
100.79260903659424
20
-119.06489709311501
30
0
10
100.07807785677805
20
-119.06489709311501
30
0
10
99.417823818933769
20
-119.44609493959776
30
0
10
99.060558229025574
20
-120.06489709311465
30
0
0
LINE
5
298
100
AcDbEntity
8
0
100
AcDbLine
10
335.83144226915044
20
-123.31499987291836
30
0
11
335.83144226915044
21
-122.56002808615507
31
0
0
SPLINE
5
299
100
AcDbEntity
8
0
100
AcDbSpline
70
4
71
3
72
8
73
4
74
0
42
0.000000001
43
0.0000000001
44
0.0000000001
40
0
40
0
40
0
40
0
40
1
40
1
40
1
40
1
41
1
41
1
41
1
41
1
10
260.79260903659394
20
-119.06489709311501
30
0
10
260.07807785677778
20
-119.06489709311501
30
0
10
259.41782381893347
20
-119.44609493959776
30
0
10
259.06055822902522
20
-120.06489709311465
30
0
0
SPLINE
5
300
100
AcDbEntity
8
0
100
AcDbSpline
70
4
71
3
72
8
73
4
74
0
42
0.000000001
43
0.0000000001
44
0.0000000001
40
0
40
0
40
0
40
0
40
1
40
1
40
1
40
1
41
1
41
1
41
1
41
1
10
250.18455934923549
20
-122.81500002185544
30
0
10
250.36319214418955
20
-123.12440109861386
30
0
10
250.69331916311171
20
-123.31500002185528
30
0
10
251.05058475301976
20
-123.31500002185528
30
0
0
SPLINE
5
301
100
AcDbEntity
8
0
100
AcDbSpline
70
4
71
3
72
8
73
4
74
0
42
0.000000001
43
0.0000000001
44
0.0000000001
40
0
40
0
40
0
40
0
40
1
40
1
40
1
40
1
41
1
41
1
41
1
41
1
10
328.59678668302882
20
-120.06489709311468
30
0
10
328.23952109312052
20
-119.44609493959774
30
0
10
327.5792670552762
20
-119.06489709311487
30
0
10
326.86473587546004
20
-119.06489709311487
30
0
0
SPLINE
5
302
100
AcDbEntity
8
0
100
AcDbSpline
70
4
71
3
72
8
73
4
74
0
42
0.000000001
43
0.0000000001
44
0.0000000001
40
0
40
0
40
0
40
0
40
1
40
1
40
1
40
1
41
1
41
1
41
1
41
1
10
336.60676024502146
20
-123.31499987291828
30
0
10
336.9640258349296
20
-123.31499987291828
30
0
10
337.29415285385164
20
-123.12440094967691
30
0
10
337.47278564880571
20
-122.81499987291845
30
0
0
LINE
5
303
100
AcDbEntity
8
0
100
AcDbLine
10
256.60676024502146
20
-123.31499987291828
30
0
11
255.83144226915041
21
-123.31499987291835
31
0
0
LINE
5
304
100
AcDbEntity
8
0
100
AcDbLine
10
96.606760245021775
20
-123.31499987291828
30
0
11
95.831442269150784
21
-123.31499987291834
31
0
0
SPLINE
5
305
100
AcDbEntity
8
0
100
AcDbSpline
70
4
71
3
72
8
73
4
74
0
42
0.000000001
43
0.0000000001
44
0.0000000001
40
0
40
0
40
0
40
0
40
1
40
1
40
1
40
1
41
1
41
1
41
1
41
1
10
256.60676024502146
20
-123.31499987291828
30
0
10
256.9640258349296
20
-123.31499987291828
30
0
10
257.29415285385164
20
-123.1244009496769
30
0
10
257.47278564880571
20
-122.81499987291845
30
0
0
LINE
5
306
100
AcDbEntity
8
0
100
AcDbLine
10
1.7347234759768071e-16
20
-1.9769307136662553
30
0
11
9.0899510141184692e-15
21
-116.35779031192827
31
0
0
LINE
5
307
100
AcDbEntity
8
0
100
AcDbLine
10
2.707106781186583
20
-119.06489709311479
30
0
11
6.8647358754599352
21
-119.06489709311479
31
0
0
LINE
5
308
100
AcDbEntity
8
0
100
AcDbLine
10
347.66249999999991
20
-2.7022658603820555
30
0
11
347.66250000000008
21
-116.35779031192845
31
0
0
LINE
5
309
100
AcDbEntity
8
0
100
AcDbLine
10
344.9553932188133
20
-119.06489709311501
30
0
11
340.79260903659383
21
-119.06489709311501
31
0
0
LINE
5
310
100
AcDbEntity
8
0
100
AcDbLine
10
340.7981486628409
20
0.0048409208044941261
30
0
11
344.95539321881347
21
0.0048409208045294139
31
0
0
LINE
5
311
100
AcDbEntity
8
0
100
AcDbLine
10
0.1464466094067314
20
-116.71134370252153
30
0
11
2.3535533905933064
21
-118.91845048370809
31
0
0
LINE
5
312
100
AcDbEntity
8
0
100
AcDbLine
10
347.51605339059324
20
-116.71134370252175
30
0
11
345.30894660940658
21
-118.91845048370828
31
0
0
LINE
5
313
100
AcDbEntity
8
0
100
AcDbLine
10
345.30894660940669
20
-0.1416056886022326
30
0
11
347.51605339059324
21
-2.3487124697887953
31
0
0
LINE
5
314
100
AcDbEntity
8
0
100
AcDbLine
10
0.14644660940672627
20
-1.6233773230729811
30
0
11
1.6282182438776307
21
-0.1416056886020764
31
0
0
LINE
5
315
100
AcDbEntity
8
0
100
AcDbLine
10
6.8702755017069705
20
0.0048409208046495964
30
0
11
1.9817716344709047
21
0.0048409208046495964
31
0
0
ARC
5
316
100
AcDbEntity
8
0
100
AcDbCircle
10
0.50000000000000255
20
-1.9769307136662562
30
0
40
0.50000000000000266
210
0
220
0
230
1
100
AcDbArc
50
135.00000000000011
51
180
0
ARC
5
317
100
AcDbEntity
8
0
100
AcDbCircle
10
1.9817716344709053
20
-0.49515907919535201
30
0
40
0.50000000000000167
210
0
220
0
230
1
100
AcDbArc
50
90.000000000000071
51
134.99999999999991
0
ARC
5
318
100
AcDbEntity
8
0
100
AcDbCircle
10
0.50000000000005962
20
-116.35779031192826
30
0
40
0.50000000000005052
210
0
220
0
230
1
100
AcDbArc
50
180
51
224.99999999999579
0
ARC
5
319
100
AcDbEntity
8
0
100
AcDbCircle
10
2.7071067811865879
20
-118.56489709311482
30
0
40
0.49999999999999234
210
0
220
0
230
1
100
AcDbArc
50
224.99999999999844
51
269.99999999999943
0
ARC
5
320
100
AcDbEntity
8
0
100
AcDbCircle
10
344.95539321881347
20
-118.56489709311505
30
0
40
0.49999999999995381
210
0
220
0
230
1
100
AcDbArc
50
269.99999999998045
51
314.99999999998965
0
ARC
5
321
100
AcDbEntity
8
0
100
AcDbCircle
10
347.16250000000053
20
-116.35779031192871
30
0
40
0.49999999999943373
210
0
220
0
230
1
100
AcDbArc
50
-45.000000000026461
51
0
0
ARC
5
322
100
AcDbEntity
8
0
100
AcDbCircle
10
347.16250000000036
20
-2.7022658603818286
30
0
40
0.49999999999954525
210
0
220
0
230
1
100
AcDbArc
50
0
51
45.00000000001252
0
ARC
5
323
100
AcDbEntity
8
0
100
AcDbCircle
10
344.9553932188133
20
-0.49515907919559676
30
0
40
0.50000000000012623
210
0
220
-0
230
1
100
AcDbArc
50
44.999999999997883
51
89.99999999998046
0
LWPOLYLINE
5
324
100
AcDbEntity
8
0
100
AcDbPolyline
90
8
70
1
43
0.0
10
334.13750000000618
20
-75.937500000000028
10
304.03750000000002
20
-75.937500000000028
42
-0.41421356237309503
10
300.03750000000002
20
-71.937500000000057
10
300.03750000000002
20
-70.937500000000014
42
-0.41421356237309243
10
304.03750000000008
20
-66.9375
10
334.13750000000618
20
-66.937500000000014
42
-0.41421356237309698
10
338.13750000000618
20
-70.937500000000014
10
338.13750000000618
20
-71.937500000000014
42
-0.41421356237309631
0
LWPOLYLINE
5
325
100
AcDbEntity
8
0
100
AcDbPolyline
90
8
70
1
43
0.0
10
25.525000000000002
20
-3.5249999999999995
42
-0.41421356237309392
10
27.524999999999999
20
-1.5250000000000008
10
29.625000000000004
20
-1.5250000000000012
42
-0.41421356237309431
10
31.624999999999996
20
-3.5250000000000004
10
31.625
20
-15.524999999999999
42
-0.41421356237309631
10
29.625000000000004
20
-17.524999999999999
10
27.525000000000013
20
-17.524999999999999
42
-0.41421356237309598
10
25.525000000000002
20
-15.525000000000002
0
ENDSEC
0
SECTION
2
OBJECTS
0
DICTIONARY
5
C
100
AcDbDictionary
3
ACAD_GROUP
350
D
3
ACAD_MLINESTYLE
350
17
0
DICTIONARY
5
D
100
AcDbDictionary
0
DICTIONARY
5
1A
330
C
100
AcDbDictionary
0
DICTIONARY
5
17
100
AcDbDictionary
0
ENDSEC
0
EOF
