0
SECTION
2
HEADER
9
$INSUNITS
70
4
9
$ACADVER
1
AC1014
9
$HANDSEED
5
FFFF
0
ENDSEC
0
SECTION
2
TABLES
0
TABLE
2
VPORT
5
8
100
AcDbSymbolTable
0
ENDTAB
0
TABLE
2
LTYPE
5
5
100
AcDbSymbolTable
0
LTYPE
5
14
100
AcDbSymbolTableRecord
100
AcDbLinetypeTableRecord
2
BYBLOCK
70
0
0
LTYPE
5
15
100
AcDbSymbolTableRecord
100
AcDbLinetypeTableRecord
2
BYLAYER
70
0
0
ENDTAB
0
TABLE
2
LAYER
5
2
100
AcDbSymbolTable
70
2
0
LAYER
5
50
100
AcDbSymbolTableRecord
100
AcDbLayerTableRecord
2
0
70
0
6
CONTINUOUS
0
ENDTAB
0
TABLE
2
STYLE
5
3
100
AcDbSymbolTable
70
1
0
STYLE
5
11
100
AcDbSymbolTableRecord
100
AcDbTextStyleTableRecord
2
STANDARD
70
0
0
ENDTAB
0
TABLE
2
VIEW
5
6
100
AcDbSymbolTable
70
0
0
ENDTAB
0
TABLE
2
UCS
5
7
100
AcDbSymbolTable
70
0
0
ENDTAB
0
TABLE
2
APPID
5
9
100
AcDbSymbolTable
70
2
0
APPID
5
12
100
AcDbSymbolTableRecord
100
AcDbRegAppTableRecord
2
ACAD
70
0
0
ENDTAB
0
TABLE
2
DIMSTYLE
5
A
100
AcDbSymbolTable
70
1
0
ENDTAB
0
TABLE
2
BLOCK_RECORD
5
1
100
AcDbSymbolTable
70
1
0
BLOCK_RECORD
5
1F
100
AcDbSymbolTableRecord
100
AcDbBlockTableRecord
2
*MODEL_SPACE
0
BLOCK_RECORD
5
1B
100
AcDbSymbolTableRecord
100
AcDbBlockTableRecord
2
*PAPER_SPACE
0
ENDTAB
0
ENDSEC
0
SECTION
2
BLOCKS
0
BLOCK
5
20
100
AcDbEntity
100
AcDbBlockBegin
2
*MODEL_SPACE
0
ENDBLK
5
21
100
AcDbEntity
100
AcDbBlockEnd
0
BLOCK
5
1C
100
AcDbEntity
100
AcDbBlockBegin
2
*PAPER_SPACE
0
ENDBLK
5
1D
100
AcDbEntity
100
AcDbBlockEnd
0
ENDSEC
0
SECTION
2
ENTITIES
0
LWPOLYLINE
5
100
100
AcDbEntity
8
0
100
AcDbPolyline
90
26
70
1
43
0.0
10
-70.131192337214628
20
-60.798939546189658
10
-70.1311923372146
20
40.001060453810055
42
-0.39233174059459303
10
-67.819221632031073
20
42.493979422467227
10
214.64442403739255
20
42.499668946400746
42
0.19890711858311078
10
215.35151062245447
20
42.792562165010253
10
215.76600295470402
20
43.207054497259954
42
-0.19891236737964385
10
216.47310973589057
20
43.499947716073414
10
228.03333739630489
20
43.499947716073414
42
-0.19891236737961127
10
228.7404441774915
20
43.207054497259982
10
229.15462917860401
20
42.792869496147532
42
0.19891761618675194
10
229.86175615591532
20
42.499976277538032
10
283.53991937841613
20
42.501045221325562
42
-0.4131914867071122
10
286.03119228323965
20
40.001060453810027
10
286.03119228323953
20
-60.7989395461897
10
275.03119228323942
20
-60.7989395461897
42
0.41421356237307699
10
273.73119228323964
20
-62.098939546189655
10
273.73119228323935
20
-67.098939546189612
42
-0.99999999999999989
10
266.3311922832396
20
-67.098939546189527
10
266.3311922832396
20
18.901060453809954
42
0.41418402183607855
10
256.03223118080672
20
29.201060453804494
10
-40.131192337214721
20
29.201060453810094
42
0.4142135623730962
10
-50.43119233721476
20
18.901060453809976
10
-50.43119233721476
20
-67.098939546189612
42
-0.99999999999999989
10
-57.831192337214546
20
-67.098939546189612
10
-57.831192337214581
20
-62.098939546189619
42
0.414213562373069
10
-59.131192337214642
20
-60.798939546189658
0
LWPOLYLINE
5
101
100
AcDbEntity
8
0
100
AcDbPolyline
90
12
70
1
43
0.0
10
-22.881192337214685
20
5.4010604538100004
10
-22.881192337214674
20
-1.2550306547313996
42
1.0414315307449109
10
-23.031192337214609
20
-4.9489395461900267
10
-19.881192337214632
20
-4.9489395461900285
10
-19.881192337214685
20
-7.0989395461900333
10
235.78119228323959
20
-7.0989395461899472
10
235.7811922832397
20
-4.948939546189953
10
238.93119228323962
20
-4.948939546189953
42
1.0414315307448652
10
238.78119228323965
20
-1.2550306547314154
10
238.78119228323959
20
5.4010604538100084
42
0.41421356237312607
10
237.9311922832396
20
6.2510604538100356
10
-22.031192337214666
20
6.2510604538100001
42
0.41421356237309809
0
CIRCLE
5
102
100
AcDbEntity
8
0
100
AcDbCircle
10
-62.881192337214422
20
38.501060453810069
30
0
40
1.7000000000000004
210
0
220
0
230
1
0
CIRCLE
5
103
100
AcDbEntity
8
0
100
AcDbCircle
10
278.78119228323925
20
38.501060453810027
30
0
40
1.7000000000000004
210
0
220
0
230
1
0
CIRCLE
5
104
100
AcDbEntity
8
0
100
AcDbCircle
10
47.118807662785123
20
38.501060453810069
30
0
40
1.6999999999999953
210
0
220
0
230
1
0
CIRCLE
5
105
100
AcDbEntity
8
0
100
AcDbCircle
10
168.78119228323979
20
38.501060453810027
30
0
40
1.6999999999999937
210
0
220
0
230
1
0
CIRCLE
5
106
100
AcDbEntity
8
0
100
AcDbCircle
10
47.118807662785464
20
-1.8989395461899417
30
0
40
1.6999999999999991
210
0
220
0
230
1
0
CIRCLE
5
107
100
AcDbEntity
8
0
100
AcDbCircle
10
168.78119228323979
20
-1.8989395461899061
30
0
40
1.6999999999999957
210
0
220
0
230
1
0
ENDSEC
0
SECTION
2
OBJECTS
0
DICTIONARY
5
C
100
AcDbDictionary
3
ACAD_GROUP
350
D
3
ACAD_MLINESTYLE
350
17
0
DICTIONARY
5
D
100
AcDbDictionary
0
DICTIONARY
5
1A
330
C
100
AcDbDictionary
0
DICTIONARY
5
17
100
AcDbDictionary
0
ENDSEC
0
EOF
