0
SECTION
2
HEADER
9
$INSUNITS
70
4
9
$ACADVER
1
AC1014
9
$HANDSEED
5
FFFF
0
ENDSEC
0
SECTION
2
TABLES
0
TABLE
2
VPORT
5
8
100
AcDbSymbolTable
0
ENDTAB
0
TABLE
2
LTYPE
5
5
100
AcDbSymbolTable
0
LTYPE
5
14
100
AcDbSymbolTableRecord
100
AcDbLinetypeTableRecord
2
BYBLOCK
70
0
0
LTYPE
5
15
100
AcDbSymbolTableRecord
100
AcDbLinetypeTableRecord
2
BYLAYER
70
0
0
ENDTAB
0
TABLE
2
LAYER
5
2
100
AcDbSymbolTable
70
2
0
LAYER
5
50
100
AcDbSymbolTableRecord
100
AcDbLayerTableRecord
2
0
70
0
6
CONTINUOUS
0
ENDTAB
0
TABLE
2
STYLE
5
3
100
AcDbSymbolTable
70
1
0
STYLE
5
11
100
AcDbSymbolTableRecord
100
AcDbTextStyleTableRecord
2
STANDARD
70
0
0
ENDTAB
0
TABLE
2
VIEW
5
6
100
AcDbSymbolTable
70
0
0
ENDTAB
0
TABLE
2
UCS
5
7
100
AcDbSymbolTable
70
0
0
ENDTAB
0
TABLE
2
APPID
5
9
100
AcDbSymbolTable
70
2
0
APPID
5
12
100
AcDbSymbolTableRecord
100
AcDbRegAppTableRecord
2
ACAD
70
0
0
ENDTAB
0
TABLE
2
DIMSTYLE
5
A
100
AcDbSymbolTable
70
1
0
ENDTAB
0
TABLE
2
BLOCK_RECORD
5
1
100
AcDbSymbolTable
70
1
0
BLOCK_RECORD
5
1F
100
AcDbSymbolTableRecord
100
AcDbBlockTableRecord
2
*MODEL_SPACE
0
BLOCK_RECORD
5
1B
100
AcDbSymbolTableRecord
100
AcDbBlockTableRecord
2
*PAPER_SPACE
0
ENDTAB
0
ENDSEC
0
SECTION
2
BLOCKS
0
BLOCK
5
20
100
AcDbEntity
100
AcDbBlockBegin
2
*MODEL_SPACE
0
ENDBLK
5
21
100
AcDbEntity
100
AcDbBlockEnd
0
BLOCK
5
1C
100
AcDbEntity
100
AcDbBlockBegin
2
*PAPER_SPACE
0
ENDBLK
5
1D
100
AcDbEntity
100
AcDbBlockEnd
0
ENDSEC
0
SECTION
2
ENTITIES
0
LINE
5
100
100
AcDbEntity
8
0
100
AcDbLine
10
107.27661468465116
20
39.494040539283091
30
0
11
102.39318651096681
21
39.494040539282594
31
0
0
ARC
5
101
100
AcDbEntity
8
0
100
AcDbCircle
10
123.39410012099016
20
16.395677376048607
30
0
40
4.3999999999999924
210
0
220
-0
230
1
100
AcDbArc
50
40.838717927416269
51
139.16128207257154
0
LWPOLYLINE
5
102
100
AcDbEntity
8
0
100
AcDbPolyline
90
8
70
1
43
0.0
10
-1.4058874503046503
20
3.3941125496954427
10
-1.4058874503044549
20
45.394112549695471
42
-0.41421356237309559
10
3.3941125496954432
20
50.194112549695397
10
243.39411254969534
20
50.194112549695205
42
-0.41421356237309398
10
248.19411254969538
20
45.394112549695159
10
248.19411254969523
20
3.3941125496952118
42
-0.41421356237309759
10
243.39411254969525
20
-1.4058874503047392
10
3.3941125496954427
20
-1.4058874503046499
42
-0.4142135623730952
0
ARC
5
103
100
AcDbEntity
8
0
100
AcDbCircle
10
134.32509402794994
20
24.393634609457393
30
0
40
2.8999999999999999
210
0
220
0
230
1
100
AcDbArc
50
139.16128207257157
51
220.83871792739873
0
LINE
5
104
100
AcDbEntity
8
0
100
AcDbLine
10
126.72293477475688
20
19.272978168089956
30
0
11
132.62695025067632
21
12.442447496089866
31
0
0
CIRCLE
5
105
100
AcDbEntity
8
0
100
AcDbCircle
10
123.39411254969534
20
12.393112549695466
30
0
40
3.100000000000001
210
0
220
0
230
1
0
LINE
5
106
100
AcDbEntity
8
0
100
AcDbLine
10
102.39318651096666
20
9.2932286796319286
30
0
11
107.27661468465116
21
9.2932286796314756
31
0
0
ARC
5
107
100
AcDbEntity
8
0
100
AcDbCircle
10
144.39501373101257
20
12.393228679632086
30
0
40
3.0999999999999961
210
0
220
0
230
1
100
AcDbArc
50
-89.999999999985803
51
90.000000000012093
0
LINE
5
108
100
AcDbEntity
8
0
100
AcDbLine
10
132.13108936978591
20
26.290037404212391
30
0
11
137.31758089916499
21
32.290443334038052
31
0
0
LINE
5
109
100
AcDbEntity
8
0
100
AcDbLine
10
114.65711087219425
20
22.497231814702406
30
0
11
109.47061934281521
21
16.496825884876507
31
0
0
ARC
5
110
100
AcDbEntity
8
0
100
AcDbCircle
10
107.27661468465122
20
30.394040539283051
30
0
40
2.9000000000000026
210
0
220
-0
230
1
100
AcDbArc
50
40.838717927428675
51
90
0
ARC
5
111
100
AcDbEntity
8
0
100
AcDbCircle
10
123.39410012099002
20
32.391591842865822
30
0
40
4.3999999999994523
210
0
220
0
230
1
100
AcDbArc
50
220.83871792743295
51
319.16128207257134
0
LINE
5
112
100
AcDbEntity
8
0
100
AcDbLine
10
139.51158555732906
20
33.29404053928306
30
0
11
144.39501373101254
21
33.294040539282648
31
0
0
LINE
5
113
100
AcDbEntity
8
0
100
AcDbLine
10
144.39501373101342
20
39.494040539282615
30
0
11
139.51158555732894
21
39.494040539283091
31
0
0
LINE
5
114
100
AcDbEntity
8
0
100
AcDbLine
10
139.51158555732894
20
9.2932286796314756
30
0
11
144.39501373101334
21
9.2932286796320902
31
0
0
ARC
5
115
100
AcDbEntity
8
0
100
AcDbCircle
10
102.39318651096752
20
36.394040539282592
30
0
40
3.100000000000005
210
0
220
0
230
1
100
AcDbArc
50
90.000000000013145
51
269.99999879259309
0
ARC
5
116
100
AcDbEntity
8
0
100
AcDbCircle
10
107.27661468465122
20
18.393228679631505
30
0
40
9.1000000000000281
210
0
220
0
230
1
100
AcDbArc
50
269.9999999999996
51
319.16128207257151
0
ARC
5
117
100
AcDbEntity
8
0
100
AcDbCircle
10
139.51158555732894
20
18.393228679631385
30
0
40
2.8999999999999275
210
0
220
0
230
1
100
AcDbArc
50
220.83871792742377
51
270
0
ARC
5
118
100
AcDbEntity
8
0
100
AcDbCircle
10
139.51158555732894
20
30.394040539283051
30
0
40
9.1000000000000369
210
0
220
-0
230
1
100
AcDbArc
50
90
51
139.16128207257171
0
LINE
5
119
100
AcDbEntity
8
0
100
AcDbLine
10
137.31758089916482
20
16.496825884876625
30
0
11
132.13108936978495
21
22.497231814703547
31
0
0
ARC
5
120
100
AcDbEntity
8
0
100
AcDbCircle
10
139.51158555732894
20
18.393228679631385
30
0
40
9.0999999999999925
210
0
220
0
230
1
100
AcDbArc
50
220.83871792742841
51
270
0
CIRCLE
5
121
100
AcDbEntity
8
0
100
AcDbCircle
10
13.394112549695393
20
24.394112549695464
30
0
40
1.5999999999999992
210
0
220
0
230
1
0
ARC
5
122
100
AcDbEntity
8
0
100
AcDbCircle
10
107.27661468465122
20
18.393228679631505
30
0
40
2.8999999999999737
210
0
220
0
230
1
100
AcDbArc
50
270
51
319.161282072571
0
LINE
5
123
100
AcDbEntity
8
0
100
AcDbLine
10
132.62695025067626
20
36.344821722824591
30
0
11
126.7229347747557
21
29.514291050824109
31
0
0
LINE
5
124
100
AcDbEntity
8
0
100
AcDbLine
10
120.06526546722455
20
29.514291050823861
30
0
11
114.16124999130396
21
36.344821722824648
31
0
0
LINE
5
125
100
AcDbEntity
8
0
100
AcDbLine
10
144.39501373101191
20
15.493228679632082
30
0
11
139.51158555732894
21
15.493228679631464
31
0
0
ARC
5
126
100
AcDbEntity
8
0
100
AcDbCircle
10
107.27661468465116
20
30.394040539283051
30
0
40
9.100000000000172
210
0
220
-0
230
1
100
AcDbArc
50
40.838717927428092
51
90
0
ARC
5
127
100
AcDbEntity
8
0
100
AcDbCircle
10
144.39501373101254
20
36.394040539282734
30
0
40
3.100000000000076
210
0
220
0
230
1
100
AcDbArc
50
-90
51
89.999999999983714
0
ARC
5
128
100
AcDbEntity
8
0
100
AcDbCircle
10
112.46310621403025
20
24.393634609457393
30
0
40
2.8999999999999999
210
0
220
0
230
1
100
AcDbArc
50
-40.838717927428618
51
40.838717927428675
0
LINE
5
129
100
AcDbEntity
8
0
100
AcDbLine
10
109.47061934281524
20
32.290443334038052
30
0
11
114.65711087219427
21
26.290037404212395
31
0
0
CIRCLE
5
130
100
AcDbEntity
8
0
100
AcDbCircle
10
233.39411254969536
20
24.39411254969519
30
0
40
1.6000000000000014
210
0
220
0
230
1
0
LINE
5
131
100
AcDbEntity
8
0
100
AcDbLine
10
107.27661468465122
20
15.493228679631532
30
0
11
102.39318651096752
21
15.493228679631965
31
0
0
CIRCLE
5
132
100
AcDbEntity
8
0
100
AcDbCircle
10
123.39411254969534
20
36.39415666921898
30
0
40
3.100000000000001
210
0
220
0
230
1
0
ARC
5
133
100
AcDbEntity
8
0
100
AcDbCircle
10
139.51158555732906
20
30.394040539283051
30
0
40
2.8999999999999915
210
0
220
-0
230
1
100
AcDbArc
50
90
51
139.16128207257188
0
ARC
5
134
100
AcDbEntity
8
0
100
AcDbCircle
10
102.39318651096752
20
12.393228679632086
30
0
40
3.0999999999998806
210
0
220
-0
230
1
100
AcDbArc
50
90
51
269.99999999998397
0
LINE
5
135
100
AcDbEntity
8
0
100
AcDbLine
10
102.39318651096752
20
33.29404053928257
30
0
11
107.27661468465122
21
33.294040539283053
31
0
0
LINE
5
136
100
AcDbEntity
8
0
100
AcDbLine
10
114.16124999130388
20
12.442447496089953
30
0
11
120.06526546722405
21
19.272978168090667
31
0
0
ENDSEC
0
SECTION
2
OBJECTS
0
DICTIONARY
5
C
100
AcDbDictionary
3
ACAD_GROUP
350
D
3
ACAD_MLINESTYLE
350
17
0
DICTIONARY
5
D
100
AcDbDictionary
0
DICTIONARY
5
1A
330
C
100
AcDbDictionary
0
DICTIONARY
5
17
100
AcDbDictionary
0
ENDSEC
0
EOF
